<mxfile host="65bd71144e">
    <diagram id="EKbqP4maebNAaId7195T" name="Page-1">
        <mxGraphModel dx="2209" dy="1198" grid="1" gridSize="10" guides="1" tooltips="1" connect="1" arrows="1" fold="1" page="1" pageScale="1" pageWidth="827" pageHeight="1169" math="0" shadow="0">
            <root>
                <mxCell id="0"/>
                <mxCell id="1" parent="0"/>
                <mxCell id="160" value="&lt;br&gt;&lt;br&gt;" style="rounded=0;whiteSpace=wrap;html=1;strokeColor=none;" vertex="1" parent="1">
                    <mxGeometry x="-170" y="18" width="730" height="560" as="geometry"/>
                </mxCell>
                <mxCell id="4" value="" style="shape=image;verticalLabelPosition=bottom;labelBackgroundColor=default;verticalAlign=top;aspect=fixed;imageAspect=0;image=data:image/jpeg,/9j/4AAQSkZJRgABAQAAAQABAAD/2wBDAAUDBAQEAwUEBAQFBQUGBwwIBwcHBw8LCwkMEQ8SEhEPERETFhwXExQaFRERGCEYGh0dHx8fExciJCIeJBweHx7/2wBDAQUFBQcGBw4ICA4eFBEUHh4eHh4eHh4eHh4eHh4eHh4eHh4eHh4eHh4eHh4eHh4eHh4eHh4eHh4eHh4eHh4eHh7/wgARCAPrATgDASIAAhEBAxEB/8QAHAAAAQUBAQEAAAAAAAAAAAAAAAMEBQYHAQII/8QAGgEAAgMBAQAAAAAAAAAAAAAAAAQBAwUCBv/aAAwDAQACEAMQAAAB2UAAAAAAAAAAAE/OZ0vP3voA+fzm36APn8D6APn8D6APn8D6APn8D6APn8g+glMm1lzJAL0gAAAAAAAAAAAAAAAAAAAAAMtqdsqeZ6RQDS84HOgBwOgAc6AJ+/FTVl1nJtZoeAHcYAAAAAAAAAABtzLkbHPTkbAORsA5GwDkbAZtU7RVkPQqhIu+fjieRTZhz340EwPfLPgV88M+E1E5Xsus5Hqq+guIcdx3AgAuIcBwN+guN+gucJ45AT8Ag4AJuAAHOxBD/wBZY0Yp15bI9Vr7pEVK+8/fLxGXe/DbsoG57GbmtQ1rNsvUS0iNtejaVdK835uFNrbU1dmb0XOtBrlL3iyzuPs/to75uACQAAAiZAvzewE/AINACbgAAkrD9cPhl475fPIGc56ofvwyzvQXq5ZdfW8CNswhuZUZmlmpGJtaNYsr1XUilaEQt+VT6Y9YpeinNFzrQeIaqxntzJmiBWJmA5FnQAA4RNAX5vqEm2ddzAfld7AfgMB+AwH4QwH/AEMur1nrCewtNwb/AEsyxshjxrMGyqVnnOroOVNx0wlIynTRTUTb8xO6TnOnrarYcjeU2HIDYcgNhyA2HIDw6WJ9iJeIYvALmCLlKPHMm1rveK7mypygW21ZJrHXWf1yx1zF25nTqnofpEU/Ge6Bl4+c1bVsz0fQPdWrVnxFl4qp6HflYgwutLS9HN6LnWhcFYdUXruLp7tNTm8AJAAACJkC/N9REvEX3gFzAzeRMcuFmHeeX6PtlMuXsZJzOe1yx1vD2LppeJXr06qlj8xudlNc5koNzX0G14/ouEM7rH1e7Nhaou3W2JzRM70OuWziP8OZMnyKVJlTnYsAAOdCJkC/N9MnsbbYqJFlqokAqJAKiQCokBndXs1axdtRx4nPRZzFG6xujq1Djtph+dHFmmluqbG2C28MZcnPwBRYNNzDS1tJQTHchQTAUEwFBMBQTAkwOqexEvEXsgFzBWbNWY5Ywb2U4rZJKpArfKHeuu8+rljruLtWHVKPoHokK7PUe1ZmNUqvpFX1Npz87aVV8vESibnQIn6jyu21+pp9omd6JQ/nljqdidxnDisKwS6sOhJYLFXbEQAEzAAeoiXiL2QC5gjJNnHKTlHsR1u/aAnJsnszntcsdbw9i06nh9o9QtZbHW41RJSrM4+261YR9GxebkZNXtP0AHeZWqpUtTmj5xo9D4A7jAAAAAAAATAAe2zhhxwuIHPC4hwHHW3QcDboLjcDOqvZqyj6hRTtqs8VXkdQjJ6zoeM7biVjbx6DUi4XR6t3NUTVSxu7FqWVacq2uID2MuIALiAC4gAuIASBwqnsfIR9C3edKFyiXuJnqgV/TZezvMfd8ZE0/Wq9YeeM6rNmrKnrbHrOcaT34il2yt2zT2KRQNSy9TJuF5rctt7sPcMp1dCjIa/dKXpak/o+cabi2YotdJd3GzSZu0fJWnFzayVHSYKdmACR+Ar11g/j6Fu8ChfvADvDoc7wAOgZvWbNWaPYy2tYq/58FsnvOIyy1/VPaVts/rGESXrN/XvOdQFXPuOUTQvn9KzXTs6+CaWL0/jQzexcBuxkFyK1JSPQUA6H4CvXpq5hYiRI4CRI1kE+RwEiRwEiRCoUWrWOu5vpFbhJUPT85pcf87WXnm2tNTzHrpLrrT9tvJjc6rJmqayORZYtWybTkmXZCD2NNkN2SYGLYJchnwOxpwJE4UT2FmoUAAKdTNkRDMvOo8gx/wAbDyTGdjUWDP4CfgMz0eh/Nf0h836fnNHpV6oYaHaKjcWrJb32Qt6RUTUQpqdTt9Q09Sf0fONNxbPnmb2Idxsedar4kzZPWmoZzqTVTqFehI/AW67CzUXAiLAIiwCIsAiK9BEWAziu2St5npNOyaTven5v5vmvolKI9Zw6jepkNXxj1tt7xXMxb8x7bqJ5ds/pWbagkzXW9qHsaEb2MCPiJ9wFc7YgPB7OoeHRbrrVywpoWEeVUrlaYzNzKQrM3Iprgi1FEuERn1Xs1ZU9cq79avHgs+j9iS67xHxZq3Zb1/IabQrmsPszDqzHEpWKs1rDqeVadxqLlAdt4l0KQqFyKwnEWsq9hIXECIkDg052PkI+mjpztC9Dr+uc7soNZ2XgZvIXgIqNuDnnOKzZqyt6+6XvN9X78RSfU2aewyzW/wCfYfnNGjlZ9/T8RnuZd0KdR7ZUsVCf0jN9Os3cZktUHMTMVtHIihxundDONGCOe8O8w+Abf7HyLbipAXKqUOOAG/VwG44Ab9XAzCs2irq+udXSiqd+H2CLznxQu5jwe0n1/wAyfLJ6tWoCHjnjT34Z3bBp2Z6mu8gLjOE3HADccAN+rgIccALnRpwZPWFNHo8lK/opcb13oxlnZnUjPmxGlGc36Iz6sWasq+uXmkdW48DU4y5oMNZYhd65zzYXTbD9LW1K6/MkuGrVzVMtpanNJzTQ6H3Bl1mdxrWU9yFnKaqFtKrZgUEwJk4B6YP2FCwBQvVYXROddQNd0DoUdjopM1+wnOec4rNmrK3r7te8r1zrxFOLG01NdKrPa1lY0LE6VhmrtWnlIkw2iA0TL6WprRc60eh/N5+0juNQVL0BSm99AgJ8AAAmAA9MJBGqlrx2VUteOwGg7AaddANeOwMtrFqqqvrXE9XvffiNEjKqmjnem4a+7evFIku7Er3XIWqmZq6idmtOaPn2prvRpJDuNGkkBGkkBGkkBGkkAseiZGD9hQsByhc7nVe7s2YxhlM7mZW2I10yfU+ec9rFnrKvr3Vvi9G58C2jFfL2ln7HRqAlnK3xu+mZCtT7lp3JGtsqits/p2YaQbC/MLcuYu19xSYI1IyKVg0gzfSI5O8OeX4Db/WD9hXRzoULxLOxcmW8XOAV5hcCSp2dUgzis2asLevu2kYtrM+Gp3jQ09TZgM0n6zi+e0wqmntvUd5cWT2jS6NKxGQpYNNzHT+9yqykqM4MYysHQr3iyBMJNd4c950gfANv9j5BpWJCpVynxUBPivATFQEuqcDNKxaKwt6dV6yluvKykY+b5PMKmsj6K33JxS+fjWOETSTQRSUT2/Z2DTc11VRpoOxnCajoBrx2A0HYDTroBQ6Mt8gJ+ARdAE3AABJWKI8r52wYo0+UyXU67KRX7BA86tiv8NY+MuRZ12N2M3xTNbzbEb9abCoOeZu1bj1ntHP2F2pWZTP6dmOj9bcZ6xOadxtV7lbkjT/eOvoNUe5NrPPAcOeX4Db5AT8Am8AJuAADdxGdcSRE+O+ZnsDOc9UOBn6/GppF1yTQOMtHtgZ7GawzawU3Eb0Z/numueZjPdmrbujW6W+YZtM/p+Y6d1t+T0MYHDoHk9cAO8DpwB+A2/2Il2MWthycdNeuQG3HQDbjoBr1yBmdcs1ZS9ArLQrfc87cEGUWMOUUFq1PS8xckk86RvMlQvlqcpFtbth1HLNOUcVEhzEVEgFRIBUSAU6kBIHCy7sRLxFtIBbVXmjav12WH2lXZLUtCyRHm4ZjpMxQ65Y61k+qT23NNP8AW+ZdsqSYVkA20Kq71dpwG6wOBZWJWxxUTu2UXCuVNP8ARs50Kh+mWTN7A7jWv1mrwLwpQkAvc1VLWQAEzAAeoiXiLKQC2qOT6rx2LtFJjnUVCfMjFyhGfVuyVzI9U63L5+s3s/MXxPkLl9owFfdvczlG2qg4VtDaTejhNZ5dqJS1OaPnGj0PgDuMAAAAAAABMAB7aOorut2NDvh2NAHY0AdjQB2NAM/q1lreP6lREees8xEq6FC6nED1m885d2zV+1YeW7r9trdddZ8OG7e/YdQy7T6H/R5G8P0eQPR5A9HkD0eQHxwuY7ES8RZSAW1FRt0Dz1XK/bJeOqmTjYK7q9QuM855W7JWsn1SmvZ7o/rPMnhFlhWVqradmGwleZ7z58zw5csXTuhQK7faJjIzuk5vplm7k676WdxqpMTrIiMbSjqJYX+sWaKzpzjl+A2/2Il4i+sAtqhUpRbjuMeeuTEb2S8xLOXbOuozyt2SuY3q+a7kSvtPL7K6z2GUl5XWzs5uFkzGyePyLc6r1duYTgF0IfsGnZhp/GrwBjAO86BwADvADoD4Bt/02cRF3L8YHfD8YAPxgA/GAD8YAUGr2Ot4/qVUPFw9b5ikq7RCtRnfWrnK7EPGlO15v72SmxxU027jI07FqmTaTntyBHj2HIEeBIEeBIEeBIEeBLnDhjsRLxFlIBbVnFd1ptXZmcdt7GTO3t0dEUHS2T3qM8rdkreR6p9qucXb1fmfHW7LDs9Z1quT+qp0CcZMMey0eoozuqVFWSta90/oeeaT593BnunvncbJZLSW0mSXO2KkPgO+ACCWAXa7ES8VZX5TV7ZVUntgOeoB1JJyQLidArk+oEZ1XLJW8f1aG0ZA09j5f6Hb4tH8zJMPK1Mq7XhSbfP0HD5NFVz7V7zLdndHznSsxupO7EPYkA8kE5IDzaCBvAzrmY8nomJQBdnrR3CkvxgA/IuHC2DAB+MAH5CuAo1YsVdzPSOL47yTT83sSfzBMhpcZp+byNWjzZvQ04ml9D1fkyvy3cZD1h1LKdJzXHpUFX8S1FX6FnKuqFjGQQ9GQEucKWOws1CgABUqlrQGUeNaAxNPcAMQ2R2Bn0DPV/M9Jf8ADd3xnT81PJQLiJnLVW7C5zMrs1L4jrN5d5vVCr07B7F09oeeaT593CpfUuu42WudN9yZtbJb1PLkG8w4AIlgF2uws1HEthyA2HIDYcgNhyA2HIGa12yxeZ6S7UWSt+l5v5wsn0Ww5lvmFga9xXdbojXfq2SmUpbkg3E61yXnWj53pyDVYdTo9i19aa4RAep4Jj4ux9IbjgmHwFDHrx7TW66eerz04kSsZnO9xbyJrnJeTLtOkzKdgZ6j0VnSPeVhevCLViJFTwdQePTVPp4n69sRyvzkGwxVNXyfVbHfZmc43jXAjK1yXgzrQg9nOQejgCgD/ImomtPBkyo6m0W7UMzstmb2xyl3VXkzTZIOXgzeegZ5b0dnbLRqmAklMe/SUu2bhHxbDmt2CubdcPLP3WzW7rs9A+U0KpquValot4/ZbJIOY0XSb0rBQ9QhuBO8rq/MznI2T5FANHgTU5VLNGSKxolIAR/mSAbNZMBg4XIMsnoKdW9HZe+2ivnpBOuPUaX6vTcuRX8mb2u39crPEDYq7r3VPVcr1mp6OUejWNGLPQmOXdAR/X4QydeyDoDccYP2FKwBSuBSzq6GZ17vrbO5X0NTMh1zmM5sVdsS3rnlaTuvHgWMZLKNu1+71Kappms35l+nr2bQ8NQD6nrLhvS1TNIzfQqH1jIrW7jXIorsLeUVQLsVK2B04BMnAPUfIR9C3edKFyCneTNPmZjklWZ3UJp1w6RGcTsFYlvXxtvo1z68PCMrh61Nhi0h7VlY2PV/YsH1dm3wsA4idlsUpFVNUzRs50eh+jTU+O41O924CqoXECHmAAACYAD0wkEaqGvHZVU147Aa8dgNOugGg7Ay2xQE+p62XpejQHfiIth5lM/KcWhJXb9GrW5utBAXmsStK9krVhr1+1TNHz7VF3owkxzFjCTAjCTAjCTAjCTAVPR10R8hH0LdAoXPPc4nrROY5HWd7tzFPEG3+8B3qOc7sVdsCnrk/cTc+fBPYxBPR1K1oMDFZ2UztTDz3ZaK099OPwUnBy6MVXTsx0edr3z5+lHcXbu4m/g1/wA5UrEah7y7UY5A5zy/Abf6wfsK6OHeULiC4Ec6XJGaMkEx0j3hGcT8BYlvYRVsqVxPCxTi0NtXYgax4u2NgxrWE0dhyhWaxRD+hUXsRYMlan6fmGn97kS6djOC0SkAEmUnwiMk+8DvDsD4Bt/rF+35rQFyqlAXAQFwEBcBAXAy+xQE+r62x0y6U3rxDQ56y8a2ykZJ+g9RHU/Q/VK+cr2uWpXYwtjrjfoKhp+Yaiq35PQ3h+T0B5PXA4egPJ6AdnS5gYP2FC3OnKF4hnAV6y2+OKvVpNNeUV7ET9lyzTYjPrFXZ9T1sbbqjbTws61pKepsMr9GJZmQ8+a79G6uzndu56ifpGuQs3U1S9HzjQaH61aMZnHcbTDF3wa0Y94DVJGmXMAAJgAPUfIR9C3TnaFzneAHeAAAABnFgr9iX9jDXOurx4Jf3YIzR1WK1V0JHNyakfSOC6m1GN4/RwuL6z1elqmaPnGj0PgDuMAAAAAAABMAB7auWdVPs8FVPs8AezwB7PAHs8AZtYK9YVfW2ivyFK78R6k02OblX1asWfc9Ee61XV1dBXo8bVTo1dfMW/QVDTcz1Bd5MUHMNMUATFAExQBMUAdnS28YP2FC3DpQvVGa9estekxXpmUUbysRBaBnugxzntirs8p62Hu9Su3Xh/LSqyupsRk+rUMTzy1sa8c0JhOiWl7QqtjjXGMlW9KzTS7N3PXMHKu43h/1Ihfj6JglLTR7xzwd53nl8A2/1g/YV0AFC5zvAO86HAAOnAzixV2xL+xgrzHVznwNu8t4xt72pH3hZSmTcH6jmxOYuusNIz/spaqGm5lpsa4d4xgdOdA4AHTgdAB8A2/6RVj+a3Y1KqXQ0AdjQB2NAHY06GdT9dsSvrbTENYLrxCMxKRaqVr7Q73p7BV2DlPPirT7rdNF8rvj3oemqeq5Ppqzrsa8awnY06DoaAOxp0HQ0AkDgy31g/YUrgcoXoUDfmNltHT1yCma60tbIiq65WrPzzndirs8p62Hu9St/fiGjNJzp7DMlajieck5L01d03zukTrz8HPx7nFRrWj5vp1m7i61tl3cbOpq4R5FXa2/2TF32An+KzvDnl+A2/1g/YV0c6FC4HAAAO8A7wAzixV2xUexhL63pPPgtK7QGdlrmxtbHM5/fYOsU0aUhSWdlvLHIx/WnUNNzHT69TgDGAd50OHQOHeB3nQHwDb/AKauYXqZEjgJEjmwTRHASJHASJFewotgrNmzfSWlT1jOn5zYVPkyyc8fRfGziekqpF3PKxabO2ysxzP1+Jlmd2p6rk+nU6Lki+N4cqRnYiTI8CQ4wVB2NQH5wZb7CzULMgAU6mbG2DOOaZ5gydPWCTINgHQZ/Z6xZ8z0nrBNzwzT81aY908iXGqZFrdCrFJ1AVVWRRg8dersrHP8VGsaPnGnWbvztNbGo7jY081nzEY1YdD6RRtDQX54DhzD8Bt/sLNRXfSQqAkKgJCoCQqAkKgZzZq3ZMz0lt+evoFfT838cy/1A9CEklvMRnOiM6fk4elwVMe9dNZ6cg7dmn6fmOoVaPg9jOB476A8HsDwewPJ6AeHRp7oHXQAAAAAAAAAGWzkFO5npLSBp+bAAAAAAAAK7Yq7S1VdZybWaHwB3GAAAAAAAAAAAAAAAAAAAAAAy2cg4LI9ZsRlIzm6sZSE6tzKgNWMo6GrGUgatXaW1rulNZybWbVwB3GAAAAAAAAAAAAAAAAAAAAAAi2dgK76+WAjqvlgAr5YAK+WACvlgAr5YAIqVDukA64AAAAAAAAAA//EADQQAAAGAQMCBgICAgMAAgMBAAABAgMEBQYREhMyNRAUFTAxNCAjByEiJBYzQCVDJjZCUP/aAAgBAQABBQL3FLQkcrQ5WhytDlaHK0OVocrQ5WhytDlaHK0OVocrQStCj/8ARl/cBoY0MaGNDGhjQxoY0MaGNDGh+GKd0/8ARl/cG+n219OKd0/9GX9wb6fbX04p3T/0Zf3Bvp9tfTindPd52xztjnbHO2Odsc7Y52xztjnbHO2OdsZYolTm/gNRFrHkmw5CC0qQrw2jaDT4L6cWUSbPmQOZsczY5kDmbHMgczY5mxzIHM2OZAL+yV0/mTzJoU62lBuNpWMk+3GjuONxY2w4cAtpMskT8Flwp0YwZGRxmVvOwqiMyk4sYysqZBoWQX0453AFIjmpLrSkJUlafzR0K6fyt/K+n1cdh2zgKcnuZMmAamFb2Mk+3V/VrmyclC1mz27AXDZG1NTpIxdktsxT6YqzsIEgZAyTVg58Y53Bw9G6pDUedMNyCqIymNF/NHQrp/JWxQYjx44RHYQ65FjOOjJPt1f1apW2WL1txaxbqIo04/8AYxdwjjT3zjQ6iQlUsZK4Sp7nxjn3w1HiJdXHjre9hHQrp/Io5rfLmUtCpClpOSaSLQsk+3Dkk0zFkE4cOWh5IddQ0mfK5FOLNbldLVEkRJLMpsWNgzEQ+4pxa+nHO4Of9bLDjbO54k/7WxnmU5+SOg/jjWONY41jjWONY41jjWONY41jjWONYyUjKY30pUaVMzEmEzj0emID7ynTBf0EOGkzmyjI1eC+nGyM7DYsbFjYsbFjYsbFjYsbFjYsbFjYsI6RzDmHMOYcw5hzDmHMOYcwytW6c30kRmaGSCYD5k9H2m4g0eBEG2lLUdfMIlI0ML6cYVssvMDzA8wPMDzA8wPMDzA8wPMDzAL+yP4/Cynxq9mJdwZKYuRV0h9FtDU5Ev66TIfv69mQMn+430xWzMV8FuMg1JJTzTbyLOJ5Z5RaKrYipcmNHajt6lrYwGZjb7Sm3F9OOdwEa+hyH2beG7BiPpkxvzR0H8fhk0WSqRHK3kPUNG6uO5WTJDi259kdmqTJno6Mn+40KJBKni/gMMR4qiXGv0EcN7/sxdBFFkvNx2IRSFZMMmQSZznxjn33NTbr4klE60rpnqiEkhH5o6D+PwVIbS55pveTyOdp1DilSW0hUpovDJ/uN/FQ8TUwOxLdIhMJixMheImXj/bi75aTYrEyOmgjN24v3yesHPjHO4GehNSEOGSkmNyRvR+aOg/j8H47i3jYeMJjOEtpvY6tl/bwvpUXxk/3G/hhYr7XalMuKZSrSO0UuQpaxHdW05CuY7qTmwyKyuU7VGF9OOdwWWqExElHOO4ZeTVsZjGlz8kdB/HCY4THCY4THCY4THCY4THCY4THCYypO2c30hDqiHIYW6oGZn4tJccM4cwiXuIwvpxlO6y4FDgUOBQ4FDgUOBQ4FDgUOBQ4FDgUE/0k/jkWORY5FjkWORY5FjkWORY5FjkWORYygzOa30toNZxIjjxppntJddIZS61p4UtT5krG7qagJzaHujSqq9Ytq9cF1fTjRmVjyLHIscixyLHIscixyLHIscixyLHIsJ6T+PwvLNcE41lPJMLI5i3fXlNON3U9lyyt7CHMGT/cb6YTBuOMNIYaft2GpKD3ouohMuxI3PPzC0OqrS3uOSaebHYhyHokmK83eUTpaFjncFqJCEXdk+2/cRGHnLyuRJdtYjbjt7XtB26r22senuWVf4o6D+PwvKxc44lBIS9SUcaCz6CpxxulnvOWdRYTnEltTk/3GhQaeeCYUtIq5By66+08hQ6erfyMavWMVJJ5C35OX4fxwavSbP8AqZjncFpJaHMcmGzFqVx7V2gkmU+kluy2aV9D7NHMYLH4DlbA8UdB/H4SpC2nDeeUtlZrUy6pbyn3dvO8syGT/cb+K6RwvoUS0v0sZx1CUoRfyCUqvkkxaZ/WqlQmlrack3El9lCVLXRxSpaB9RrGOdw9tHQfx+D0dLilxW1H5cicJBE4uKhQXGQoF/RZP9xv4aXtOBYOxiTcsaSrdxZPO+FJaoNu4xCJKWnCZ+6mx+BTi8s/NqX0453D20dA40DjQOJA4kDiQONA40DjQONA40DjQMsIkzm+kI3Dc4Fm4f4RbCZHI7ufpJlSJBhfTi5Eqz4mxxNjibHE2OJscTY4mxxNjibHE2OJsF8H8e3lP3W+lCdRXVbklKaaERS6QtrzZkoJIzODRbknSQTKyp3YyQvpxnuPtp6T+PwyeVJRIiylMPUsuxdluWkyM4tyfWHeXS3ZSTJScp+638VcfzEsiIitJlxCajG6bGSRyILL/LF4xLdlvpjRY9lNJ0XUYos9fTjPcX18bKZUpyuup7qrOVLtG8YUqba3dVPtptDUWnlsVxia89beKek/j8LOvi2LMWigRyr4jUGIiphJch4/WxZEqkrJBJIkpyn7rfxjpkVgH/8AayQZEZFXudWLKLyV2481UtN18Z0ZSojnL6cZ7iF43VqdTWRUz7Svj2LNjRwJz8WHHjQ41XCZgQ6qDEmeKek/j28p+630xXlNOQ5LcpkkIJajJJXU0pT6j1Olm+TlIUlaW48dpcuQ1GZmPqkyF9OM9xc/60SCBPu8EUnFLTuJENSlxeP/AG0vOHHjHpK8E9J/Ht5T91vpI9BHfW0tNzMIpc6RICla+MSbJig7ycZSH3X1hfTjPcRxthSEKGhbtiDSppeppSYNCDCEJR4p6RytjlbHK2OVscrY5WxytjlbHK2OVscrYyxRKnN9JEZnBonXCTRwiKTj6DKVHejO/kvpxYyKz3oG9A3oG9A3oG9A3oG9A3oG9A3o8D+PEzIiZmRHl/g862y2RkZZN9xvpxyClDWR5W8t1yTIcXU5DZV62nIl9UutqadisOSH4NVFjJNtsys6ZpxCiMjX04z3ELmw0PPzYcdapcVLMiVFjglJNBSYxx48yJIV4p6T+PHMCeVRxpEH1iE9YKi1E2SqdCtJDiPOWCYt7KeeEL6eTfcYLceYPnBxwLTEiSrKP5Sw/jqUpFlkzZIssVZLjvpFg29ZrekWlO48mVkjJNWK+nGe4v7+BDsJmqnoflXdxAdrcZeOC3kdDCclYzEJJ4FihpRb+Kek/j8ENNINCEICG20DhZ14Gdq2mln8DJvuR1bVZuycnHRAlJRHsZHm5/8AHcdTlvk6yVYYq6Rx79l15izQ+xZ07T6pWTOEuwX04z3EbI5ufo3LVGdQtUR0v6NLaoxBvy7aUOtr8U9J/Ht5N9xvpoJaJMTI8akwXRV1c2ydrYkagqZDqn34EpcSRCnR5aBZ2jMVDi1LWvpxnuKy1Qjl04H0MxmTRI4TS3DI24yGHCW22sn4qFb/AAT0n8caxxrHGscaxxrHGscaxxrHGscaxxrGUEZTW+ltam1wb4tDl0rpv3cJlE+a/Mc8CMG+8ZeC+nGP7stihsUNihsUNigqK2pWxQ2KGxQ2KGxQL4HIY5DHIY5DHIY5DHIY5DHIY5DHIYyw9ZzfSRahtrU01k0ykRnGTUnTwSnUMR1umdXNInGjSoy0C+nFz0s+QxyGOQxyGOQxyGOQxyGOQxyGOQwXwfx42trGrjavYrkKvyCLLlN30JUSvvYsuUi5hOWs3IWojjSuRrKfut9MdtS1V8JqI2haVksmXytoXlH9P8quGcqQhLEVp51plEliNYR5TKmnF9OM9yC8mhEqwvo8SUvIYSa2wvYsSUi4r1VyLmKqnq7Zme/4p6T+PG8iTUXLUG6cr6KiJkFST3qtLNlZ3DkBTeUWEd+XfjKfut/GPJJVjOYckMY00s8cxlkmH8iQRwP/ALMZSRRcljLN2whxXX8db/yyRJFNdGM9yeRyMph3seDIqJ8i4u6VTNItmyrLmjqFxqZqusP+G41BkR7LxT0n8e3lP3W/iofJiaKeIqDBr4io0jJXy49f2Y0+RHaxFTGruBNmyIJTyK8fJ6c58Yz3L209J/Ht5T91vpbUK23NlKbKEZTLlhCZDy3HAw6pKoVy0pJ2MIisbjelxQX04z3L209I4xxjjHGOMcY4xxjjHGOMZYWk5vpCVGNTClK/CO3IeB188ieJ1CgvpxYtbPjHGOMcY4xxjjHGOMcY4wXwNyhuMblDcobjG5Q3KG4xuUNyhuUMq+830pLUQoT0k00KtJlTJYStPhSVJPJtMkrKw05wndX2VVeNXFcqE4vpxs9LDesb1jesb1jesb1jesb1jesb1jesJ6T+PG5spTVgi3mprai9nPWKMjkIr2bOzi2bttbx5lvMvYchrfxZT91vpgsG+/8A68KKzZRXKuHasyZGQRCZdgR/MT82tFV1dAr5U4kJUtcpiXT2VfIReULpGQxzuDiibbTc2rzD11HakOX8FD71xFaddyCG2bl7DJvG5z1hXeKOg/jxuKpUuTHxs24tTVxoDCMbScGLSyfPR6OzZnvV6nbsZT91r4x3T1CVHYkFQLjtYrLS8xe5Fp6djunqn8jbvWcbkvqFFEWULMY7jVn/ABxu9Js9POY53BREpK8adNuNU8Fo5jy1CfROvSmqRaHm6F5lNFAOtg+KOg/j28p+630wJHBIbWl1tmDGagQ6mHFeyGUTjldI8vY51WKmwIcp2KsPuybGZUxk0lC8ZqGOdw9tHQfx7eU/db6Uq0ECe/FCb1Oky4feStXhSWyUItsVgT1pwd3dV01ZSIurI5i19OOdw9tHQNGxtbGjY0bGjY0bG1sbWxtbG1saNjLdPPt9ISShooKJX4RpEtgHaWOkhx91QX04sRHZ8bQ42hxtDjaHG0ONocbQ42hxtDjaHG0C+D+Pbyn7rfShOoralchKaqCRS6Vs0vtKQsMtmaodKnadVBMrGoUylaQvpxnuXtp6T+PHIHHn71uXtrMb88uyKwmMU5E5V3hNyDt7xt71FrcTWU/db+KmOUiZPlFDYiWS3McqpFhIcyWOW3T9mNxyNVvbKiyLOY+3Iq3pbqLqOTE1z4xnuT6jQwh1TlZcyVSLWcuyYxdROWl9CkvS8dqWpJ1WNqeYu/FPwfx42NdDsEM0ta1FjMtx2GqmA2xApa2C6nGqglyMeqpD7SEtNZT91v4x5RFYn8VvH/wvdWv2GRKIq/8A+zGlF5TJvrXjUVN7jvF5nJVEc10Yz3EOY/UOSCr4hTbCDGntWFNXT3ZFNXPxY9HWMMV1XCgK8U9J/Ht5T91vpjOqbXBltS2iIiI+NpNxN80/r/lUzPKSEKbebURGUuQzEZlvqedX04z3L209J/Ht5T91vpI9A08aFJtpxFJlvPhStfBKtBGlOsGdtOMnn1OKM9QvpxnuXtp6R5hA8wgeYQPMIHmEDzCB5lA8wgeYQPMIHmEDK1kuc30kWptQ9QURrRyGgw62ptQItQSBx/0aPBfTix6WfIQ5CHIQ5CHIQ5CHIQ5CHIQ5CHIXgrp/JxaG0IsoC2nJsVth6wgsvjJPtt9MBnRMOChCRIjNPFPi7TUk0rhRlvvQoEeMkWNU08l5Bka+nGe5By1rW35dlAiOLsYKI0uwhRFOzIjcaJKjy22ZUd57xT0q6fytlMJgUyGZdrVJelTsmXDUtgzNjJPttf2KtslSrDznDRJVNxuFDJV7cII2Jif9nGWi4shcsEvZI9xP4w8p5nIWiRPc+MZ7i+SlMIeajVk1qVJvbuuVWY28uJCyGKpiBjlY84VXiW5m78U9Kun8uZrf+GSfba/oVbhJlH8Y8w9Fpcfjux624WRMTFf7OMulxXrDshizZkt2tOxIKXkLpLnOfGM9y/HQafinpV0/kmPudJpw1ttyDWll/aRERZJ9tvpgPaphzkLSX9iRJaZKdK3GpRqXCkLYeh2EeSkzIisbVplLyzM19OM9x9tPwfxwuDhcHA4OFwcLg4HBwuDhcHA4OBwcDgydJpmN9Jf0bUwyBTGQ5NQQdcU4oEegJYNf9GvwX04uWtlsUNihsUNihsUNihsUNihsUNihsUC+D+OZQ5lDmUOZQ5lDmUOZQ5lDmUOZQ5lDKlGqa30qMkkjmfcTRWailRJkMNr3eFTWOTTdVT06E5TRqUuHW2bE+G7DeX04yo02PMscyxzLHMscyxzLHMscyxzLHMscywn+0n8eNratQHEXX+jX36JMtvII3k4V4h6Y1dxXraXftMSEKJaMn+430oQuTJrIDMBht5p1lmVAnlf1/kJcFo5T+Q2KKOp8tZ2IjRpEl2DLn0k93huaVzpxzuBnoX/IkrNywhtGqdDTIXMioUuxgIDs6G23TT02UPxR0H8eN1Cm+qsVNr5GjomYoTQznK1ES0n2r0B3/ks2rsiXGb4Y+T/cR0YkglW9hF82zFZdfwR6VGcn5cglVWIlrYfyO4o7avcnTnJkpLlXbqN2k/jpxSqeyIky8c7g6gnGjqrpuHHq3yu3qWeYsq2y86inlHIaqbBpOLQ5EGs8UdB/Hi3KJakTSMiklySHeFrzaORuTuUiWSkJPcnJ/uI6aWSUK0+Si1nFSx66R5vMZSdmOulHn/yLAUto7WvXXxrCOyLOb5s8Uiel0ElfIvHO4e2joP48fKnypjITG8sZLc/elMMiNEde7yZhBbU5P9xvpdRqKe9ciITe1hpsMkaSkzcfdFTOanRrjDXN6cWuzVj+KNQ3MgskuEvpxzuHto6BwjhHCOEcI4RwjhHCOEcIytO2c30haUDRAQlvxL+jiXM1ojvntJtnMkkF9OMJ3WXAOAcA4BwDgHAOAcA4BwAv6I/jUxqY1MamNTGpjUxqY1MamNTGUfdb6XF7Srq2XYGjGG9s/HpLCW1nqEJEKoffSdEjSfXPxQtOgX04x3LUxqY1MamNTGpjUxqY1MamNTCfg/j8MgsJMZ2LYzUHXXtiuSq8ksOeo28Jcq/msyEHuRk/3G+mBHOdYS5TVcivnolnAs406XlsFLTrH+RY/FJ5+Rb7HnrZkm4ExueizjeWlOdOM9ydWTbSbe2ei3FzMbsXL2w/469OtZ1rEtLOwqGbiedNjVhKlS/FPSfx+FxWN2KYtAltdRWMV0UqJk3I+P6PTKM5Ukv6LJ/uJ6MR09WspUeGVdCcFYhLeQ5bp6RDGNaeSmSFLedVFqItTEdYGTaecdGM9xMiUS8XSZehR/UbqqRYxJtGbk1/HUHVR6d9EGtqjjTPFPwfx4ofe5Gn5JtE+7yzFrQx5pxTin3wt54JPUsn+430w31QpzsOut0wYEWEER2UScqnpkPs/wCBUUso8hdFWLdepa50RokOtbsZPmJK+nGe5e2npP48SjMkvjRxcDe/Y4sFHZIKisKC47K1jJ/uN9LiNxQZ0uvWnKF7Z95Mlpbb8EKEK0kR0nfK0mzn5IUrUL6cZ7l7aekfpH6R+kfpH6R+kfpH6R+kfpH6Rlm3zzfSFrSQ3JCHE/gb2g8woJdJXgvpxbT1P9Q/UP1D9Q/UP1D9Q/UP1D9Q/UC+D+Pbyf7jfw8sU9Ab6EVFalNhj0Z1LiHYr4InJD1djrDaVVNaabfH+NDKwvpxvuHtp6T+PHI1c16y+0VZjUWWdgUmQzTNoZr71LcprL75uUi6GT/cR00UcpdrZLncsebYJEaTPYtMxipNklfow2KRm+u4dcbs0nS4/KfmVmSRii2iujG+4PmpLKFR11turzdtYtTI2LupZsL/AM1IkUOHmpH4p6T+PGZDizEN1kBuMw0hllqvhNtQqyBDWqLHVLkRY8hYyf7iOjE1ki3yC18gIEmKzXNuxJNvl7hJq/8A6cNWRwbG1iy5rzMuTJxDzXpuYrJVkf8A1433AOU9Yt/ycbzcyJHmIm1kCYt2BCdiw4kaG3+Cek/jwc/60noybK2mov2rDTjI0mjkQ2t5SlOJ025P9xvp3LYfqbJmeyH3m2G7ywOxl7f8Kiaqumxn2ZLQs7BiAy44uVKX0433BfSg9G1MrajsfcndMjj8urZxNbuGLyErwT0n8aGNDGhjQxoYWjcltrYNDGhjQxoYyf7jfSoiMtq21JtrRBPuypSm0EnwWglBlyTGUdvaGRk46tJEkl9ONdx0MaGNDCk7kttbD0MaGOAt2hjQxoYT0jnIc5DnIc5DnIc5DnIc5DnIc5DnIZWrfOb6W0LcXBoU6KjUjRvUsF9E+C/CcClEkci1GbUtJJdBHqF9OLq22XMQ5iHMQ5iHMQ5iHMQ5iHMQ5iHMQL+yP48XXENNxLitlv8A4S5LMRhCiWjJvuN9NBERFh5Hkkme6KuzmVztZMjX9TKaVHegRXbCZX18aE2LenjzEESmXl9ON9wDl5VNvzbeuhurta9ESda18JyRbV7DFfYw5/4p6T+PHLI78mmjyXpFtXxpKotKTxz4Tj+3jkFDukuqdh/Uyb7kdO5WcPHGx2tmohNONpfm265kqJ/HkhTdxl6STMwxpJRbKAySJEh5Yx02tmXNE3Zn/wBeN9wfSpbKFPxa2VHnP3l1WKr8fcUVbfVCH67GMeiFFq/wT0n8e3k33GD2nl8c52OY8uuYDxwE2HNXQIv8dRFLsctWTk7DHy4nm7RdrJZnHKqo8hMjK3yetFf03jfcAmSwokyWVJS82pxxaG0nJZ4+drjCHm1F4J6T+Pbyb7jfTjk5KmsjxR5LrkWS2qpx2ynuNoiUNU6tTrkd52HKrrqHKQp9lKbe/ZaQ2RqUvpxvuCv7STD+xyN+lDa23XjJ43233G1MrXFN9ncxGcbX4J6T+OFY4VjhWOFY4VjhWOFY4VjhWOFY4VjKUmmbDhSpDJVc8jgyLVsik/1Jly9JUO0ku+lzwdTOMlUs8ejWITSzh6VOEuBKYYxkjVZcSxxLHEscShxKHEscSxwqHEscSxxLCfgajUajUajUajUajUajLvv4x20z0H9qHEoGlSQk9fBR6AiUocSh/kkEeoyLtOK901Go1Go1Go1Go1Go1/NxW1v/AJQr0ynuDmTbWYivgVd4/LUzlbhsl/ZZb9/GO29SpUmLBZTZwVw2bqsfedTtPX/FtO5Uq0roj0ubEisxpEeax0qyLtWK9zP+i/5Sr0mpuVSp9nLRAgVF67NeayR54Eepe06RqaKgtEU1XCmNWtgo50KrpLBFgzRXS61JbU5b9/Ge2Mdc9ENtdK24uVWf71m/0f8A8x+mccaCTkd+LIx3eUqR1ZD2jFe5q6Sx+zTRV0Gcm3nOedh1dFOKzi1mQQo6SMk/m+6tDjcl5xS3VJRGkOrNElxTxTHvLqmupSmU+tC5ytzC+RjLfv4z2xB7V21a5PehMS2hWREwYL5jT/Fg/wC/SJaJsitcdFdBKIbh7l5F2nFe5uK2tqluoDCnjCZL6w9KUTa5TxOJlum83PdNL0p5pMaSb0j8HWW3R5VnbxN7WYzTRlGbJaYrSSUhKleTY0VGZUpCSQjLfv4x21RBDhpHKkKdBFqYUQS6OVIW4agkhkXacV7moiUkorJKZYbaM4jBhxhtZHFbM0NoSk4rBgozREyw0z7+X9wxjtokPMskdnD1jzIjp+OzUcQ26eGRdpxTunuH8e3lP3cY7ZazfLIiQZM9SaOPpMpXEJrJ62nAkiIrjL4sZxOa2G6iyOFaKWnQZF2nHO4e2joP4/DI50ph+JYSG11V1YuS13UyO4cy3r1WFjaN2CT1LKfu4z2xtJ2FnOmeSNFyhLEayeOTkcUkqpneeJn9kqNDjVLS2otWalT4ioDmNT/U6fI+1Y53B5fG0VlYuQ13S/NuZClKn7tLbzmQKJXrxLLFZUiZV+KOg/j8LesYsm4tAw0dTAar4aaOLyRcdjtSJFAy+8RaFlP3ce7PjunqFnMREKVXpTVSfPu2WRaenY19f+RiV6xXFJrJNmwSK21I26L+OCV6Tkna8c7gf9krGo2rNWyzYOY/GW7OoWJMlulZQ6VAwTdRARWxPFHQfx7eU/dxntj5Lr7J2LW2qIlbAiFDr4MI7yWUl+tZ8tFzKpVZ18exsYbUSXJivIKbaz6eEisrMi7VjncPbR0H8e3lP3cY7ZPiIlNaTa51N4/pInzJgq63iUEq0FtQVtmpOEwt1ZWQaxtR6jIu0453D20dA1bGrY1bGrY1bGrY1bGrY1bGrY1bGW6efxjtol2cdoKnoNUS1ZSGnEOoDi0tpfuUJP1t8RbVl0xkXacW09T/AFD9Q/UP1D9Q/UP1D9Q/UP1D9QL4P4/A/wCiJSTJK0KMlJMyUkz3JIxlP3cZ7ZdzDI62oJSEw4iSmVMZ1LDj1dMJSTRMfdnyoVQw0k4cUysadO2lmGleRdpxnuQ3J3KWhJmpJEpSU+BGRklSVfgnpP4/DMlfvhuw25WPV0p9bzj7SzTBjOSl/wC2g9yMp+7jZ6VdWjzVpaeeUKeY+4zTzZsmzyVkjZbkH6FjLJaWrtkyHlWckqaRJW/dteXsbxW+kxnuT5rJhBwPS7Ujm3NpEkwsWeTClZFRNzJmNVSY68IxJLCrDxT0n8fg+y0+2zBhstx2Wo7TcWM2uPAhR3XYMJ18ZT93HS3VNArjsrWSuMqhR/uQUqLIcjWSYKGz9ExlZHGsJTalvTJkGuolwvLZGslTrlO2gxnuQXXQFv8Alo/mZMZiUiVBhyjS22lryEPysWvhRXPFPwfx7eU/dxjttswqNLrbBqUgPvNsNzX3LGaiMgobDjtbOjSGpDYsJzURFeyubNyLtOM9y9tPSfxoY0MaGNDGhjQxoY0MaGNDGhjKvu4x215tDrcqpdQe61QEQZ0lcGE1FSJsRqUhyvmx177VQjVT7qmGW2G8i7TjHctDGhjQxoY0MaGNDGhjQxoY0MJ+ByDkHIOQcg5ByDkHIOQcgyw907GO2uuIablWzij/APlFhFhNjrgzGpSQRahw2mUJtKpStpGR/wBDIu04wrbZc45xzjnHOOcc45xzjnHOC/sj+PGysodchi7rnocC+rZshq4gOR6+7rpz3qUP1GVeVsaSMp+7jPbLeQqRLra9qKgSGWZCJbLlbNjOE+zeWLVTXWVhMsXhQXkuqeZdbkxsi7TjncA5kNU28SkmkakNSGor5jE+P4o6D+PG/akM3rabZ+uoaV7cVbNfqC8xa3np6YuWZNzSVMb+DKfu44e2poUcllbQm5ZUrXmIkVqNEyLI0EqDjatYv8jvqVY0E591xERorDLlbrv+PH1OUuSdrxzuD6TWygrKLXFAck30iHMN+1alIn+nuPyCjSTaw5p1mo8UdB/Ht5T93Gy1qqpflbOyanG6ivmupTGspcrJXiJjH0bIf8jw1b2nad1l/IJq3sisispeDRFRaLI+1Y53D20dB/Ht5T93Ge2XcM91bbkSEyoyimWsZlLKH7KYhJITKYZmxbjFJ8RaayxUrH8SdN1RkRZF2nHO4e2joHGY4zHGY4zHGY4zHGY4zHGY4zHGYystJ2MdtEurYdCq/RUWpQoNNoaR4G6SS87GG/UhkXacZTusuBQ4FDgUOBQ4FDgUOBQ4FDgUOBQ4FBP9JG9Q3qG9Q3qG9Q3qG9Q3qG9Q3qG9Qys9Z2MdtnSkRWjXNsXE0cnR+FNhHWWXMoWdj5c2Yk2eZ0cjT/drnK+YiW3kXacYPSy3qG9Q3qG9Q3qG9Q3qG9Q3qG9Q3qBfB/HjcWrkWWVvMRXVl/JenIyTbAi3EtNgxe+Yu5eROtPtLS43lP3cZ7ZINc+ydehVMaPPiyIsS2iS3buJ5V9uZ/8AF1EXzkuTbV8R6ZOixGmHodpF/wA66yyH+6nGe5LUSEN3thIRZ3UtixXki/RZVxLVYM5Ay5VNXn/47SWMmY54p6T+PG5rJL8+NjcluJS0kSA2jHHl17FVZSLKRXvOZFb0UqbNZbS0zlP3ce7PjpEdhKS0bqG31M6zqyRkRF6ckz9Gxoi8nZMOORGHHZVhTLcKZkpF5y2//XsZ7k4kltu43YHHdxwnrG7pfMVkirsmLKnqvT6pqjdPGKSpkxbDxT0n8e3lP3cZ7Y0o6+0nQmZ5NVMYo8WrQ1IyOSSlNxFei47JJt6RUNuPyKqO41AhtQkTnDn2V+RJp8Z7l7aek/j28p+7jHbbWF5lMOfIgqTeRtJl0taayAt5wWtepK4dy42k7yLpNspEwVMHy5ZF2nGe4+2n4GxI2JGxI2JGxI2JGxI2JGxI2JGxIy0tJ+MdtFgqFoo6zdBVVbvGeqr3EdZrXqgeGRdpxYtbPYkbEjYkbEjYkbEjYkbEjYkbEjYnwP49vKfu4x222neXTBrn5gTSxCKZSaJrZrkZ0Ws5brkKlUpJ0sPSfVvRRUTjeGRdpxnuPtp6T+PG8kzHLpmydKrx6fPetSuZ7NUTlhV3KnbRu1n2kxdgyoltZT93Gf6rI6Tn2lhJejHFnSpDLVhZ+q5JGIg3LV6JjkYluy7KahyVZq0rJipZWDXkbK/VupsZ7k8vjZKdNcgXdm96lIsLROMKdsLS6hTp8+iKxs2KGoelsXvinpP48bWqi2IaoIKI0NhEWK3RQUxYFDChyGsaiNOzKGFKkISlCMp+7j390+OmRWNhLYZcx/YzNxwuZrIjIq9JH6NjRl5OzegWDRrVNVjexuVkpl5y3/rHsZ7kFYzXGtFVFRYW1cxZs2FFCmSZFBBdgM0cVEWsqY8B3xT8H8e3lP3cY7ZKSuBYtqi2MVllplttDbLVzL83IbhkVZVSTgzHIsOSqQwzIbUcaBGRvsbHIu04z3H209J/Ht5T93GO2zYzcppbM2A4m6lkTsmdPOsruAxZ15SQ2/OrzO7l6E3NsHIMREVvIu1Yz3L209I5GxyNjkbHI2ORscjY5GxyNjkbHI2ORsZYZKnYx20EgHGYMcRERlp4OuIaRJuAVi4RxbdtZkZGWRdpxbQrPcgbkDcgbkDcgbkDcgbkDcgbkDcjwP4/BqQw6r8HFobQR6lk33MY7aghkeWO8rk2Y4qpySygrrZjFlCUe0pDjtjMhVcZhJsMmVjUNqTTS1Nu5F2nGe5BUmOl12TGZUqQwlt59lkLcbQ20426hDjbh+Kek/jxzHm9DjPV7dxElWKotXYSznQ7eS436hZpjXsx98oX08m+5jHbcylKiUFSuKgLrIr1ztiWcL+OpakWF8vZCxlktmT2EhiPZOSHrKnefKTfNcNheK30eM9yf38CFwEVNil2ZdW0F+vxh7yB5HCVFRjONxkSIOFoJtPinpP4/BqPHaU2002GmGGjKLFJXlY21yNHcURERZN9zGO250wp/H6tiNIQ/IZbObOWxX/x4wpy4yBO6FjLhHHt6mxbrZTcqHOpkPLl5EslzrlOyhxnuIVGjKd4WuZ5lp5L0dh8Oxo7qWI8dgNtNNfgnpP49vJvuYx23RLjeR45Jr3RW10yxeoKxqor3Uk6hCnayfElsykCxsWoqaxhcuXkXasZ7l7aek/jYscaxxrHGscaxsWONY41jYscaxsWMnIymYx2wEsLhV7ik8baTPXwlxmpKHquU0rhs1CLUOKNptDTeRdpxjuW1Q2qG1Q2qG1Q2qG1Q2qG1Q2qG1QL49zL+4Yx2328i7TindP/AEZf3DGO2+3kXacU7p/6Mv7hjHbfbyLtOKd0/wDRl/cIllKitetTx61PHrU8etTx63YD1qePWp49anj1qePWrAetTxKs5clnFO6f+iXAiSl+jVo9GrR6NWj0atHo1aPRq0ejVo9GrR6NWj0atHo1aPRq0ejVoi18OK7/AP6f/8QANhEAAQMCAwUGBQMFAQEAAAAAAQACAwQRBRITECExQVEGFCA0NYEVIjJhcSMzQiQwUlORJaH/2gAIAQMBAT8B8VPg7ZYRI59rr4LD/tXwWH/avgsP+1fBYf8AavgsP+1DBIjwlVfSd1lyXv8A3an0xnioT/UM/KxzzPjDSeC039Fpu6LTd0Wm7otN3RVQthjFHC+U2aE7D5gOCII3FU1FNU/thS4PVRjNZUXmWflY20mp3LI7osjuiyO6LI7osjumyl5+DVTX3Nk6Fs1G1rlVyd2GlEmzyMNwUYu+BjxxJssTrDCe7Q7gFT100DszXKoiY6eGoZ/JYp++tVDwHiqXntcSOCzjomm61Wx0jS5V8er+szeEGlxsE2TuTWA8b3WL0rtTXbva5QwPmdlYFUObFLBTD+PFYr+8s3ULP4DxULnDgtSTotWTotWTotSTotWToq0k4c26w+Oocf0+H/xGKS36ZbdTiQP/AFOKwrvmTd9H3UveCw93y+yps/e25+N1i5fr7grydFeTos0nRZpOizSdNkHPY7cFmci5yad6rBfD2BYlIYGtp2cEHFpuEGd/ijc7jeyxepcZdFu5rVFM+J2ZhVQBLJBUD+XFYp++s7kPAeKg57HX5K5VzZC6rDbD2qrh77GJouPNMpJnusGqWYULGRN4g3KxKjM57zBvBVPh887rBqqJWCohp2fxWK/vK7lmd4DxUWbkrSdVaTqrSdVaTqrSdVWX+GtusPp5v3Q7KE6YSjIybeqqCSF9pFT1k1P+2VLi1VIMpcqHzLPysakc2o3dFrvWu9a71rvWu5cVBz2OvbcvnRzpt7qrF8PYFizy0thHAbJna9CHu4jbQ+YZ+VjnmvHBz2G9ty3o3QvzVb6c1SRjEYw5h+cJmF1DnWIsq6VkcQpo+XHbQ+YZ+VjnmfbxvmMfBd7cu9uXe3Lvbl3tyqHZsLYVNiMjJNOmF3J9bi4F3OuOipKttS244oRNaLvWWF+4KkYWVTAeqx3zPt45+WxpsUXhZmpxHJVG7CGLB2gxufzJ2QNDMTsOanN5NlPvliP3WOea9vHPy8U3pTERJQSFzRdhTsYjI+RpJWH08jXmeX6iiGz7xxQp7b3FU8mapZbqsd8z7f2LKysrKyqfTGbMoGzIyIfNxWpG/cQqaPJVMH3WO+Z9v7tV6YzYFF9YU/1nZT/uRX6rHPNe392q9MZsvszMlHzbihHG3eXKmkz1TPysd8z7eOZxHBajlmeryLM9F7wpjfCmJ8k1bKWRmzRzRwnKLxvN1R1jjmjm+pqaJsQJdfKxOwx8XzQvN1gVV3iVubiDvXaF5FXu6K8izSLM9F7wtR2yflszrUKzolVHpDFg5GmW877Kv9Spfk/xWGOBpm22YF82JOc3hcLtF5v2WoVnWcom52clK0u4LSctJy0nLSctJymFsKYqijex+tAbHmhV1k3yCwVHRinbv3kp1HPTvL6bh0Tu/wA/ykZQsHpm08rGN6rtCwmr3dFpOWk5aTlpOWk5BTlXKs5ZXKzkbhTelMQa7EZDc/IE/CKcj5dyoJpGyGnl4jbQ+YZ+Vjnmfbxz8tmcrMVnKJVQL4QxYQ4Na6I8QdkZ1q8ubyG2h8wz8rHPM+3jlbmWkVpFaRWkVpFTi2FMVbSsvrNdlKE8s3yOmFlS0zKdlmKWeOEXebKOvp5DZrlQ+YZ+Vjp/qfZXCuFcK4Vxsn5bMi01kThZTH/yWKni7/IZZPpHAJ9BTvbbKqeZ1I98L+A3hUVL3n+on33U+HQSNtay7PzP7wIZOLSu0XnPZaayLIiLbOSn5bLlXKzFEkqcXwhgWFyCIugdxCJsEW99ne5nACywucOi0+YT3tYMzl2fvJW6/IkLtH5v2WYq5WYq99nJGAy8F3J67k9dyeu5PXcnqpblwtgUmE9+N28eqPZmpI+aW46KOnFOMgFliLKZrs2azvsojDK600h91hrWtmjDOFwu0LQavjyWRvVZG9Vkb1WRvVZG9UFS89pWqU1xLrKu34e1Vcmg0QsTZHNNwViEodR945hYbTBzdd+9xU1PHK3K4Ls85zKrQd/ErtF5z2WmFkCyJwsdnJUvPa6/JZz0TXX5Ku3Ye1VUZnaJmJsbnGwCxCINo+78ysNqQ1uhJucFNURwtzOK7PNc+q13fyK7R+b9vEOCbPpLvpXfSu+ld9K76VVuzYY0qOqfAflRxaa3BF+f5iqiiiqPqG9R4TAw3O9UAtUM/Kx+MOqvZaAWgFoBaAWgNkmywXyqwRsp/SmKMX37BudbbQ+YZ+VjnmfbxybNy3LcjZT+lMQOQ2KL2pu85ttD5hn5WOeZ9vG8hXb0V29FdvRXb0V29FUelsTnclYjkmuupsQcX6cDblGsrId8rN32WFzNmlje3qsfky1Vvstda611rrXQ3qTYFcK4TrclP6UxRddlU8xscR0WFxtZTg9URcLAP08QMQ4XC7Rec9ldqu1XanWvsHBSbLhblcIqf0pi+grUCMecHNzUFQ6gOlKPl5FS4tFa0W8rAKZ0U7XyfU4rtH5v28XJPNlnWZZvssyzKo9LYi65sFlcN6a66d+puTYdPeAsPdeoZ+V2gP8AVeyv9lmHRZh0WYdFmHRBSbMyzLMiVP6UxRcNjvqUf07MO8038rtB5v2WZZkTu2jgpNl1dXRU/pTFvady1OgTW8yt7FnvwWHNtUM/K7Qeb9lfZfaOHjqvTGeDe/gsrhwWHOzVDPysfcRVeyzOWZyzOWcrOUPHVemM2u4KP6dmHeab+V2g837K5WZHaOHjqfTGbLbMrm8Ec55LD25ahn5WPg969l8ysVvVispQQ2WW7bVemMW5g+61jzT2cwiRHwQlvxVK21Sz8rG/M+y3eIeKq9NYpeN9jdzRdS7nbKXdNGPusb8z47q6urq6uqr0xi1mtb8/BNrKQmwcnPzIPBFnK7G8FRuzVLPyscP9T7K6urq6vsn2AXWQrIU4EKb0lijjOIyF7/oCfhdO5trKhkfHKaaTlw20PmGflY55n28c/LYDZFxKzlEkqcXwhgWEvDA6F3EbIXa9cXt4DbQ+YZ+VjnmfbxytutP7rT+60/utP7rT+6nFsKYsQp4f3C7KUJtU5HzblSwRwstGp6qKD6yo8Tp5Da6ofMM/Kx1wFT7LOFnCzhZws42T8tjRcrTWmnNyqbdhLFSQitkM8vDkn0sL22LVBKaKR8R4WuFQUomGvLvJU1FDK2xC7PSOFSIH/wASu0XnPZaa01kThY7OSn5bbq+ycXwhgWGyiBzqd/FOcGi5QZ36Z728LWWGVA09J31BSStibmcV2fBkrNc8yu0fm/ZXV1faOClDeaszqrM6rKzqrM6rKzqp/SmLEu62/V4//U3Sv+rmsqbS0xpcFU4fFOc3ApuEsveRxKw9obOwDqFj8eaqv9loBaAWgFoBaAQ3KflsDAsrVlCcLKc2wlhWHRCdzqiTinMa4WIVKO7VZhHA79tD5hn5WOeZ9vHPy8UwvhLFSTCjkdBLw5J9TExty5UV6ioNRy5baHzDPysc8z7eOXLzV41eNXjV41eNT2+FMssQnh/bc3MUIdI53w7lTTRysvHwU+Ihr9OIZiviM0f70dgsNkbLNG5vVY/IG1XstcLXC1wtcLXCCn5bBlXyI5U63JTm2EMKwlgeHTO4nZI7ulQ8M4ELC4Q2AO5lOAcLFYB+lXGEcAQu0XnPZfIhlXyp3HYOCn5eKb0lijkOHyFj/oKfidO1t7qlp3VLnTS89yparuf6E/sVNikDG/KblYBA9s4lk4uK7R+b9vFyUrgFnHRZx0WcdFnHRZx0U5/8piq6zM7RibmKFNUw/PkBVJVtqG3HFVFU6odpQsv+U2OopPnLAQsJnbPLG9vVdoXAVfDks7eizjos46LO3os7eiCn5bA5qztWYJ5B4Ko3YQxYO0GMv5k7Kk6NS/JzCwtjW04tz2YD8mIljeFwu0XnPZZ2rMFmanG52clPy8U3pTEdTD5CQLsKdjEVvkBJVHSOcXSzcXKOWTDzkeLsT8Wa4ZYW3KwGldDM1z/qJ3rtH5v28XLZYKwVgrBWCqfTGbAxo5ImyNRPWOLYNzeq7tWU3zMddYNVNqZWOHVdoX2q/ZajlqFahWqVqlDx1XpjNtbfQdZYZl7s22zAt2JODeFwu0XnPZai1EXpxudnLx1XpjNpFxYoMqKBxyDMxOrqmb5Yo7LBKXu0rBzJXaIE1fsspWUrKVlKylDh46r0xniofMM/KxzzP93ur6nD2MYvgNR9l8BqPsvgNR9l8BqPsvgNR9lTYLPHK15tuWOeZ/utqpmiwcV3yf8AzP8A1d8qP8z/ANXfJ/8AM/8AV3yo/wAz/wBXfKj/ADP/AFd8n/zP/U+R0hu438f/xAA3EQABAwIDBwQBAwMDBQEAAAABAAIDBBEQEhMFFCEiMUFRIDIzNCMVMGEGUoEkQ6EWNUJxsZH/2gAIAQIBAT8B9UlaWvygLfX/ANq31/8Aat9f/at9f/at9f8A2rfnf2qnl1W5v3YvtH1T/GVQfF6y8DqtVnlarPK1WeVqs8rVZ5UJvUlTVEcIu8pu1qdxtdNcHC4T5Gs6ptQwqf4yqE/iV1dXV1fCr7YhaITmWF1LUPpznYqCHfHGebin00T22LVSuNJM6A9OoUMebncnRNcFc6bmHsqP41l9IVX2xaAeqyHyntsqiF83KwLZc2jeCXgU57Wi5Kh/1dS6UdBwUD+GU9U5waLldWPeqP48LegJ9PrL9PX6ev09fp6/T1AzJUlqOyBX9R/lf9KtP+5f+Fu+7/jtZT6d/wCU3JfnupbaRsqK2muC4LguC4YQ4ONkC4oOKabpgvWFV0mkBC3og4jiFVv1aTWPUKnZwzFOaHDivax7FR/GrD0hQ4G6uVcoJvCscqiLemCWPr3TKaVxsAq0CKn3fv3UMmXkcnStaFlOm557qj+NcFYegKO/ZWerPVnqz1Z6Z9tyo4ZfkByhGXU5Wy8VPE+J9np0bX9UIGBT/GVQi8ayhZQsoWULKMIcHXQzLmTbpgvWlbRdlIiHQYSHVpA53UYz/GVQ/F64cDfsuK4oXTfuOT2CtYHN9wTNnzk2sqt7GRiBmM/xlUHxet0hYt5ct5ct5ct5ct5coTepJUta9r8kHVOqtpAcxuqapE4/lR0MUTM9Sf8ACbFQz8rDYqvp3QBzHLZzLxLTWmtNaa08JsB1WYLMESLKH5ytmDkLu5woWAbUa3sVtR7nVDr4bX56Jj3dbLZvwrKVYqxQ6YFTeqn+wURJRvJAu0o7TZbkFyqGORj9d/uUkce0BnYbPTNlFnNM6wW16oTtIZ7QOC2b8KsrYAYH1xfaOGUIC6EFPRtBm4u8IVNJUcr25VtOlNMC0rZzbwrKFkCyBZAsgR9cX2jjRW123W077y6+G1voszdbLZvwrKsqsh+zF9o4g2NwjJT1zRqHK9No6WHmkkv/AOltSq3gE9gFs34VwXBcFwVwipHELO5Znq71d6zOUB/1BTnyVUhaw2aEdnW4scbqlqSbsl6hN1a03vZqdQPj4xO4qOo1oHX6hUriGK71d6zPRe4LO7CbAOsFnKzq6h+crZhGmW974VHPO7L4VAQYG2wj5nzOHRU3sWdZysxRN8ZGkrTctNy03LTctNyg+wVPTPY/VhNlvFTJyiypqUQj+SnU0sDs0H/4jvk3KeVaDYYC0KkaSxablpuWm5ablpuwlKuVYrK5WK4qD7BQDq15ueUJ2zYSOHAqkle15hk6jGf4yqH4vXNgHFZisxV1CLzlbNNmmM9Rgw6lYS3tjP8AGVQ/F65G3WmtNaa01pqDhUlVdO2+qHZShNJLymVU8DIW2apJmRjmKZWQvNg5T/GVQn8SurhXVwr4TYBtwsiyIjgoPsFQx748yP6J1HC4WyqCU0znRO6DoqWn1/zS8bqWihkFrKCR2m+J/UKm9iyLIsqItjNhcq6zFXKgF5yqB+S8LuqJtxRbvUz3N6WWz5gY8ncJzwwXKg59SXyqb2K5Vyrn0S5e5XJ5XJ5XJ5XJ5XJ5VP8AYKrxTgZpDYptRG82kebKnbG1n4+irWwNdmvZ38KMxSOtK8qQNbCQ3pZUjQWdVkb5WRvlZG+Vkb5WRvlBVfbEcVpBOYA0FUptKSqGIVL3VEn+E+JjxlcFE40Uz4u1rhUMALdV/UqSFkrbOCgcWtkhPZU3sWRZQsicLY1fbFoHdZB5Tm27qlF5SFQyile6nk/wnysYMziomGtmfL2tYKhqA1uk/qFJMyJt3FQNLmSTHuqb2et8AlW4tW4tW4hbi1bi1QsyVJCj2H+otu4cPKb/AEfRk8k2Y+FJSOpTpEWU1JHN7kzZsLTfqphaIqiYDGtILSC0gtILSGEeFyuK4pqiF6whbYlMIbTM6AIEg8FUu3qgbK7q3hjP8ZVD8Xrjw44cULqM2qyqmH9SibNF7h1Cj2bVPdbItovZTwNpGG574z/GVQfF623VirFWKsVYpn23LZ9E/LrufkajUwzjTbObqspJKWTK9SVri7JCLlGpqYuMjOCdK2WAuaqOTLGtZay1lrLWQUeBXFWKbfuohetIW3Hlr2wj2gYV0hk2PqHq1bPYGwgjuuqh5DLGOipvYrtV2q7U63bGPCxwsUEz7ZRazakQsbSBM2JUl3NwC2pLFoiki4gdVFM6jOnJ07J+0o7Wj4lQwOjhc5/Uqm9nrYLrKsqyrKsqZ9typaGOKPeKk2HYI1tDP+N1x/lV1CaZwtxB6FCgpaaMPq+JPZRx7KmOVrchW06R9LmY5bPYDEtJq0mrSatJq0m4R4ZVlVkFD90rbpOs1va2FEBJSR6nZy2u5zqt18Ntc2z43O62WzvhWVZUBxxKZhbEJn2ymSwbQiEcps8d0NihpvLILKvrmnLFB7Wp+htNodmyv/8AqZsmOE5qiQWW2KzeQcvtA4LZ3wq2FsT64vtHC6AubBadNs5o1Rmem7QpKg5Jo7fyFtej3W47EcFs5oMSs1ZQsoWULKEfXF9o40Ft5Zfytrh29uzYbZ/7fGHdbLZ3wqyt6D64vtHASNPQoGy3ulrWAVJyuHdRxbNgOcyZ/wCAtq1hqszj4WziNFcFcLgrhZgip3EdFqO8rO7yvyIF5Ti9vVU5/ObpzptrzOY12WJv/Kd/TkIH4nEOWzdoSML4Kr3M/wDihgm2yTLI60fYKX+nxGM9K8hyoK91VTvbJ728CqdxDOC/IgXniiXjqtR3lajvKHRVHZBpKyq7ihmATyT1UIvK4L+nHAQuiPuBwrgamul0uzVsKRr6Job2V1s86tRUyt9qg9qLnIXHRODishRFkOiljzrQd5Wg7ytF3laLvK0HeVTi1QQq7ZbhLvNM/K7/AIK1tp1H487R/K2ds6OijsOJPUqbZU9PKZaJ1r9QnU+1asZJXBrf4UVJHSUxjYqWIuZdaDvK0HeVoO8rQd5W7uQ4KbAcVkKyFEWUH2CmMNa8ud7QnbPgcLWVI98chgfjP8ZVD8XrmxzFZirqEXnK2c7KDEeowjOtVlzegxn+Mqh+L1yNusn8rJ/Kyfysn8rJ/Kg+yVWQxfITlKEupyul4KCJkTLMUtRHF7ymV8Lza6n+MqhI0lmCzBZgswWYYTYAXKyLIi2ygNqgqnj3p5lk6dk6njcLEKKQ0r3Rnp1Co6cSDWk4kqWkjkFiFA9wjfE7sqb2LIsiypwtjNjdXwgF5yqF+kTC/qi4NFyg3e5XuHSyoJgWabuoT5GsGZygBeJJvKpvYrq/pkA7qzfKs3yrM8qzfKs3yoPslV27/wC51Q07/kzWUGnk/H0U9FHMc3QpuzW3u8kqVobEQFRx5o1orRWitFaSCmwDRZZWrKERwUBtOVQs1SZnotB4FU40KkxDocZ/jKofi9c3qg41BVNJurzFJ/hOqI2C5KpbzzGft2xn+Mqg+L1yW7rkXIuRci5FB9kqtmi9hFyhHp8z4uCglZIy7FNXZXZIxcrfpY/lZwT3tkhLmqikAjWqFqhaoWqFqjCbAWsuVcqNrKE2nK2c3MDKepwed2meG9wtnxhsWbuUWgixUP49WLsqb2LlXKuVOtfhjN6oPsFMfuTy13tKdXwNF7qnhdOXSyd1Tz7r+KVSbQiaOU3Khhc2J8j+pVN7PXIQFnHhZh4WceFnHhZx4UH2Sqmpu7SjFyhBPFz5AqapbO24U1QZ3acTboMmpuYsCMzZoC5qpHARrMPCzjws48LOPCzjwgpsARZZgswRIsofnK2aLsL++E50p3ZO4VA0NgFsIuV0rB0VN7FmaswV2p2M3qp/sFc9G8kC7SjtNn/iLlU1O515JepTJH0RyPF2p+0Q7hELlRU5ihcXdSqb2fsWVlZWVlF9o4BoGBmmqXERcB5WhUwczTdNqBPAXBUj7RrOVnK1CtQrUP7EX2jjVX0XWVBbQbbCP3y26Km9izrOs6cb/sxfaOJFwg2ajJyC7U6rnl5Y2JlPoQOHdUo5FYqxVirFWP7EX2j6p/jKoPj/AHdURVBJW/xrf41v8a3+Nb/GpK2NzCFQfH+6YmHiQtGPwtGPwtGPwtGPwtGPwtGPwmtDeA9f/8QARxAAAQMCAgUHCQYEBgMAAwEAAQACAwQREjEQEyEyQQUUIlFhccEgIzAzQlJyc4GCkZKhseFTYoPRFTRAQ2PwJKLxBlCydP/aAAgBAQAGPwL0nSc0d5XrGfevWM+9esZ969Yz716xn3r1jPvXrGfevWM+9esZ969Yz716xn3r1jPvXrGferNe09x/1MfyvE6MlkslkslkslkslkstH9M/6mP5XifTf0z/AKmP5XifTf0z/qY/leJ9N/TPpt5by3vyW9+S3vyW8t78lvLNb35LeUZb/D8Tpu7ohbzl0H/erOFj6C5/hlZrNZrNZrNZrNZrNZ6D6AvEseEZnFsQe6RgaciSgwyNDjkL6I/g8VibayxSWvwQfP8AhVhEz7l0Rgd2IxvFnDIqxTYoxdzkDKNa/tyVjTxW+AIyUmx3udek/AdGETxE9WIIvbIwtHG+xYmuDh1j0A7kfLl565zYPaIv4Kuo2ap0c0HRMJ6DRwv2rk/kmUH/AMV7jN9Mv7KeSCSPXteNcHk4/sqN9iLtBsc1H8Hivqm3yG3RSRRxaqmNS2N0hO2S/V2aGycQbK/WLqSoOd8IUrqaMSTBvQaTmVRGWvNSaiURyRFgH1bbq0EtGyQYtB+Apx6gqF7H0tYZZLdHFjb2qu5FjB/8mVph7io6dm7G0N9AO5Hyyx2E3zBR1EEUV88DQE6ZkEbZHbzw3aUJZKeF8g9osBOiP4PFfVC/EW0cnYGOdhrGOdYZCx0BvElAdiki4h11LO2J8pYNjGC5cm1NbDWvrZOiCaZwZEOof30Bo9hm3QfgOgyxQQCTi5rRdNmfBG6Vu68tFx6EdyPlvebAB993b96td4cSb7Ng6kL4gHflZG5dfZfZ2qyj+DxWHDfart6LgrE2f1aMT3WRkdsaMgi88UJW7R7Q6wscT79nEaCLh0vBqdI83c43Og/AU7uWtbbHq9gDbJz2axzWkbw2nrTt67NnftTMTnYdvlju0bpW6VulbhW6VuFbpW6VulbpW6VHcW8346MTTYrzmw9a2VR/Erl5eVty6tN2uLT2KxqpbfGfINvcK3St0rdK3St0rdK3St0rdK3St0oaN1bq3VurdW6t1bq3VurdUZ/4/E6LBbdpVxTO/CrPjLD3WXZpwsYXnsCvzWT8KtkdN/5Ct1bq3VurdW6t1bq3VurdQPla2pfhB2ADaSpsBkDoWY3Mc2xso4W61pkNmlzNhKqmFxZzX1pcNibAx72ufuY2WDk6FzpOg7C94Z0Wnv0R/L8dAAF3OQNsUnFyDS4YjkLrBI0OCwZsdulWQiGxubj1BYImYR+qtfatotJwenRvFnNNtB+A6GwxMqCXGwODYpqwF4jhNngjamTsDg14uMWfoB3eVRV1PCZ+bPu6MZnJV0skdS2nfC+zJG2N+AVHPWzzNELi5tOW2wm65bY2F7dY8OjLhYPs665Opf8ADpaYUxGOR+wbOpPifyVViha++CGG2tPWShsw7MupR/L8ToF/ZaToqJuazVNRMS/nFvUeNh2KNwk1gLR0/e7UHcWuX0UknEvsnzyuwsYLkqKpqbtdNSvLY/4bcQsO/Q1w9pm1FH4CnAZ2VIKWjraUxv8APmR92YexT0lPE/mtZIx73gbG9aDGizQLD0A7vKwdLZmbbAsJD97DitsujD7VrpwYb4c17R2kWAXtO2X2DIaI/l+Ohjjuu2HRUQQVMD4JnEh82IvjvwHWoqZl8MbA0JkPEm50SU5z3gjT1LMcZzFyFDVRMtFGw7DK8nFcW0HDlGMOg/AUSrAOGy+0LY4fet4IdNu3t8sd3lYm4B/NkQns6Grc/FfihLj6eO5HBSO2Wdayc1hZZzy47eCJi1YxgA9ndoj+X4nRhKEdTfZk9XFRH+JebOsd2ZIyyG7jobJGbOagJ/NP/JX5zF+JGOkvc+3/AG0n4CiOsItGx5ZYm6c4YGP2YQMk5uIcMH6prnW2X438sd2jMLMLMLMLMLMLMLMLMLMLMKMf8fidNs1uOW7ZbdNmRuef5Qr80m/ArEFp02/kKzCzCzCzCzCzCzCzCzCzCzCA0ZrNZreWazWazW8s1mo7/wAPxOnDDHfrK2ysBV3ND2dbVdujX1FxFwHvLUXu8f7cQ2jvXSo5w3ruEdW5shGYOx7V70bt12gke4VvLeW8t5by3lvLeW8t5byHlQQwQ66pqHYY2k7FVCrp6dr4Yy9pjkuCRwte6pNfBTaqpfgGB3SG22S5T10TcFIbMw5u22VM7lCijjp6k2Y5jto701rqSLVOkwMaX+cf2jRH8vx0Mhbm5COMWAUlOIKuV0e9qoC4DZdB1iLi9iEJGDoP4dRTIODj+SbDTdGaXost7I61ba57j9SU+V4iOr9Y1kgc6PvCZUU7yyRhuCE2W1jI38LwiCj8BRe7IC5XOqeig5tjwtxy2c5Mgk1mtewPDWtxZ9yMDpTcOwl2Hog9V1UxuLr0zQ6TopuJ0nSiEoszgVA/Wl2vF2BrSTZc4la1rsZHR8gd3lQTQTamop3YmOIuFU1M88OumjcyzG7LnionTRRPqmX84O9cp66VuCrN2Yc27bqmbyhWxyQUxuxrG7T3p8UlZC6mc/EC6PzjB1BAdSj+X46PsHRW1dPysBilfIAxrS3ud9yp6lzcJkjDiF9oL+mVCOAgFvvKow7LH+a5Qipop6eaOJ79bridaBmHDt0Tg5CbZ9wVRbLWu/VH4Cix2RFiuZNq4TSB+JmJnSaoKkSNdFFTCHbvd6lpWVUYopZtaej0x2KrfT1ETY6mMNcHg32f/EJDLFbmXN/rbNUUkFRCJ4GOY7ECW2JP91zeR7XnGXXb5A7vKsGtw2zdxThExpDM7nNSA+y6ykYWYQ21k8tazouIJJVo429EAuDj+WiP5fjojm4cUHNNwVI4TVMbJTeWKOSzHoMYA1rRYAcE2nad3a5RyndvhKZWwtxPg37e6myRuLXtNwRwUkeqpojL618cdnSd6DGAucdgAQbLvgayT4urwTnHMm6PwH0g7vKvie24scJzWb2g5gHYUXiSQXN7A7E6Ti5b7x0sWw8VvyZWdY73erKP5fjo7FZvTj90rbFICsMLdX28VsNzoFLVOsRsa48UZqKTmzz7Nrs/ZdKqpg3rF1zh7tbMP91+wN7lqYfUjj72g/AfSDu9LHb+H4nT0VmFn5Fopjh6jtC3ox9lXmlc/wDTTY/wz/qY/l+J06x51cf5lbQ89uJYqZ5v7rkQRZwzGgAC5KD6t5b/ACNVsLx24kZYjrIxn1jT9g+kHlUNDTzmn5y+zpBmMv7rlCkHKVZM5sLy0SsyI4h11Q6mqrpnOf59r9seG65ce2Z7tU8NjDjcMu6y5Nqv8SlqedOGON5uNvUm81rBDBDO1hs+zpOs/Cg5puDtBUfy/E6I4ju5uVhknzGOgLMVmNxPxO6hlmmGdrWy4emG5AplS0fyu0PqXDc2N71LUPBLY2Fxt2KkNZTQshqzaMxyXc02uL6HMbuO6TdH2CnyWvhaTZDlSo5Wq4nPlIDYm3a23WFTWrayOCSla/zGwk7eCpZZpp45jU2xXIcW2OaraYcoS0cdMOiI9l+1OdE+PXRyFjpX+7a9+9NrauR8r8TgMRuXG+wKsjqa1sxLWuaGvu0deHyB5QiqmYgNoI2EKXA17nyMLC97rmxTKWDFgZldVbywv5360OOxNnYx7nM3Mb7hqF6SNhxYrsaASg1osBkFH8vxOjbxYbaIYT6uki1tv5zsHjot1uGiRvESeCqpIG4pBGbC11yZJybV85nMgbgL8fQO8bezoYOIZoPwHQX6uRrXG5jD7NKirGNLXxR6tgB6ICbFUYsLXYhhNtq18rXtkIsXMda65pBHgitaybRaoSwtNwJOkpKqCEMe8W2DYO7yB6WP5fidDJWbzShJGe8dSMgY3Gc3W2lXJsFhYfNMy7dF3erfsd/dBzCC05EIvjgjY92Za0AlGWV1h+qfM/Nx0H4CnW6lTnW3tGS/b2KYOc8OLcbb7LKWN75G7BsL7nvTMVRKA6QtJLsrXTHO2khOaZ5sIZi31MXSuxNZ0OFx7ydG2YyswX2m9jpHpY/l+J044nljlbzZ7cK89L0fdyHkeZlIHVwVvNjtwrHNIXnt0n4DoPm27c9ma6TQfosVhfrWEsbbqstk72jqAH9ltaDsstrGnhkug0N7hpHk/t5X7L9lGR/D8TosBcoPqXaoe7xX+6ftK9PM4HqetXMzCf19Bt/hn0p8i52BYIaqGR3U14J8kyTSMjYPacbBXBuCo/l+Ojnko6R3L8B1p1NyY7VxDYZeLu5Y5J5XO6y5DzzpouMchv8A/EJY+OXWxydG8Wc02KbDGLuKF2CWT3nKxjaR3IyUowSe7wKsRYjQflnRqX1cDZPdMgusE9XBE7Oz5ACmzOqYWxu3Xl4sUOcVMMV8sbwFjDgW53XOBURGH+JjGH70W09VDKRtIY8HyAj5EmpvmMdvdVC3k6kgeOiMQxY29d1yjWtqppHU8j2xx8FBHDXS1bZYC6YO/wBt1lyXFzyQymptML8LjNOrBXzdCt1QZwsuUo6isewskDY6fgW3zUPy2/oo/l+KDes2UjYujjtEO7/5oouTf8OinbMxhkldfG7F7p4Kopr3EUhaCpaS/QlZit2hYh7bAVLUcb4QqcQgRU3OImufi6T7nLsCg5OinfAwxulldHvWyACrKCeZ0/Ny0skdmWuHFYm/7jcWj7BT9Xv4Th71glpoZa7WnWtmxYvpZUTWUsL5X0TTqpb4RsKpaeZwc/nWI2yGwqvPLbbhzfM4gSLdie2aSeOESOexoNsTbZd10WvkMbS43cG4rdNTwQOgqIREDr44sFuzyAj5JLI2NJ6gjgY1t87BHAxrb52CvqmZ33eKtqo7XvbDxRLo2OJ2bQtij+X4pruo3T3x7dWRJ9P+nRTEctNZSxtGsie3zretrdmRU9Ta2tkLrKSot0Io/wAz/wBKDR7LFLDxDsSphEwvLaqJxt1AqDlGGnfUNEbopWM3rZghVlfPCYTUFoZG7MNaOKDB7DbHQfgOhsmGMvO66wujN5vE3YX9Su4xPa3rsQF03QPA67Gy4WWpjMQ/kFl5vVNB9221dCRru46Qj6SP5fjo5nNYuaLWPtNTpqRjpqU7dm0s79AZTQkji87o+qw4rnN7vfcnzPzcbpszPqOsK8b+lxacxoLWOEk3ADh3ovcbuO06PsFOHWFF5h4MMZBvxKkjwX1jPZ61IJBiuNjsNhZMdqcWGRxc23DamMfsICY9wJbrSbBu0bc06XVHDJfCPd/+qC0Do9W3pki19mkaN1bq3VurdW6t1bq3VurdUd/4fjoD2OLXDIhBtWw399qxv5u49bo9v6LDADJ1ACwWKU7Bk0ZDyLGWQj4vI/plZLJZLJZLE6BhPWWrJZLJZLJDRkslkslkslkslkslko/l+J02ALirinP5K0sTmfTyLRRueewK/Nz+SwuaWu7dN/8AjKyWSyWSyWSyWSyWSy8qNkgkklk3I423cVUVOpqGc3343ts5R0+oqYXSi8ZkbYOVRUv1kbIH4DcbSexNpjFUU8jxdglZbEm8nQuMshv0m7oT2y0Fdha7Dj1fRKa/CW4hexzCj+X4nQ1jRdzirAXf7Tldjg4ZbCnxOwPtsc3qVhtjduqyEeTBtcUGjBGy9ljmkZG3rcbBXDmu9yRu1OieOk06D8B0OwQVUkLXYTM2PoJtPzepnc6PWDVNvsUdeGSujfJq7AbQU6mEU9RK0XeImXwrn+vDYctud+rvX+KFsjYeojbnZPgEU8MrG4sMrbbPIHk0vKtJBznVNwOjvY8f7rlDnHOHNkjtFFLLjde6payqlnfPHH0Y3nZGqyPVYJeda2NrvbG1UVTU0PM46XabvviKpJ6emw0zIXBxaNl9qow6M8zgGsJ4F/DRH8vxOgE+y0laplQ+C56TmZ26uxCGGUxOxyBr7Xt0yuU4g978NTvPNyeiFi4tdokfxL7KlqX1Dy0VcQZFk0bdp7VHWVjgYqdp6L9z4lWVMMWppJ5AYGWtw2ut2prh7TNqKPyynx3tiaQhyZBTzMLJCWzwzYQ7vVJrJZ2BtIGSVEbva232qnouT45JcM+N3XkdqrKqmoueR1W3Y6xaU+OriY6ZznSBueA2suZMjLKjEbsPEYlNMKN1HSujDdW51yXdfkD0sfy/E6I3u3TsOgU73BxD3OuO111WSucDr5cY7NlkynGZOI6JKc8ek1Qsa4N1c7JNvYVAYZKfUx7TFMCQ53bZO586mPu6lpH6p2E9Fgw6D8s+kHpY/l+J0WQiqAXNGThmFfnDfqrU/nHdfBGSR2J7tAe02eMlhqRgd1jJX5w1GKmBAObyraD8s+kGjNZrNZrNZrNZrNZrNR/L8T5G6sreRaKJ8ncFfmr1hkY5h6iNNv8AjKzWazWazWazWazWaz05lZlZrNZlZrNZrNZrMqP5fidNoWbOLjkulUC/Y1YhaVv8quNAqKkdD2Wda5uwa6RuzBFk1dLk44eyX9kY22LuMb9jgsTelC7I9XZoNvcK3it4reK3it4reK3it4reK3it4oeTBybQRxuqJhixSZNH/Qq2SV9DJNALsMMmIHbxCpaec0krKht/M5s71VTyxxvkZUamIAWH1VNScqRU9qncdFwKgFTBTtE02AU42yYetNEZoXCaXBCyxxlN1tsdulbK6j+X4nQyEe0VdxbFDGNpK/xLEWU+Euu4JsBgqad724oxNHhxjsQnjFmvzHao4eBO3uTKanOCWfYCPZapnwt6ETC97zkLIMYC5zjYAcUGF4ZURWddhy2XTZCAHPbZ3Y4Ig5hH4CnPdk0XK57GKCGnL8LGzPs531UdPqZpZXxh4EIxA3ToyJsDX4HTBnQB6rqrjLZSaVoc+wG2/UmjU1Li6ETdFl9ip3MbNKZxia1jLm3aucT4cWMjojyB3eTDWU1Saaqh2B+G9wqtrqoOmqWYbiPC0bepRhsUWuazC6UN2uVTTTVF9bNrWOa3cKiq+UK/nToB5oYMICdWDlOMyvPSJhBPdtyUPKDpRghjLWstx69Efy/E6PsGybr4myYDiaD1qB9Xg1IBxYhcbyo6meZtRHI90cLMOHVXGfbktvvBf0yoerUC33lT0xldqWUkxazhkpa6B0Jqb6uIOla3B1u2/khI/DZ8bALOByaFP1a/Z9wVRb+K79UfgKLXC4IsVzVnKH/iYsQY6IEt7ioapkt2RU4hDSNvepIG1uGikl1ro8G2/eqmSCsETKhga9uC+SEmvb/k+bbvZmqN8FaI56dpYXYLggk/3XNjJrOmXXt5A7vSx/L8TojmHDNB7DdruK5iI8UFiMLtqEzBK97RZmskLsA7L5JtOw3DNru9RzHdBse5Mq4G4pIMwOLU90JAL2GM3HA6GkjHM+zAGjPgEGPtiaMT+1xRccyUfgPpB3elj+X4nT5t12e6cl0qc37HLDGNU3v2rZoFNVGwG6/wRnp382kdtuwXafoulygzD2RrX3vJxlkz+i1cdxC389B+A+kHdo/dfuv3X7r91+6/dfuv3X7r91Hb+H4nTsW8uvyPNTOYOrgv8x/6BYppHP7zp6X8Mr91+6/dfuv3X7r91+6/dfuv39NH8vxOi6EsxLI+HWVbU373FXpnFrvdOSLHtwvGgAC7jkg6qcSfdCtqf/Yoy05L2jNpzCuNB+WfSDyaPkw1MlNTyNxOcw2Ljt2fkuVKaKflDExmICozZtVJJDz/AFODz7pj0D3KtdHPIHOrNXjvujaqCGmr56llSPONkfi+qZFR8oVNVUsmxVEt7RNb7tlJHT19TNXPcDFHG7C2Bvamh5u620qP5fidEcZ3cyg7VSSuJwsjYNpKPKcrWB4jc/CMtl03XVXJz22vJHEDjb+aZUjPddofUOG70WqKnggc8mZjJHkdFgcf1UVJSCLXPaXl8u6xo4p4rI4w5p6MkZ6Eg6wnNaOi7pDQfgKe9ouWtJAX+K1NfygZnSkHUHZH3hUpDq90clI1+GA9M58FS86kmZLznZd3Sw2Oarqeor5qaOnHm2xvw/Vayt5TkgjhnwukG9K3qVXzitmo6eR/mHSv6bGqroppJwMAdHHJJj2dd/IHkhtXCH4cjkQpKaOmAZKLP2m5+qZBELMYLNCmgEF45nYnhxvcrW09Phf7xJNkH83diBv6xyfNLA5z3m7jrCmxs2NYMIUfy/E6LH2mkaG62B9RHgOKNp2kYlyd/g4h1rH3eYm2wx224vyVutw0SN4h6pP/APZF/wD0qWp5QA5oYjGS7cxXuMSrzR/5Avbqbbt7dLD2JjepiKPyzo1zqQYib2xG33JlYIrSxswNsdgHcmx1TMTWuxDbbatbU0+J/vAkKKmfBaGLa1rXEKaBlP5ua2MFxN7JzqaHC52wuJJPkD0sfy/E6GyMPSaViYel7TepWAsE55wsGZK6PqmZK6xn1btjkHtIe3MKxFwsTyB7rRxT5n7ztB+A+kHpY/l+J04mOLHditrQfsheelLuzyLwylq9aB9kLFI8vd26T8s+kGjJyycsnLJyycsnLJyycsnLJyycoyP4fidFgryG3YFuEroEhWcNO1bpWzT/AEyuK4riuK4riuK4riuK46D5ZkkcGNGZKfKyqjLI943yTJ3zsEb913WtRLVRMk90u0R/B46MZHSOSDpRif1dWjpN29YRif8AQotOabDHmeKGFgc/3joL4WiOXsyKIIs4Z6D8s6NS+thEl7WxLV1FVHG+17FMqXVUepebNffYSg2pqY4nHgTtQqX1EQhOT8WwrWU0zJW9bSpIYpmvkj3wOHkBHy5HVMDp4hvMaLqtZH5+nmgsZNXhwfy/96lSclzN2UL3uf27dimhiYYqgPBcwxev7imFzcBwi7epR/B4q3amjg0XWGi1YkcbF7/YHXbioG1EspLwcTw8h291p3N6ir1FJ6zFO52N54fRB/FpV+sKSbiThVOWPbFTc5ib0T0pLn8gqNs9RLBRvLtaYjZxPDLbZVOGZ81M2bDA6Q3dbt/dYh7bboo/LKeIzZ5acPeuaGjhNeJTrGzQkud3KijZFTtndRNuyZvQGw32KmpnyB7+dYjbLIqvk5YgL2SjzLnMxCyZLyhSmRxqC+lieSOA29yrJOTDziuneNaI2YRHe+Sq4OZyxAsbixuuW9/f5AR8vBjbi6vJj+DxV008HC2iCGZmGRoN2/Uoc4bhnke6SXvJQZxcVbqCkh4g4lTthZiLamN57gdqg5Rgp+dBkZjdHiAIv7QuqytnhFPzgtwxXuRYZntWEew2yKPwH0gR8t7nl1sdwOtWOIZ4nX2EIY77d7blZEHFfZft296sFH8HjowE9IZINlOF3X1rYuk656gjLJ9Ai45ps0eYWx4a/wB0q5RZA4SSdmQRJN3HPR9g+kGjdW6t381urdW6t1bq3Vurd/NRh38Px0XCtIL9oW+QugCSruOnasytmn+mVkslkslkslkslksllp4LguC4LguC4LguC4Lgoyf4fjouVgiY5xPBqvqQO94Xn4nsHXwVuOjGTghHtdaBmdFEf5trisJnIHbEbLW0zo9vtxLVyfR3XouPcK4LguC4LguC4LguC4LggfJjhEUk88u7GzNVNRJRVELqfeY8Wv8AVQ08lHNBrxeNzsnKoqZY3sbDJq7ZlxTKWopJ6WSQXj1g3k3k+C8hN7v4CymYKWaSKBwbNK3JpQc03BFwo/l+OhsMe1zjYIMjHS9p/ErXRyNdH7wOxPiingqPeaHAoGP1L9rOzsUcTc3myGpA1h6EI8U+rEFRU33n4SVqoIZJZPda26xAPieN+N+zEO1Nni9puJnYerQfgKuckXwcn1U1OHYda1qAmqGRuLcWF5sbLm5qohL7mLapWuqIwYheTburp1cLejj2u4daZI+pia2TcJdvLnLYzGMRbYnyB3eTT8qULGSyRNwOjcbXH/Sq/W4rzR4Y4XTYjn15KCqn1rqljMnPuGHsVVE5ojl5zroruHSVJVV9PHTMptux98RVJVRQgU0cRaSLCx28FyhTU8DJIa2QP1pfbBtvko4r3wNDVH8vx0XPssJC1TpZI2X6YYbYh1JsVO0ucW7o9oY9o+5clOoaaSLDNq3ExFlgQegsRza8WW3g0qCL2Ww3H1J/sqfzvNqWiaMUjdjWDr+IrlKtpbx85rQ3ZsOGxK5KnkOKS0jMRzIB2fqpWHJk2z7gp2jISO/VH4CnxnJwshydHH0GPLmTsmw/eM1TTVEbZYoqUMLyb9NT0oponCWo1gqy8XA/VcoGngbLHVRBuMyAWtb+ya6Wma5o5P1W0g9Oy5PlNHHOYo3Rvie8WFydv5rUVLMD9YTa9/IHd5JAjdYX2okxkdDGNqDcBte2LtRfa/YmtsbFmK6aHRuYHbpPFOfq3WDb5oHrUfy/HRHI/d3Xd2gcmmd26RrGdE53UVRXVvOTD6oCPAAes9ZUdG07b43eCic7J3RP1UPKEYvq+hJ3cFBRycnTYIhtwVGEOd7x2KogNGZKKax1Rk6TSMiHKKOKEQQQtwxRg3t9etAz9Fzryv7E+Q5uN0fgPpB3eTidJe38u370YmhoJZhLrLFj6IOLDbjZavA9nG5C2vuOl9xTccuIM3dlk4ukG1pbu2+9AdSj+X46LhCCoaZYhl1tVzUFvYWFFtGwvd7zsgjLK4uJNyTo5pU4S+2Eh3thGTkyQFp/2nnaO4q3M8PaZG/3Tamve2aVu1rBut/uua07rt9tw49mg/AfSDu0by3lvLeW8t5by3lvLeW8ox/x+J03Oxb6zvpuFhdaYfzZrZStv8awvdgZ7rdmm3/GVvLeW8t5by3lvLeW8t5bytozKzKzKzKzKzKzKzKzKzKzKj+X4nR2q8Yszi92S6VW6/Y1F8Dte0cALOWF2i5Qe86pvbmtlQ6/wq7xij94aT8srNZrNZrNZrNZrNZrNDyqWkowzX1LrBz8mqthnraSd8UTnNwbwI7FRh9TDPr34XxBnSbtXKxktI2mcGxNt1myo5q58EsFUQMLW2LLqeQyxN1M2DmxZtLeu6DhxF1H8vx0Rwe8dvcoKaGnfLI/ZFFHmbKVjopIJofWRyZhVEFMceotd4yN75fcm1cYsJDZ/egjM8XbH+qmZBRVNS2DZK+O1m9naqc00UlU+pbiiZH1dZvkpY3QvikjOCWKQbQnxezm3u0H4CnyOyaLoco86oqaF8mGOOQZ/VQxQVsEEUlOJMZbibfaqesBayV1RqycO8LKpo+TXwwspt5zxfEUJaZsEUzJcE8jt1o61Xz3bK6F+CGZrNj9vUpYquqD3NZfV6nAe/yB5UZ1j4ZYjeORuYU80tW+aeWNzMWAC1+xMjAY+Rt/O4LE7VXmaUvbWG5FrYVA6qr5qmOn9VG4WATjLXTGne7E6Ij8r9Sso/l+Ojb/AAzZMlfFrJz0IWtHTceoKoqK7C6eq9YwbrW8GrlJjGhrRHDYDhsK2++LaH9ePwUnJ3JjGid22aW3RivxPW5U8McJlnw6qBgHTepqipcHVNQ7FJhyb1NCj68Hiij8BRBFwUYWV8raQuxarCDbuKgqS4PjhhEQiey97KKmbJqGxvxCzFJV0ddLRySi0mEXDkzk6nq3wx4schw3MhUtJJynM4OtqyxuDV2T62oq31VQ5uDEW4bDyB5PTNgb26Oz6FOebkavFcsttQNxhxBlrdmaLmb2xC1rYDf4rJrr2bhBPRv9/UpZGOaGxHdtmgVH8vx0Mnb7J+8KKqkaZbDoOEjm2+4p3NmObizvI536lS1DWWllADzfO2SbTROuyLM9bkEWPNmSfkU+UwPxSOxOImeLn71FrIXnVNws88/YPvUjogY2na7FI536p83Dh3aD8s+kHk4gzb3rVW6FrWWsDRjGRVpdWW9gK3Ov80LsyFs1jczboj+X46fMvsDm05FdKjaT2PRjbaFh4MzP1V3aLFYbiRnU5bKYX+Jedf0fdGWk/AfSDRwXBcFwXBcFwXBcFwXBR4f4fidNs1uBZW8jZ5O3+GVwXBcFwXBcFwXBcFwXD00fy/HRhCE9WSxhyYMyrCkZ9dqJpfMv6s2lOhlbhc07RobFE0uJNgAg6sOtf7oyCtzSNGaiJcBnGc/osJ0H4D6QeTR0NTO6Gje27rOtiO39lypTQCpZhZiwySBwG3gqSohgnhhwede93Rf3KuMUjm4qzC5w4DaqCPkyqdKyb1rdZiHeqUVVVrnOic7KwbnsXJ8ktVijfVDBGBYNFxoj+X4nRGx+1o6TlDT0LWsx3xzObcRgdnWq+lcyOqqqYNLCzoh+Lr6lBR1c8FTrmOcdWzCYreCjqwOkDgd3aJatw2joN8VUyQPhpYoTZjZY7623G99gUXKD4zilaMMYzc48Amz1OESl7wQ3LY4hOwCzZBjGg/AU9zBdwaSAv8QqZqmWqMpxYJrFipDqKicSUbXYGu6XFUjKsuD+c7ATtAsdirouU6p0TIR5puPCO9U8D5nuLqvAzE6we3Zmfqq2me44opd0OuxvcfJHkhlVC2UDK/BPp2UrGxv3wOKbFE3Cxgs0KWJtOzBKbvadt1rKamZG7r4plW6MGZgwtd1BRPmjD3ROxMPUdEfy/E6AD7bC0KKBjmsmm9t46MY61UP5LJr6hnTlvsdIVTTcktcJS8uqnBpaMNsndt0GcXvFl9VLHxbJf7wpaKeq5tRxHDJsOKY9XY1U1Zyc6jfSxx+ZbJiAB69idr9Vg1j8GG9943umMHsR7dB+A6Nc+iiL88vBNqtSNc1uFruoIMqYhI1pxAdqD6mmZI4ceKFK+mjMLcm2yWrpoWxNz2eSPIdnlwUrW9LoZi/59qJJAu9uxt+te1j6Ws8E27rC/wBPqotdiEO3ibKBxLgzC7eUr27YuiXWzIQw5cFH8vx0NljNiDcFAghso3maDJK8MaOJV23ETdjB4rCtZa7DseOxCWF4e06MUjrv9lnEp80hu5xudB+Ao5/RShpxebNzt/NPcSBfDsbfrXtY8TsfdwTMV9Xi6dupMwX1et9u9sv0TMsHS3L2xcE3FvYdqpmuuWnpA/TLSNGSyWSyWSt0vpsWzGe9xKyWSyWSj+X46LFYoybjiM1h51J9RdXnke/4iu3Tihkew/ylYedP+5Y5HEk5l2asNB+ArJZLJW2/RbDIe9xKyWSxXl/GVkslkho3VurdW6t1bq3VurdW6t1Rn/j8dAZG0uccgEHVbyT7jVq3mma7qdJtWKA6vqLTcLDKNhycMjo2qzQsRhlA+BdJbNF/+MrJZLJZLJZLJZLJZLLQfIMkrwxjcyVqYKprpOAsRfyTPUPwRtzNroObtBFwo/l+Ojnk1g5wvc+y1OhpXuhpRs2bC/v0aylmLetvsn6LFhscnt9xyfE/NhTYWccz1BYYYxi4vOZ0F0bRHPwcOPejFILEGxGg/AdGpfWsx3tkbfehFU1IY4txDok7PomVZqRqXuwtdY5rV1NS1j+qxJ/JRzyVLdXJuOAJv9yfzSbWYN7okfr5IR8h7Kdpc4ODi0cQqMUVHhiZhDw6mF4xx6S5TqYjNzpkjxCLnZ3KEUnO8OoPOtbe2P69q5LpyyoD46vzl2m2YT6pr6gSsr8Ldpy7lykKhtU6fWDVWvgwXUPwD9FH8vxTW9Zsnsj2axwj+n/QpnMhDqp1hE9zQQzr+q5G562KOre7FPsDbsv0cXaqkw8oUtTCw3liijsWC/dtCfT36EseXaP+lBw9tgupp/ac/Cquu5TqZM/Mlkhbqxwt2rk6h5QFQ8mm1ksUW/K7gCqiOKScNbJ6icdKHs7kHt/3GXPfoPwFPa02cWkAr/DxQuFWJSXB1Pjxqja3BFNzMYi6O7QbG4VNTNJmdznE4gdhVdNXUck8c4804MxfRVE81P08RfFG5t7XsAotnnJBrJD1k+SEfSR/L8UHdRupHRdLBaYf97lLPVTBlQPUYoi9rT71lHUTVb+UmvcdcMBYVVCjqZKmWoZqxePCGN437VLV26ETMN+0rCP9toCmpjvA4wn1M/JvOY43f+M3XtDW/wA1utU3KkNMzXtjMcsDpOB6nKqraprY5agt8203who2betYG7dU3D9VZH4DocRJui5RIflnsRjD+kOCxPNghJj6JNslrMfRy0NLXXxZaQj6SP5fjo5nKekNy/EdSdU8mNxxnaYeLe5YH08rXdRYUPMugi4ySC3/ANQii4Zdb3Jz37S43KbNEbObkgHvEMnFrisRljA68SMVG7WSe/wCxu0H4CiE9uHCMFrY7/cnYS5zzbePag6TC2NjnOxXzumOgeyR0ZvhxJpwAO1l7Ndb80WuYcYOzE65WHWsvlbEoD7I2vHUbaRo4LguC4LguC4LguC4Lgowf4fiVrIosTb9auIT+IIMqKXWj3sQuttPKPu/urU9E4nre4LWTRlx+IL1H/sFtp//AGC2Q/8AsF6j/wBgtsP5heo/MIySxYWjjdWHuHyOC4aeHkD0sfy/Er7Z0bFw8rgtuiTvH6r+mf8AROd1C6hrG0GJ0sxiDNb+yloamkdSVMYxYC7FcKWrkaXBnAIiXk2SJurxtka7Gw9hPBR1U/Jbo6Rz8GtEuKx7rK4Ufy/Er7ZVljqJWxNvbbxKdVtqGuhZsc4cPomQR1Ic95s0YDt/JbMlfRqJ6qON/V1d/UmzTzsYx26evuWtp5WysPEaJO8fqv6ZV0yuFBcuqNTg1vZe97KSgqqN1JUsbiwl2K4UtXI0ubGL2CDZuTpIY3MxCUOxt+p4LXU/JFRLR48Gtadv4Vf0b2jMhUsDWRGaGpMtseyyqOWeVXQxuczAGR7QMv7KWCgqIxOR7bLt+twudSR01I0RFhZAfWGyZyVKKaKm1uNz8V3INHBR/L8SvtnQzlCrcG83BwknYL+Kq+UXxGFtThwRnOw4ntKqOUX7WROMFOOq2876nyJoYItfV1pJ1WZd39TVyRSUuGespoXXx7mHIn+y5RZUNDKoyh8jG7oBGy33aH/Z/Vf0yio6UMi1zKvW7+y2FS8s8qmGM6vA1ke1S09DUMbOW7MTLj63TKiojpqWNsZY8QH1uzqX+HUk1Oyn1mIT+0B3IAm56+v0DGMaCXNcdq1bWx4tpxeyQFCbC73AFRawMtKCRh4J7bCzXEbh/XJa0hvD2HcU0lrRcnpYTkOKJbGwYGYnX4p4DBbACzvKY85uaCo/l+JX2zop5W1hh1JxNGrDhfr2p/OK91TfdvG1uH7lHStcXhntHisOiynqoeVXxvmdc+Za6w4DbwUE3PZGVkTcOva0dIdoyUsjpnzzzG8kj+NstEneP1X9MpzuoXTXFjS0sxWGeV7rzojyuMJXQEe6Xbew2UDmD1v8pPDsTWC24HercU5uFpAc4bAdluKvgadg4EWJT2ljDI0tyyN1I2wwAAtPk9McCM0G9PZl0zdMbh2M2tV2A7BYXcTZFwx7Tc9M2QHTsOBebJriNrckBhNgLbxyWIs2oMbkBYKP5fiV9s6LcNHRVzouulosNEneP1X9MotORWIB2Vt42V2A3y2m6yd1bHFNBuMO7hNrIG8l7WvrCi0DY7aUAWZNwfRWsTtBuTcrzbbbLenj+V4lfbOi8rw1ZvP2VZsov1HZ5GWjLRJ3j9V/TP8AqY/l+JX2ysDPWu/Ja1zrN99y6UspKxU79Z/Kc0IJycOVz7Oi5Rhoo+cvGb72b+66VNTFvUL/AN0ISNRUH2Hce46JO8fqj8B9IO7yqOionNjlqnW1hF8Kr6d/K0dVJHE8t8yWua4fSyom8/5y6WS0sOqthF+tcsuc/WCneGwtI2NubKhqKqsZUxVRAdHgAw36lUOfU1VLStlwtdzYObbvQIN1H8vxK+2VY5Od+SgpqemM80t9XG04dgzN1VOrIH08tLbWR3xZ5WPFRQ1tC+k13qiXh1+w9RTalg3tju9MxZt6JTKKF1nz75/lVPr+UI4Jqn1MeAu7Bc8FUmqnbTRUrsEj7Yul1AcVDLDOJYpBjhlZsv8A2Kjnf6wdCTvCk7x+qPwFPkPsi6HKMnKkVKx8mFkRiuP0UNLT0nOXywiQOa/CPzT5BRyOpI5NW+fFx7lXR83xc1YH3x7101sdA6QmmE+yTIKlFNRyTS1DC/BiAwgf/FrqmTG/WEXt5A7vKY2UvY+M3Y9h2tU0j6ionmljMeskdkCmU8fSw36RG07bqudI50jazfaeHcopJaqpqGweqZI7Y1PLqqp1Ej8b4cXRJVhko/l+JT+9y2+4Uy0RmqJDhhjbm4/2VbNyjUYJ57OkkaLiO26B2Bclx1U1K5wmxhsF9rQN4r7QT/jULuBgFvvKpZjRQ1POQHRXF7beHauVKaB7pdTXB7zmbEHP6rkqJ4tJaV9j7pOxTk5GbZ9wUveP1R+AqxTmMqqplO43MId0VHVxucNXDqWs4WTvPziB79Y6AHokqabnE0Wubhe1uRWs1z/8tzf6WzVMGVM8b6cFoew2JB/+rm8b3PbiLrnyB3elj+X4lfbKxt4HE3tCZPNAyew2YuCkFPSxxiQWeLZpzqWmihLsy0IQxG7GfmUxhzzKD4BeeDa0e8OITqeGqmhZxaDay11PO+J/W0oNu+oqJDmVFSt24B0j1nipO8fqj8B9IO70sfy/Er7ZWE7HDdKuLt7fZK2xRkrVDI+ywITT73BvVp1ksZZL/EjNiulV1Bb1bFhpYQ0nN2bjok7x+qPwH0g7tHBcFwXBcNHBcFwXBcFHb+H4lfbOgsaNaezJX5lT/hWF1OIx1sWONwc3QXPcGgcVaGMu7TsW2NiwyDVnty0Sd4/VdL+GVkPuWQ+5ZD7lkPuWQ+5ZD7lkPuWQ+5ZD7lkPuWQ+7y7lXDgR3qzXtP1RAIJGasHAkK1xfRH8vxK+2VzaM298+CEtVfbkz+6sKeL8K80NU/syRY/L2h1rGD0bXuhHFctvZjfFAzDWv/JW5vF+FGSlvcewubSnYd3sUneP1R+WdGHEL9Ss57R3lXLhbvXScB36LgghXaQe7yB5XJ8M73MonyeeI+i5RpqOnwMNNJ0m1OsaQAqCpp6TVNZJikqNZvi/V+S//IXU5IdjFyOAxG65Jk5JmvVvcNaGvvfruOCrqqqjikfFU+1MWyAX2YUHdYUfy/EonqeUDJt24yomUkrKePaZpiAcA7AVVa1/OmwPsyaNvrdn6qtiqoxC2NsZZFmW3vmetMnG802KcL7cWBSVBz3QqipdXQ0kcfqIi0O1uzjx+5UrYP8AxA+PHNJhDiw+6AVV0lTK2c0zwBKG2xXF/vWJmzF00X+9hKPyynmPa/CcPeudVLDUVxlOs/8AIwPb9OKoyKI1Jkomu1WtsePFUkNVv86vhvfCLHYq9vLUuFsY8yHPwi3Yns53LFGyR1iM3MtkrVc74YbuxOZnvZKeppnRQQvZZlOJcTviI8geUY542SMPBwunRw0sTGvFnANzQigjbGwZNbkpHshY10vrDbe71rYKSGN/vNYucSUsLpfeLNuiP5fiU5vW5yAd7QLVFjpjNSPu2chmIt6tnUqyengdT0UmHVsLcNzxcBwXKTy04SyGxtnsKDOLnJ7v+W6kj4h11PTcpcmvlIJ5vhhL8YtwPAqhoJDIyd8fnZ9WZNWPpmUYqIS2YbuMjHAuJ47c01o9lm1YTwDAj8B0a59HA6T3iwIVOpZrgMIfbbZBlRCyVoNwHDigaimilIyLm3WqaxoZa2EDYua82i1AN8GHYtZT0sUT7Wu1vkD0sfy/Er7ZWvj2BxxA9RQBIbLxboxyvDQgGDZkwLm3s4bLaMtjh1hY4ngj9NG04pODVrZNovieVJ3j9UfgPpBoyKyKyKyKyKyKyKyKyKyKyKj+X4lfbKLJG3aVipzjHVxWH/yfzV5MQ/mkK2dJ/F2iz9jhk5Yorn+ZhWG9T+axTnAPzQjjFgpO8fqv6ZWRWRWRWRWRWRWRWRWRWRWRQ0ZLJZLJZLJZLJZLJZKP5fiV9sovkdZoWGnGAdfFYhzn81aW57HhdHY4Zt045XtY0cXGwWFtfS3+YFdp0Sd4/VX/AJCt1bq3VurdW6t1bq3VurdV/Ja6qlw4t0WuSpqqOUlkO+MO0IU8MrtY7dDm2up59dhjgdheXDitTBN5zg1zbXTaASh05F7DbZOp5ZjiabPIYSG/XRH8vxK+2VqI9rWmwHWUHOAdLxd1aMErQ4fogWHZmw9aZI32gnVD+k7JjfeKM1VK5/UPZb3aGjE6Sn9qI+CZPC7Ex7cTSpO8fqj8B0GI1F7GxcGkhBwcCDt056NfTkll7bRbyB3eTR8qNpZKqGNuFzWC5Ge381ym6aKZ0b4+hihDHONxwCoq6sqnuMUfm4THhwdirWsp5MbazWYC22MbclQTx8nz0sdNvukbh+iozTUxbDqnYnAbL9LMp9Mzk+rbI14MZjF45u1yZrAA/CMVutR/L8SnO6nOQc72QXJj59ZJDDdzoG/7mxco0kMktG0vsyI78AI8VBDSQS0bML2vL7gVB4W6+tB/FrkR7rlT0/ssixfUn9lTUkU1NSU8Vta1xHn9vbmVV1NTC6Gkp5DeI5k36Mae6wF44zYfAE+J3+1KQ3uzUveP1R+Ap7AbFzSLr/DYqOoZO2QnEIQ9kn1VNz+BzmijbrPdL/opgaWqdyiai8U4vhDO9cqDmk8nOIW4HMZccEwTU82EcmjgR0gMlyWaylqpoGxuaWNBuHXNvBYJo3xu1h2OFvIHd6WP5fiUR1vKAfs2lhUM9DI28d8UTzZsgPiqyolnbT1VQ1rW6k7IwMtvFUz68U8cdM7H5pxJe635BMg9pxv9Fc+2bqnrmjo21buziPFU5qWTwywtwvELRaXt7CpixsIjkkMmB0TXW+9NewDVtaLdAA3sLprpBZ07tZ9OCk7x+qPwH0g7vSx/L8Svtlc5jHx/3Qiqr7Mn/wB1cVEX4l0Ha1/U3JF7/tHqCDW7AMk+mqG4mPFiEXUrTVQ8MO8PosIoKm/yim1HKgDWDaIb7T3rCFJ3j9UfgPpB3aOC4LguC4LguC4LguC4KP5fiV9s6C9h1R/JW53TfjWJ84eP5FgjaGjTd5AHWra6P8QWzRJ3j9VYe4VmFmFmFmFmFmFmFmFmFmFmEBozWazWazWazWazWazUd/4fiV9srE7a47o61hbd3YMgtskQWsGQ9phQhn3+B69Gqi2ycexazaR7zzsWyWK/1W27f/5Kvk8bwUneP1X9MrNZrNZrNZrNZrNZrPyoaGkpucVUwuGk2ACq56mibHJANnTu1ypqeppI2NqW3Y5j7qpqZoBeKbVMa07xUNHylQinNR6tzX3UVDFTuETwfOPFr26uxVJZSsdT00mrfeSzz3BNkbuuFwo/l+JX2ysDeJwt7kxr3YQTZoAu557k+pilvHHfHssW26wmxxCfp5F0DgPvshLFsY/8iucneA/NF8u1jdru0o08ktizewsJDO+2SbLNJsfuYRiLu6ydqzrGXwuBFi0q3un7wpD2t/VH5ZRc42AFyjU0vJgfS48ILpLOco6SmpYnl8Os6b7KGvZTNxOm1Tmk7MlNR8mUIqHQDzjnPshWc3lMmPV6pu04rXX+KzQi97BjTmb2UjJ4IW4BfFFMHfQ+QPJg5RoJo46mIYbSbpCrQZIBLUMwhjb4Rt6ztUUmoZzoNs94JO3suqqnmmja99RronN2271T1fKtRA4U242IZlU3KLSzVRRFhF9vH+6lc3mQilI85g840JkTd1jQ0KP5fiU+3W5bfcKY4annbWu1GNcsUU74Y62UBzpMVoyHCw7lRtlqxUwzPEODVBuDZst9y7nBPH/N4J5441Ux8l81DpC4VF8ybfquTBQYYW8xOB0oxavbY952KupqhsRnjc0ulY3DrARsv2ph44EL+6xH4CnMdk4WK5gJ6V9K15cxzsWNqpXT4JaSGnERFyHEjuUFHye2KFscuOzie1T1nJVRA3nA6bZeBUlLrA+SS7nO4XIX+FzSMEt8Qc3aL3unVlRzWPzWrDKcGx7T5A9LH8vxK+2Vtya7b3KKUSvjkj2xSxHaLqeKUyVBqPWvkd0nJk0tVU1Ji9VrXXDE2mad3a5GO3Td006B5sH5d6lkiqqmnE3rWROsHqBkRkpnU4tE+I2LR1KQh75HvOKSWQ7XLzeROFvcntGQw/qj8s+kHpY/l+JX2yscfrW/mtU5t2j2HcF0o5Qe5YadmD+Y5oTzg4M9vtaDPALjMgcEGVDdYPe4rZHLfuC1TG4WH2RmVrZfWHh1KTvH6o/AfSDRms9OenNZrPRHb+H4lfbOj/ysJP5rYyo/JDCLP/5PIOsF3/8AGtran8l/42EO/PRJ3j9V/TOjPRn5efpo/l+JX2ytVH6w/ktbI7Cw+0cytpkP1WKmeT/K5aie+C9tvs6DBAThyNvaQdUvLP5Rmv8AcH1WtidjYOIzC1Mp6YyPWpO8fqj8s+kHk0vJVNUc2ErcbpANvH+y5RZHynLUPjbiYXR4XN29apWMq6ipjczz4e3YxVkgmLpDV6pjnbcA2qippa91ZHVbHBwyKihZyiamqMt5Yox5tkfaq13OaqCKmkDBqYsTW7c3Jjw7EHNvfrUfy/Er7ZXSyc657lBBSUuukk2N24WNA6yqhjaaNtZTvwuY6Toff3KKhmpKa7hjeY5ScDevJNqWjPouRdfpt6CdUOG5sb3qodByfjgpt9z34S7Zc4RZUbKKDXS1bcbA92EBtr3P3qaKeHVTQOwSNviH0Xm9g32pzhkcJ/NH5ZT5LXwtJTeVJ+WJKfWSlrI2RXaLKntyhPBBJStfeNuZ28FSzyTSRyuqMOLIubZVlLDXuo4qbYA0bxWtfXR0upmwzTcS3s7dqq6nWyOYZQ2mllb0sPWpeTZqp9THqBIHPzB2eQPJYZsbXs3ZIzZwU8OKZxnFnyOfd9lHTxklsbcIvmqimcHyRzvxuxHI9iFQHzyyNFmGV98PctYysrg4uxHzo2/kpJnPnj1vrWRvs1/egxgs1osAo/l+JTh/M5WPFhUdLO58XOQ5rZAbAfXgVX01PLrqZha7WHacZzF+Kn5Sdv1UpI7GDY0K3W4J54a7wTxxxqpp6iqkpebOIeMeG+zO3ELkiOvfzQGAyCRnQJdlYHhs2rlCmgk18DJARMdpLiNoJ4pg6mIA+6xH4DocQ6oZG43MTZOgVFWsxtdFFqmNv0bJkU7pAGPxjAUagumhlcLOMT7Yu9RUQM0UMZxWY7ePWVNTSS1M8c1r62S9rdSfKx80srxhL5XYjbq8gelj+X4lfbKxs68TV0mMlYc2PF1qoYmRs91osEGRtbHG3IAWATY4trG7B2lc1OZH5otl2NPRf2Js0lPBM4br3MBWrnhjlZ7r23C2NZDE3JrRZYj7RuewKTvH6o/LPpB6WP5fiV9srA/PgepY2YgPebkrFsR7SFg6Th7rRsWtm2ycB1aNZH0ZP1WHpNHUclbDEO2yxOxO/mOQWFu1x3nKTvH6o/AfSDR+y/Zfsv2X7L9l+y/Zfsv2X7KPD/D8SvtnRtVzG0/RdHZpxyODWrDDECOt6vqKf8CwzN1fbwVwbhSd4/Vbf4Z9KfJwxTxvI4Ndfyccj2sb1uNlcZKP5fivtlXKdTcmOwsbsM3E9yxvq53O6zIUMUzqiLiyQ3/NMqYD0XfeD1Ik7LIMjyvZoQxtEr+tysYmW+FGSlGF/u8CubSbpy7CpO8fqj8s6NU6eIP90vF1hlqIo3dTngISOnjDHZOLthQ100cd8sTrLWPe1rPeJ2LHE9r29bTdODHtdhNjY5eQEfIk1N8xjt7qoRQUsbwcIxh7sQ67hco1vOXv5s97WRW2f9CgibXc8E0BfKLDzTrLkxnPC6V9ThmHHDcZp1Xz19mVuqwWG0LlGOeswauUMZT23hfNQ/Lb+ij+X4r7ZUxjNnSWjB7/ANlJraU1VQbNgi9kntsqGB8PNnSxl9RA07trmw77KtdFQMpH0rNYwsJ2tvk6/FTUZPQlZi+oT7e1sUk/G+EJ8NCbSMAfK/3G32fUqDk6nndTh0bpZXtHSsNlgqugqZdc6nLcMhG1zXDZdY2bMYxfVF/vYSj8sp+r38Jw96Lp4GTVutOuEjy1yosFGyZ76Jp1UjtmRVLBUEY+dYrA5bDsXKH+OZYfM4r2t2JknKQlfGyoJpo77/7ZqsbDWthfO8OLac+pHUuUIxezakjb5AR8kuigijJzLWgI6uNjMRucItdExQxx3zwttdYubQ3xYr4Bn1rDzeHDixWwDPrRdJTxPJ2ElgN1YCwUfy/FfbKeWC+qcJP+/epmvqRT1IsYXPdZh67lcmU0vKGKWB7i+piOLV3yF+KqxUV1HPJUNwMZTAbdu17rJ89uhFHtPaf+lG3skFSRcQ66q9VXGfWvxujFP0nbRxuqWvc2SstE6GYxM6WdwcKrOUJYXw84LQxj97C0cUGj2G2WA8AwI/LOjWup4jJ72AXWu1TNYBbHh2oNmiZIBts5t0NdBHJbLG26a2WCKQN3Q5gNkdRBHFfPA0C6dq42MxG5wi1/ICPpI/l+K+2U6N4DmkWIPEJ0tOx01LmCNpZ36NXSwl/W7gO8oQNOJ52yP6ynMdk7Yu7/ANgsUT9vFvEaCAQ+Xg3+610m1oN3HrKk7x+qPwH0g0bpW6VulbpW6VulbpW6VulbpW6VHf8Ah+JX2zo2rG+jpnO6zEFhjaGjqAtpwyDuPUrxdMdhsVhOv+rleodhHUM0GRtwtCk7x+q/plZLJZLJZLJZLJZLJZemj+V4lfbPpJO8fqv6Z/1MfyvEr7Z9JJ3j9V/TP+pj+V4lfbPpJO8fqv6Z/wBTH8rxK1ULgG3vkvWN/CvWN/CvWN/CvWN/CvWN/CvWN/CvWN/CvWN/CvWN/CvWN/CvWN/CjFK8Fp/lX9M/6kPnixuAtmV/lh+Ir/LD8RX+WH4iv8sPxFf5YfiK/wAsPxFf5YfiK/yw/EV/lh+Ir/LD8RX+WH4iv8sPxFf5YfiK1kEOB1rXuf8A9p//xAAqEAEAAgECBQMFAQEBAQAAAAABABEhMVFBYXGR8BCBoSAwscHx0eFAUP/aAAgBAQABPyH7iFK7UT+Vn8rP5Wfys/lZ/Kz+Vn8rP5Wfys/lZ/Kz+VlsDsD/AOn4qALoM5icxOY7TmJzHacxOY7TmO05icx2nMSk4M1/HJ/6fiofk+5rTX8cn/p+Kh+T7tr+OT/0/FQ/J9zWmv45PurRbPEM8QzxKeJTxKeIZ4lPEM8YzxKeIYvllfUShetrCjKvtFq7uUKGegZhuZTnENM+mtEC0fsJ4yeEnhJ4yeEnjJ4SeEnjJ4SeMiATjPgfWoCqBFgsQinvNCAyg+814UJt9vTweaUMyVljuSOjWo6yzk/1K0B0xvTwnT2lrzke0ZlSNJLAOoho+O6XQ/2X2dkDGSy3x0bMUvFJr6Xgtz0ygGqXTUKsTT3hBR0Sx+x8VPgfXjkIGa192sbbV/4GD2vW95iItOzw8cY9C8b4aL461jSdIPis0ec8Hmn5MAheX7elTIqmgtDhhleOnoQTVOjCpQV8v2vi/qMyJWBwbWD7UPFitSw93oeADTno/ias8FuSr2rX4iaOqoyaxrficPeYJ5hv5/Ad5pyk50a/Y+KnwPrp0kVSb9oYCdxe00uXmdd1ZoZQMfdL9PB5p+TBFxXjt6Mx94mjK7HpwwOvaG7Cbpfj0/5LMvVFcAqU6FQW3zButfRlroOpV/yas8Vuej/no59UzNVJJuk6n2fip8D62YEjiUGmyLE4b4WbD2lWnRydbuyk3oLWNNMVpcqbLXF1ng80ul5G7mUibM/MFG4649PRuI/maW/5c5qAK4F/AiDBb/yD0xsrG/naWkET0vBbkKmZb/iWp0Wque7FIPAcgH4lk7YFq47KdCVnXuBLyUNhz+v4qa/Sfx5/Hn8efxZ/Hn8Wfx5/Hn8efx5/Hhoy3dU/JCyA4wQA7TSAqU2vLL3D+ZweOg9EwTNeKplznZC9XKxy2+kBBX9xP5c/lz+XP5c/lz+XP5c/lT+XP5c/lzA3YjgWX/qX2d5fZ3l9neX2d5fZ3l9neX2d5fZ3l9neX2d5hqsYfkhoLZjZtwJg7wvW3gpnO70RhbZWxlx0RYIS1GJTma0tK3/sS23vLbe8tt7y23vLbe8tt7y23vLbe8tt7y23vLbe8fNC5rdPpH2xSWdgj66MLZahHUx7Wgq5tCagymN9I/jKSI5MS1Lbu0YEQRsnxn5ehlOYB+ImApk4ciDU6hkxQs78IqOyWm3+kV9sdWiELm4m/MsatViwvMQVkYjJ13JmzMJrTwW56b3Ft+txzyqmUrh7wJxzFUdPsfFTW6fSClXTi1Z2hsCz1Y0GrU4+Cb88c5q9IzBaiwUFxLgZyUlDq0/EtBF2BvDaMdvewy+E+EgLA5xFGk/j9+hMD52a1TZhwAOjcAc2ByflEboa94cWP8Z4H/YBJx3Alz9l4PZGXm8vTVKJ6hT/ACfOnityEFtMC6zW/CPtbkG2i0bzw4+8CluTc62dDOe0OUEBwD7HxU1un0uWNQA2zS2ZJAZHtriALWzEy7+kaS+whmlxr7SpqhLXbOLtBEEyOZ8J+Uxtzi30F3X/ALXpanaAesDAOFpFtTk6oFXAC9tBLabFSy1J6/B/UuU8dWDZkR1jSL1mmLLphxft6FKvM8zX8zVngtyE7oFy7za8dm5KZTbRUY7x1evCfAG76/iprdPpaPclXez194uqbezjd18Si1t2pxrV6VFwzEHCipr1OWKuGkstWlvMK6veWALbvPhPQTM3SFfhgGe8wseYI5Nr4HVnlp/xFVV1ilXWJHC371+/D3l718ix1+wLKqOHeeM1p4LciF6oQMzLU/nhLzIuzSuOnEZQKjDkLsPvLtuVOI1pg2+v4qZI+5mZmZ2ZmM0jjD8nptbBD9UFgXXELVvryPki/EsCnqlmcaiZ9NaMxQf3H3KqqqqqqocgKmpOZnMzmZzE5mczOZnMzmJzM5mOqtp6BQTBxZcUzoHViungLFRVrkrqSrwuJ6UO0PD/AMQXHqzv4B7tx9diEe0qirC/2/qBMv8AMPP0kQp/cTnpz056c9OenPTnpz056c9OejtnWprdPpANgADTL3IM6MoC7QXesgt8bNfuNyoysKoDA+SsFulPc2ht47YPKwGmu/p8J+U/JMejZdt2fnkrnG8ODbEUs5MGnBYJL3IWc1RCt7zX5MY4vtweo+A/5AAGNcUflmOq87W02T9OEAPKFQZQ8GvxEAUjSTyW5HkpybBHt/oFW1q0POMEnVRhwDgwePK/n2iYffDQNVW+scF0CreY05RwiSohqoaVTNGXG1UVv9HwU1un0knyiDTD2Ih4GcVcpc/EYi1rniqr5VwjVKNrKiCwbFqDTpb2N/3DgZ6uSYqVqqCsz4T8ppOsCz1KPj0Ma7TmFWJdmFCVOTkaFIEl1KoEF1Ku5HNu4+VKddUvka+alBXK0J2r2cd/RWtX8qADoAd08luQpLcG4y+lCNn1qv8AYRYaaiY5JTkhqu2Okcf7EKFBXy56RaAY87XBpFWqShCznnHOuoKprf6PgprdPpDk5M1clmD3lBvjWpLxBADF7D+4qIitq3f+StwVzAH7YK21IDaXSWQspnwn5T8s4iho8tGBUFYnGIo+1Y6qc+NJcNSATANCWore5wIwFGzycXFnBQal8fZ/LBKL15GjDFi5/HZc3LVXFUiAWq8JTKL6r+PZEOLTqs8lufc+Cmt0+lM8YaQc4lQAFfTpcMi+yW+IdFoB9v7Hb1fE1e0VtBQ1NIAAKDBPhPy9HHOv4gRBOJ+NorpgUkZ0zxt/8TXLHV9CsE4GNmWGTbmOh/HKNrz0XtRCsc5p6Bw+WUCItu5v0mtPJbn3Pgo6Tn/M5/zOa95zXvOa95z/AJnP+Zz/AJnP+Zz/AJnP+YZ6aw/J6UtpIU/pgGbHL6ARY/kMVQRuTys4XD209Zxo/sJznvOc95znvOc95znvOc95znvOc95znvOc95znvAADQmp9z470C5bpD1j0a7BKCvu/xCJQcfXoxd76TX0VsqgOMWwDqHVldK2Zxyedhj/cfS1fLJ9z4E1PpOsPpxYoYryPiS7x0xFzN0pcQV2+Y1TWmwWBwSqPDeJR6NfxD8qG5bWtKrncPgehok+Oh+WD/igawmFAoCYQ3ZHWiMLRPwCq+ICHUivV2ZV1y2Md21fN4TwS1ILg45OGqBSmziRLKYctBRsPDvc1pr+WSINbzlRdSr7B78yHhOP1NICHOs4uV81dFZuc78oBaw+y3bn/ACMLhtwYga5VHzejbBkfKl+BxiSwLqiwxt9HwJqfShFNpZ3GXcydEqQ2mvwstuVf3NcBLRZXG2scxlhE8iHhYtybLWRgwDUBgJ8dDS6yk6idWH9eh1yt7l+EF7+lpamPzNDpGE4h9x/kIm8b3sccXiO+oO4HsZtVaehD0N92a081uemfyC1dIfSmKESq95hVvhAJ+4lzWKnnKcLlDlvVveKt7LMlW9OcFFSgA8lYvj9HwJqfc+Oh+SMRQmfmgb2YJgIEKDQWKTAWrwhDVNt3FliwMzV0dvZBapaMM+c9GgkFEGhxWxOLUK2OBNaea3JYyLvVStiRZbQa+8CSsgVZyHIxCf4GIuxrSWLSdawdNI4+qO/OKDQuti1+IGSDqPyZjCpurNL6evwJqfc+Oh+SM7II5GMtpXd/iDUjsfgmmNPQmE4zeexlZXbP+p18K06bet5rc9A8eje6UGHKzacstYZqKCDb4EQ3hapO8Wl02Wam02+NQ02gSDbUevwI4JyntOU9pyntOUxyntOU9pyntOU9pyntOUxymNC2voBJyNAcZbxM0L9+0prZuy16pg+5FSuDsNx9alSvTWjF0fsJyPicj4nI+JyPicj4nI+JyPicj4nI+JyPicj4g2CT430IlALV4Rmb69uB+nUwAMPdhMwLE4k+A/Kfkgk3iTn+JZ5KH+Y56xAhcesrK7yArk6wiuDq0XB8yS6YAcyXIj25sUOMAvscJy/omoKks08xitCKR4TWnmNz0yw2q2/S7hWs9EW9LH33QJ9humKhHcnuw8qlC4re46FNQg/CEk6xob4fo+BPjfQcl0w17v1BIa0Rsq4EGs5blqih31pxoyHKD8Wy8zTbNEUi7c2uo5NY3kLw26XnfpFKK8eYBv8A2eE2TwOaOfqcKGq3OC1+D6UyvhZrkHAvHSGa2M4g4i7WK2f8l+IIKrnrk/UOwzvbBl/JNfhqqWwdy9Yk/SgQRB0y/EfIVxzQKaojmJAoBddH8TWmv5ZIULr4hj5iEYqpreLI9y94/EhlGTVvHOLDtR3biO0r1pf2xca/c5idNbvchILGaMtCUJMhSszrX3zj6PgT4306yNEy5qgF0i3eOp/OmXN49enu6zKzttFc3WDTCyLZtAAAANAngc05U/ZNni/HQva3oxjApbjctinRiI4T2C2Etoti+wHY7I511j1Vf8l0OGckr9QmsWLqyvQlDyyaJAHXJKk24Y4NNFtaj43X1Nf2TWnmtyKAq0RSDF5AcmN2crL5b4RMvrVIfqXfeWEGIWZ7VAaNkt92JUF3aKBGukbRs1rfX4E+N9zwOafkjex/tz/kY7FK9ENucRGmXF9RK6vhi+otLTyPwR4M9cuUyU1juBCRtyr2PTTnRVnN/iMrao8Wa01/LJGN1QjKlJBwAA30ikYRWzi5vm38THKpQXZRxuCcwIG1YddSUmZQvTlL29BNRVtUjaIjxOdOEMvBAfgK559fgTU6Tnpz056c9OenPTnpz056c9Oegoaafl6CfhtGSYdDg69T/J5SJaxYmHA/v/kxo+tBBsUeU5T4VL9NaFQC/wDQnM+oHMzmYyR9QKzmfUDmZzMxJ2jpOUnKTlJyk5ScpOUnKTlJyk5SK92+gIqIhvegFytmc0fCy2IdL1e8bnPROmb96yS6mOSvi46EtQVGVM1ozDwScpOUnKTlJyk5ScpOUnKTlJykVhmp9H6weNI4k1xJmsZr5mH5wwckYcWG9yYHM0Z5FfLMNSKaVQVF3xwhPy8e26wrxmmba9WF0858dD8kpJMB1hsTnNf+TN/m1xY0neUEKyhtV52ZrNlp/HtFxyIDS4H+sxHoLQtcHVYhKdT9xhgGmSU6JqSi1WmtPJbkUBVoItZMKD1uA8mpct8LvhMBiWY65zXCaAedvnmDUwuGqdsPTdSpnoUNa84M9juF1Thdz6PgTU+gA9mno4i/FTA2WnRV2NHaVJyLFkyHS5cGF4AAH74zV6IBalHLB8wbBAgHx82yLHp5y/DHz6fHQ/NOCAnXT9yhJKgX4wurnNYEqPGU6sBI0ZLsVd4TWhT3xEw6TdInQD/YRX3VZNm7rpKCUddFrK+IEO6cBUKBwCzNdwOxZo6p5DchtoXJwsqB5oyJ/D3IhZFUUKOJt/McWmiltRacpSlQE9geWvxKhfXLNVcL/wBl3ZA4HKq9JVfyMuurfv8AR8Can3Pjoflj1Vm9h9K4PIxm/aDZ68NFaPaCevpENPOUf1x46V1N/wBR0eijUuSdAL42Qiw4G8uF8aS3uzyi9ZQO9a/MVtnkNz7nwJqfc+O9Aoy9piLNpDnvKOD3DFRPDRR/2OIRavojttogpR6la/ZL6r5Ws0MswH22nAe/peQ3PufAjpL/AMy/8y/8y/8AM86nnUv/ADL/AMy/8y/8y/8AEp93jD8noHBnlDf94KC22+qvUj4mhVyRiLeJD61lav8AQl/5l/5l/wCZf+Z51PKpf+Zf+Z5VL/zL/wAwUDaOjP6U/rTme85nvP605nvOZ7zm+85nvOZ7z+lGtrePoF/lNLjsB7zQVstPzFFZ1dR7Sn8Hot62fzXlGSskQchdD2uPxu6xhWRlj6o/0YaRRm1W6a0ZSR/cT+nP7M/pz+nP6c/pz+nP6c/pz+nP7UzZ2JqfQ/qqV1m3VB41LFoYGwzyiu5ZHTWs8ONJZ9AZLF4uTGjDyXpN+3fWWCPIhzRqVhWNQvF6GCrZrp19EzXK58dD8kw3uR2OLFTZCigN2bCIAgKaHSMCNgS1cntrBsrouH/UN/j+llmQGsSnqm3APea5NdCF1e7wIb0AmU6EoahXLI/bMSEIvNrnpCTUlM8luTHE3pBLlDYLNckJSF7kmxvPFvSovHkR3636ig4ugKVqzrxqIUYA8pe+KNeHOLgvT8XaL4U6Xoyph4aFFfR8FNT6B/honYT3e8E7RnHR0dOUTWIDNxvXMu+MVHJwvOrEv6SmjdrXzMtGzr1sbUrGIhJwBld29/T46Gh1mbevcYguBXNhTDXvFqHCsX1OsL0RLmzSnhorpMjixdZxOuDuR0G/9jjbS3GCu2uLGh1LnHijNNc2eEa92wljbBs99Y6beb8qcjYO6eS3Jf8AGDcjQBfaW7HtUHWRWFbow9gz6Rs0irDrdorN6YIxGDFuw4/iZwQZmMC65R4N4GmtfR8FNT7nx0PyRs6HhuaMK6SwQ3mNTIVW+8QwJ7+4XRfmVh8PaG0+QsMrzdchfWumveZMgaY6fSkPOFIAr2Ivqe57L8HtNUthnktz7nwU1PufHQ/JLvKI4m1z/wDE0d+w/EUHbVLd01RW8X00hobQN3+xsGSBzf8AwxtS7kXtcY4ApR7Bw9swFYll6vdmtPJbn3Pgo6TnEcwjnEc4jnEc4jmEcwjmEcwjnEA8HWH5PRWcIfxRfH6Bvvx+GkVWp0/xl6HvZXprRMaP2E6MdGOjHRjox0Y6MdGOjHRjowAAaTU+58dD8k1jSIRWg0f0TKzn/wBEfb5Nr31IghNI+ib30CHSHj0HVmnTmWfmZTJaA/cq+Sa08hufc+BNT6HKn5rg9neFUR1BgmEbzfKHNndq2n3mlcYEkdjVxYeGkr+kpHTtv7azLJCPWhF5HTox9qb3TWnT5hJZmrRayz46H5YBdn3whwyMulpsGNXBFrprMlQ+COYrMYTRzqnlKM1fqbR9rWXPHuOL5vEtOvCBV8UOhpxl7SuOOtVltQJQdHZJLLMm1SjwdG16neCmTyW5OftwENIDo4GmcwoeGeMKi8qIiGmOsQ01bRohxb68p+ZV9Hff3lrV7WoCFu7y7/Er4km9Yul4+YAx5KcOWXjHPl9HwpqfQS14p6BMyzwgxd3WVxHJ9y6CB5vm8xnT2jASiCQO1uIHcIK2e8cdfWK+8MalG9AKJ8dDS6wlqCdcP6mv0hR5x0Xt1W2vtEgyjrJ0pvwPGXLqY/MXDpGF4h9w/wA9FnLjxsHkFOavFkNLDBNcd6laYgA1K+7NHVPMbnoozYAG9DUF1e6GTjg4x1pxj0E4dYUJTSlTnTmXhQjEXi05esuZgNuDVxrwlG54CtrXT6PgTU+58dD8koOGSESAOYpWkGgE9qBXeEWZYX47sZ6GxCk239okq5NYrMmokpcArUcgRqMt9OU1p5Lc+58Can3PjofkjKyFTzRVT3mjDTvNODsRsTB6Nzkzx+oOH2lZ6wg1ZOKuOrZrTyG59z4EWhZ/KJ/KJ/KJ/KJ/KJ/KJ/CJ/KJ/KJ/KJ/IgLIVMw/JEAFXQjgjGjcxbBsjzyTDts8H0ZUEHiuNbIG830cNPpE6+CTlxy45ccuOXHLjlxy45ccuOXA2DPgfWbm7fQHWVvcq4ulxvzgzi5ZUEINYFl77eng83oVlzsiEGTNtIACgoicI4cTEP3x/fCCwagIb3AHFm7gDt9togiJZC9DJo5KRUSaDNaeQ3PREbWM4dnaCXIleDxgAOqjYdcMLLFmnb1OCjWew8YkAWmxTsxLk0+3r+j4E+B9YOauxJetY0iilFabVVNMFQyjlnT9mOjNVL03ZSOQM7XcukqbmtJ4PNDhupGkcE6aS45ADij3GxL2fhClwZ4QuwsRxrKrVDXmzZOfZhA5mAcaVyAv8AcBX0WYmx8HpDDgkaEr7i6iA/sEYWWzhutVSrdVPrp+oaDnPMbkrmAW1MTFcg28Ln+ktp1TbgYNVwiekX0lxHaGjW3JsOdUcqlIllBxH+tfeKvZpj4FC6z8SsqNrCGq4qV+j4E+B9aF5XrKAGhUou6LlF3Rfp4PNHhsY0ninXSakYffRGs3CCtOZbz3hyqboz7EBI2YhzpRuJX6+Y8guiYurPKUynmxh4K8UzTrtYGLDFr4bS7thPrr+5mnOeS3PSi7ouUXdFxB1BiDqDEOoMAaASi7r6PgT4H1oAsdqqBmJhReNi6o7RRoGPYO8s7dxNi2+TpCeANJ4vN6FJU7ohhxxbSEC0Jyi2ng5mNh3D9cYLJuKhvHBOJC28np9t5YADdicDgcvd4xESbTrNaa/lk+58KZo5TzJPMk8QnmSeZJ4knmSeZJ4kniSeIQeKaPyn5IkERNGGEYodhTAPdWCZdtjb0RWQeCouqn3m2jltmtEUPBJ5GeZnmZ5meZnkZ5meZnmZ5meRhojtMEzk9k5PZOT2Tk9k5McnsnJ7JyeycnsnJ7JyeyUOXX8p+T0wAWmYrZffI2PzFzZGp+5iDkx6LGmU0zyErpzD2Y17SzWYv9VLZHAxrzD+yrtjktD6TOi/3E5XbOV2zlds5XbOV2zlds5XbOV2zlds5XbOV2xWHEmt0+jSG98jeE0cNxOGiKKcOIROrFxyKcJaoILQmjhgqc9JXq0C1jTjKJjJuM+E/L0BMoTgVVGYy/5yhRGtzMNc+0EeBWOeZtM88vMcYxSBTtuwr1+d+K6flIPcko2Xr+icQ8KkS6vysjYH7mrXrZ691kwU8luQEQAWrC0qTCXkQouNYmmHMCKrVjltW8Gs4HSdF21lJlCKS3p0M0FdLXROLFANPo+Cmt0+i0tAXWaLji+I6gyCiaK+xAGFStWZKdXixF+qMACcFrXjMfLwT9paLCBR5qCe9xOErg0jxAdT7QA6Lzeip8J+UwTAx56+wfuEebVkq1uoPGoswufIpDqEjt3WayyC9LxYVKKZZdbIN/Fz4P3EQtMudr8IigKKSG15zyNYZ1puwh6uWJ3VaWH1crEYdW9NpU0VCO6eS3IyKLdcyoEmqGafcQcCdrAq6c+89vbEGri/7HAUVhDgdV9mdYXswxxrWvzpzmdQqystkcDS9IhDhQ4NVp9HwU1un0bhhJw3NT3lDBWC2HTSLzWHhQiwhKuqYcbam6RdpVygOVqc3DSVqnFo3XBrR6zENUufGfl6SBVdXZYv21lmNsTDAxn0MqgmcVG0ftIgU5nBKzH2k4PzGAp34B81E6gYuCbXez3Ih5iN0g1v4jjQ2PYA1y8Id0mjUtq8SYo3HbuMHYPeJqQv3bnktz7nwU1un0DguSmo7KzxSkA4ZuNZR3JGM0U1luOxRVhveXnMCq4FB7QyuVCYsVa9IKokRCm+O6ZXugT4T8p+Sc7cZg0ExxbcyX4HMfgiFrw69jVm44MzDGkXivhaQHnXhcjie8u8DkfxCtE4jbt6viMiWbTkel5Lc+58FEsqV/iV3dpXd2ld3aV3dpXd2lf4ld3aV3dpXd2ld3aZ+vH1Bnyo36u0U8XnNPRIIiZEg2i7fy/2aY+b/iOrpqNHrxfTWl3ev9CV/iV3dpX+JXd2ld3aV3dpX+JX+JX+JX+JX+IadhNbpP70/vT+5P7k/vT+9P70/uT+5P7k/vRLYrh6BijKjshtYQ6bzVryofmF3zGge3GG9jn0v/BAhPpS17TTxzCAVfaffaWbNJrRV4GScx3nMd5zHecxOYnMTmO85jvOYnMTmJ8Ka3T6cCd8wYL+YgOlKB5ulUQxBhuOFqHvMGUSlKi0yy6xJogdejz/AHDEeV8+Y6WIT4T8vQKChnbDL8Sz5J5QMqqAHFd44xQqZSxsUR3lQ1vy0N1cUJ/SB779/wBR5nvB5UqHjwdv8gK70lyrRaKDUJUIpQKatEAzx4yj1B1qXwwiaMoW+I5tJqTyW5Lsr7rYLl0PEuI5uizWOc2LYaumippaU+rTdPmIJnQs2xxou44gLBTBSLz+GVUtpdtF6P3Ai0LQ5NmT6PgTW6fS5uM8vgTDqEyDlpq+8zj/AFNpPXjWsLRwNzFSm28ss0IcAdLznQ7Ql6SrpwazkgABQYJ8J+U1o7uJ99Z+rlwyoVR2Dd0hqpIZAhB3wtvFYU/8dA0Qjuwvvs/q5xx4HFvsmIfCrxW4Gh3galUTVrngcV0JQNbaRXIBx4zAHN7pp655rchlgUjxIt2Ftw7mnaYvHcICCrxztDYF1SYEqrK1neawYalMFAGjRGuTGNOkCnRGfIp0doVp4OBrFHTX6PhTW6fQB14DqVdUa+8pGLwEpit4zUPazdsozIWApuhMpjGVwW/yGKduFFpbhnsjCtpa2JevCYEqy58J+U/JAsvPXcO0vmmUQdTBmOtKu2NNatZnTBLC+jQ1YTZylp/w/wBhyNeMwxkW6cBlkjL3GrisyZbahsurMveVFKXQOt34RGcLB2Gk1p5Dc+58Ca3T6GxTPiovWjQnyVuETAwZLrSjE1nq6I2ZOMsKpatXqiCvo1NDS9/eU0uN5c1uaPp8J+U/JA2nhEKmiF+1C03iodqZpwg/If4jCe0elOxBxB04HRmlzc/8xm6hpgEu8vS8lufc+BHTMqFQqFQqFQqFQqFQqHA9Vh+T0yzLaN37oGYiWNno0FuID1s5HzEsqPP01pnY1+wl7ovdF7ovdF7ovdF7ovdF7ovdF7opStJrdPufCfl6KG5xmZ/OIG68CWKTey7sWp4dn9gisqBvzLxfCbgAzMSouqJ+5lqkcrHvKfpvIpzcekS+zNaea3PufHmt0+iwyLUeCX27oGyHSRmgxrBH29zaORs4lGL3m3OzQhHdrMDdXK32jWCoKKiA9tY0gzXBqbr6fCQxtDxtJbhw71E5YT9Y3Fq8Z4MolGbFKUXIrOZrVKAAOctq6FrMqHWzdadn8xLb6S6IvR4r8fMZIdS6LVRyEhDCeyI3rYWgBmGA+I1VARwVz8kV33nmtyc3xhNYgG/5I5ph4MxaZ12orUO+JlyfeYYvmGN8Y4bL7+8LSu6CGF11fipcao3CN4ZXg/T8ea3T6GY1dOeh1Ic66BnrdfmBsELwCcFG2Hu3EaaVW2nV0jsS2W0vG3Fl7cWXhZ+PT4SGSmHP3Jh/UPJ5piHVhq7HFmbzlZXVVNhoNqmT/cmV24cFGtxKOKHS2Bkwc3WTkFfhg/8ABtA1KHIeLKQVxosJBtg2zAAB5pOPcL05RZLQOpV/EFE5E81uei5lbOhd3Q9pptpS+LitOMv/AAQpW7HWAjqh2U2smcWWOcxWkdqjYOrzeP0/Hmt09eA43P7QEu7VzZofwhqKqyDDOYmmcme61i6219ivGlMyswauobxzrWoVl9HXqVGZxnTqNI21LmjafCflPyQRQ/bJDxlncjubnpqX7SBRyO+V1gTow6lgfjuOZOOTI4cnZ9GhkMTl/wA5zNmP/U1p5rcnZnmgK1qmqPI8ekGROrI05zG8XFd14VNi71wcuFxdFlsFtOMLMeaaQ4szjfBlvUdrA+6X3evx5rdJzHacx2nMTmJzERnQeKV3JbVXeQzmJzE5icxDVxwflPyShGJWlZBaErKjkLukENzTQOkyuu70J2d5zHkxcuankR7hFmq5WpSD0vBbk5jtOY7TmO0dHUeKR7ktmw8hnMTmO0eJV3WHtc5icxOY7T40WhZznec53nOd5znec53nOd5znec53nOd5znec53ghFY/lPyR3h1xEFvQuDq/5KCBqH8mXFpNV5mB9LBFqIGU6AWznVVVfiLdC+ZAArHpXKL/ANCc73nO95zvec73nO95zvec73nO95zvec73nO94qHefG+g/kW+gIQetX2iwv6cXzZVLaMGYk1Mm4zwOafkiSxfvH/seySB0t1ty9A4K87fVhCrW/dw/JMDrB/2YC9XD3oGwDAv3vSl57BQ9v9RNDzuCTWnmtz0bEiykD0FfMFAQM5aNhOEwmuDXligs04wEtF6Q5gagf14E010Mw7xcAu60G30/Hnxvo10nglqG+/tLEIJAK1jrGaEtiOqN606EzEIbQe7Dy49la5aNQvHjGqSgVFbX3VmW9Ikv8Kqr3gQnD+tPA5pyv42aJ8NSdqSt5Ii8QPFjMbeBtoVDAIH4lM3MdBopQayMKStr7ge3ygvZ9wFP0SkHEeQX+4nWicBeJHLets1cbSYBQSqyuQhKlK5p8StrUh3VR0in6I7DuE81uTkH6BTDDIjFk8KU8qDWszNCCqlZeeM3SNsE0I8nV1abe0c1a8SjA6wMcMszlZ6afT8efG+54HNHL1mJO1KcQ1+TMI+m4AhqnC4u5pq3cVy/5CgFdfSORzgGMRPoqt3/ACHuRQ92nXL+4tKqJuJT+DvBY6G1OLK3u6SsE0mWEwVYnzNPnIdYHiybi9QA66l/NQUbKnmtyKBbgggk0B035wJtV1MXggVnWit/fgaHAotdqhpwvkiZ9B0hpjqnr8efG+54HNPyQUYiS9z6Dm/I5a9YtHuCMvWzyYrkawJmC0XO4vmkZe2TmyzeL2JszbQ0i+TozmRkAhGlKp8e78R+y5u3i+l5rcgQKtOOkWG+r6V4ZaEpDM9twBr8zIQAy4YEYZKqUArDkFJ7pwmKbWOMstf0F3K8BZY4gv39fjzJE8jPIzyM8jPAzyM8jPAzwM8jPIyhi6MLQrBdDPvAgSaJg+YrI+AvzzHbJbMhPg+SHsMScB9ANguc74c5UkTw4zir3/0nKeXOEy7y/wC0OC/LnEiKLpePWONT9xOl3nS7zpd55mcvunS7zpd5yY6XedLvOl3gongelpaWlpaWlpaWlpaZdPDxukAXM1BekOW95m0TnNE6+mi4zTxSeZjbQSEJ5XZNbwyS0tLS0tLS0tLS0tDSOn04Ju+m9Rfns1gU3uuW6bgDBm6NyC1831UD5Ze57GQXRKUugzG7AiASxyT4uHjdJkR0gt9odewGq9I08qBV3VNLHO0x0zFt7xn9SEGtaGsNUyXm56YflKWZ5Lz5NfaBUFVujtyeURceE87smv4ZI7NhcssTHzhpVSjHyUYONG8tETa7mj5YgBlfyrxFKt4ml2sH0pnvCMiCXkr6TSOn065BDtEDUFwBWepBoFdQcT2d5b+SZIvIEKekv7jTTItNDW/bSH/FKuhD04AJ8XDX8tJ+Ocow1gOOOFHGKMWtqugfCzTaoekkIYBzwXsT8s4+sGbzlP8AXWSlXsOeJehAMSwQ6jdFBmxE0sG+NmS03NHpPm/gmv4ZILA1SLKMq8CDPWER9pQGMvnGJnqXjZYAlJjSLB4eZIzoNeXSNdbDcy6/x8xjZFKK6vpNI6ehFsAqyVX5h/TM7wBZx1fiPissbC9mccdytG8q87zag6o3xkFg1ddeEAkjs4gNDX+RgmJt1XQexB6yu1aMPeMGBAHMnxcPK6SjXSGSmslwows4bTTUz+lISsHBSlVe7NMdWH7ZWnx0hkOEO4C2aHCUo9ajNSmxD7cphooAYA2mnaaE8Dsmv4ZIx4K/whl/Qjjm5C8R3AE2GOX/AGKUJHZ5tp8Qo5S80dWmUArNjrlTQyacYIWlLQtk6cIyS+HZAA3qZ1NpXI8yodd8Qk0INW7H5PQ0jp6VFjWAjDrpM0Ea2Fyu7rlHFQwBwTSB7vQIcrcRIisBaXXF1DreqmxSJheUv7Wd2scNsABdrpzk5MqsyHV4FHww5KMHInxcPG6S/JrMwzBTx7Thj3Y3oCDSVlC+ZMPHtDNAleXWeV2TX8MkEGwpmuwDMwCqS6cRNZDJaGxehKzFQ4KxbRpzmEpvTpVwlFU4wqWuW86xXQjk1XWAWJxTo0I1yjUomlrmOdzulr+V9DT0o2lG0o2lG0o2lG0o2lG0o2lG0o2nwUPG6enIr7cvtDUDbkA7zzXz9HHIv67yuya/jklEolEo2lEolEolEolHpqet+l+lsv6Pj4eF0lNShi+HeNUK5yX03gutBR+oqqDgV7N44I2mqv8APTCM454S1SaSi8uPjMNfbgXvDhtA1n5nSag0nldk8luS3eW7y3eW7y3eW7y3eW7y3eW7y3efBTU+l4hdKMGD3+IMbZATnkDzYFlZU6JdDOM40lbSA8jwZZw9xwk5GuGVAu4nRaqc+8ClCWO8+Og6a6f5QqrlPI/8hUNQUA5FoFkD7CoW27FtI6UvWjC8HA4SjpfH2MRSv4j/AJUe5dQ1Dw938Mryu1sC2FxvWWbkJ6iBNWGV0R04nbUE0i0bNR3vcp954/ZPJbkAwo7DkXG36UvWtomaigcA66MFZ34SvzGDHLrSApDpxcsayg55AsLRs4HH4jV4AWAjl1ytpexnQGCtvo+Cmp9ODmnjeVF9krCCmv8AsXbbbMsq6y4KboGtTuYizLv9vHbbSHJj/wC+AhGAAoJ8dAKBri7EYrqQPiW6G6lM8BxeEArZ/tShqp3zMVbNVzbOhoAYzrEEOrVC3uiq7EMy6j2XS5INR6GZg76xL0TY4atcasLHXYjZB296YLWr+VPJ7J5LcgEARwkbQUzy7SupuoB0zrc0bPT8W6gPpa5gquHIxDIVMdGx7oCroi5Ucc3ec2YBz9HwU1PufHQ8rpAIY64cP1MLuHq3krLWGBzhvqzhHSlTa9uUvETUn/2JWXHcm4nyYE6c5cDiK2cejEyqU1V67zDrK23/AIHxFDH1Hyu887snktz7nwU1PufHQ8LpPwZj/wAlkpvBmI674LIvkOpuvGJQU51up5+mmdIsatbB14PuQt9lAveonNmfuWO+U8rsnktz7nwUZ4CeAngJ4CeAnQ7TwE8BPATwE8BLeDrDxuno5wDT9k+ZGKHZIx2gBA0T01KhJjXmmpC3IOSwap+KvuhSWZJ5XZMqgn7D7lEVVRFRFSlaTU+lCIAarH5JqmEtgdgM0gIB0jrVADpEFk9C8vp8dDyukevwwRWuMgxiMJrmGKkeE63Uh4tGuGNyGyKo5IDXUBzQY3EvT7cfeXVV0w1WyKbvpCrHE3i2nldk8hueiYRvS2ZbA7AQaWtF1QAQ3dXpz/wMBou6v6PgTU+mx6sRQ51PS4z+qWkKarV5tlxfbXA7TtoHDWVHP6lbHaUxrou1fKYj11ImLIE4c4YwgDTqT46BO6J+CaMlub41AiIUYExoM7ukzPUZKlsBhDjGLlxsDAL8HFRjhB+1FuP/AH8wOnKXk5/FymGrp8X9TK6xibbJ1LgMpr//AOgCuMWuU4QhBNqsBDFONQuBoK4N5+Scv3eSeQ3ISlCDemIp5m2tHCK/hAWamswrcbr5mHvH1BR+T7yufo2G7LWqa42zEyvsfTXQvj7TPB5mWXy0h0QlFBNdj/vf1+BNT6dfqhx8yrxxZXZ3ltw6FC25on7Df7tYsR+AGCRqqM4aZ9PjoVpwHwQcCfdNf1Kw3YsTUdVkZoli2TG50OOtQ7O28KW0xwOPR0zMG4p7KqWg/Hp/yYb63XwwOXXSsQusauSyjs+1zmXI1pJLNZZmCSOpViFrOeyTyW56ZdZbZLvFFJwYNl+8zQhQDdMTfg0e8EBdFAG1RUJqCrPeolVMGGtvo+FNT7nx0PG6QPZSrqwGrMjrzPR8Q78ekVX2U3YG15L++8d3J+wiBuKRx6j0W0oY3PvsRPaPOHaeV2TyW59z4E1J/On86fzp/On86fzp/On86fzp/On86BLxMYeN0gpNYMT7DtR/2BKpDkoCPe8DLlmGT9bHoaDgLU/5NBHpSf8AYgt2R8zJB6224RM/nmzyuyBUBf8AoT+ZP50/nT+dP5k/nT+dP50/nT+dP5k+FHSedzzuedzzuedzzuedzzuedzzuedy11WMPG6QAmsWPw6Iy1/kEs0eICaQvWu/7OquNT/T0d4i3XwcPdl7nTX/eUwEdEcMCqZ5XZL+t/wCxPO553PO553PO553PO553PO553PO46dxc1PovB9KugCChEbhfpiUOwqPsM1Is6VsN/aXf2LQZ5XrLk5tGoLS8HGkEjMwJ4IKgiCNjPjoeV0ga6hnR/wCSnsLT4E1Ir+Tuh4R5L7K2Zox2dOUELud0OnGZmBh0Nhw9LaS5uK32MDYFuBnldk8luej01QEvWoeIqI6m8surLnMMTkO8QFqTOHt9QfR8FNT6FTHvz4B4xBZW788OOsokWagGp41cGIAVIQatdZUgt5tybnD3ZSv2fbe401lftDcw4PA0vdmy1GkpmuVz46HNQfBCyB900/cqtgzY9AnGuBzmsDdApwdDJK0hLASBA3BGbNPWOIw6eT4RG+LXYl09JOYP0mIGhl3KzUGKcEQaPgIVHN47As4E3ig4JE4s5CQU7rMC86TyW5KX0GyzWFWhRhwtYK3zoQ8sw0gOC4a5qdK4O01UEw7MSVC2fZgho4xtKud8JqNf3OkwmNfKO7o764b/AEfBTU+58dAmdA/BNNbofjUsGsPiOKaDhFlnKNjqUpVuUmsyxYHIai1mDx1M2H/Y5Fqjpp+pd42vuv5L7IPViXS2WU2FzDSVLTQNRsEERH4aVk1LMbR8iFXggPgX7x2vnSeS3PufBTU+58dDyukuno6DhG3uDnxzmGx0xcFwPyGKQ0t8HaIB1MBtDs/7iOcuvnLRbPF7S/7t/wCMcQtC3VmA5fiExAMUcCeV2TyW59z4KOk58c+OfHPjnxz458c+OfHPjnw52tMPG6ejm5dH4T806Motn9PeHxngego2Tn9I1BWjMHOZTxPTyuyM1V8bqfcVVVVVVVRYcCo6P1hIAeA+kJBEq8YeN0m3obr/ACIQLp+XOIu7ta/qZVdDHWYgDxw+Xr6ElPHOn/csqxtPZ/yHujZf+I1wGujmKAHlU5TyuyMqY/0PuAAAABB2V2mp9G9oDIZX2e0Dj5Ic2uGZlfY2MKWcNJ7ha+tXhowfaaRvZhMVdhVORzFXCzWW8XV+H+I7Y35JZPjoeV0gpcdEHH9zIa6fKRlZxqgFQWiZGNvotjlXqppDH3LAkKqmmnbM12Z+NoR6JjEt0uK90AyNQROuFllJtpAJwRyMpTVKXn/8jBGx/AnkNyWTGTYJhj0HmA/sEuDHrrZd1wmtg9aNmx7S/oiojsebw6oKni4L2rNzTxdtQssofZQIvCux+j4E1PoeQOg6rbq94Tj7unN5OCNujhZpl4HsEtgGFCpKwN2FcjNdRsOXaERsJXXhKqsOMUS1EgGoVhebmXA+wAVPjoNE1FXYlx1CHXE4vE/IpnGtaXU4YkVlLF4CZtuCn1cgtZma5riEuqibWUgBtTvsR3WYWgCWWFdz2iEBzToKjGgJxiDr0hsCoQWrPuxqupu+J5Lch5WwuSVAoytFuuDD7xCXPnVB+HGViSoBVWzSrnjNN5XeoUPjGuDVVYTtglKuayOFwGXnlCrS1gzj6PgTU+58dACx0f0wolwuZ/8AIhzEqVs7iO0H8IX1GmSqrhWkEcyArBVlBbWLbl863v8AAjtIqnPgdiavQt+Hv+osTbJVVXkaU1SpoSRZSnKxHnMrGeWqrXQA4GJSMgdNx/LOGwDsnkNz7nwJqfc+Oh43SV9QGOXaNlOzgejaJvsQD+4offm+w4QIS2Gtf56N3V4stzlHwhoGvfvCXTs/6Rm8ytXqx6Iqxs/7PK7J5rc+58KOk5zvOc7znPec57znO85z3nPe85zvOc7znO85z3gF2YeN09A1wmD/AJzOHHk/tCcqnzUNMerqDj8XvWJwtc2GFYzI/wC8+nldkJR8EnOe85zvOe95znec57znPec57znPec97znPec53gUVNT7nx0PG6RgUru9v8AsduM3ej/ALKKnvj+ojLTrPRghNUNb/ycIJQWzWtukFIP9zwjKi2/8wFZn6HnvNdxdP8A7PK7J5jc+58Can0OPdti2HjWAJOlLQ4s6xwKnP1Oj1rM4ynlgWL6TTxAN3jln8zNeyz2zD5rrgDiQWDal3UFsISVRNZ8dBCrofphq7e5Z4dsSyO0GhMtDXI4wHzGllBEJdKvSZCLQo4tY1cETrldV4MJfaF48vhlmo1m7j5vAnX9P+4FHF1lECtY4JKdmCGprXrSxXERjWYCdHb8kDhZPcTyG5M3MZ3ouNSOQBCH7lCvI7JYc8XjjiUpquNVX7/iE4EtbuPL/ky0i8oYPBX5MSlzjg05p0qpUzxhxDO2fx9HwJqfR/0/82UKXvgEauq4bQTlFeg3mLBC73UBU0jTafsI4xsIXu81lLiEHA/SlQ3hAuAaE+OgULVA7E4oAHXD+oM+sEoadZjpClCViobjrwa5Lqa11TcvaF+8tLUROXww4+hr2I06QRokWh+A6xQdYQ2hvegazJKXC2uMyjPOOFrl7sDqQB+J5LciWIlkxO7v9ir+ZSZ4IoRDFXx3hlmIA2CcR3mkuh69jHyBorTiI2wbrAbiHAqFmTg70GDGD6PhTU+58dDwukMlQcum36gHh9JHZGBwHQYexB47hgdOEz7fh43GYQZq9/5hjr6Nxowr4WwhyWZIhdDtM2LwY6AQPFrov/yACMH6U8xufc+BNT7nx0PG6TRAMnqorTqJHP8A7LaPc38MyijZe7/sEqOEaf8AfplopzenXzmS7Wnb6f8AImpWx3+YXQOj0v8Ak53Icf8Ak87snktz7nwI6ZnLjlxy45ccuOXHLjlxy45ccuFvRWHjdPRnZELdumFMQbVEVPo/MOLAb7lHt6bkpbbc/wDEJCTInGeV2RpdH7Cck7Tlnacv4nLO05fxOSdpyTtOSdpyztOSdpyTtDQrSfG+hQLcES6zgo7fS+EdSA92ACCsicZ8B+U8bpCCSDzGla/ic5zagD+YP3PZnLUS2uWR6pc4CEAtdofSrYw3YocchZ7Eut7EStxZ/U2YTVvq/anldk8huegZb0I7NZjOl2iveYvnEnQeM6GErd5hBl0zugBO0KO5HB9CbbZ2fo+BPjfRTpv7p7aRPwjfDQrOGdZph6RXN3BmuUfTxYIPDTNFc+kY6rZLUg5KuIG1K2KLy/Eo26rflOA3PCbJ4HNPG6R8DxOHF8GJq7aG605LXSjjFFvrtxkMlNHC4AtRPMBuN0zeNI3BoTb/AJL2ImmLP9/iWWWuiNX9TnifuIOp8DyhvYDNoFgha61wiQXwBZMGLKS+MDggx4Wz+JyZd5J5Dcnk4GPmY8PzpeKrXn7wytNwGTKt45xXp3WC/k6zImI/WXL9wW3RroMPV+U4oi3xdHdLIy6Mqtoxn6PgT430IIiWM10ZCPaGkzAtm7XGMqNcvcqCABwLu1rzjbzlmI8qtecDRdiBswAACgOE8DmnndI9xLBsWPxaaNfuI4cB0pmhVRiRVwCreswTSS2DRGaKLzmHdWewB44Rn5Wn4/csF+NSv1MBjgVXhE4K4aEwY2JogIdymoKtH9CgI4KriZz6V1c/5G4o57JPMbnpSb83Tvq4qGtRRU2vWJg6ggO+Z0pY17zSxkR0XpP6IpVTbGm2btav0fAnxvueBzTxukX3FpiYSN9LR0Nv9+hjOtCufwIIJmJ5m0OWyVLpV6E4RKAeI+Q9ODXA6Qrvs51Knmdk8lufc+BNbp9yAAAgAgINgjSHhdINNkLgjFS1VfkleW6UhHefTXZNHWLRhaMhFkmy1+YBJv1qHk0ATyuyFUB/QnOzmZzM52czOZnOzmZzM5mczNPp934qHjdPueV2TX8cn/p+Ch43T7nldk1/HJ/6fioeN0+55XZNfxyf+n4qGSmqJcz+bn83P5ufzc/g5/Nz+bn83P5ufyc/m5RGpQBpma/jk/8ASLegNWPZnmP7nkP7nkP7nmP7nkP7nmP7nmP7nmP7nmP7nmP7nkP7nmP7nkP7lInFFj3f/qf/2gAMAwEAAgADAAAAEPPPPPPAzDDDDi1PPPPPPPPPPPPAgSRQUXVPPPPPPNf/AP8A+/NFNCHDGa0w0468rAAHAk7LLbTYYVZIAAB8rAADSGoGVPBSlXiKEAF8MMMMNJhuCrLi+gNABBA+U+tEJpENuytPZQbqAAB8U65aM0nRXn3iMDb2IAR89/8A/wD+9BU0NhFZLDDDDDBTrXTwoErDIf8AzpwiAf8APFPiRhdBOJguAH/PPPPPPGsNKCPIV0gh7V2cssssjvElnXFBGZKcNH/XlPKQ/LX3278wF4YLHFKnOM7wfl/9/wD/ALzM7DMscpGMEAE8U8kj2sH0sQnIf7G0Ggj8Qwww4wCw/hAY/wDXLmjj8Gtt8NeQiZLFTv8AnTzrT8zwrTYxwAs6LdiMHC2n1v7Y56764sFLISUwU7769/yqMoIEwEPgpAzt3jzD7wygKXjyRDIXPhy+zx1zzzyBNPONN3QQMb5fPjDTDDCkeMbzVI26mCvAl+nLy/6iIXz30UOKtxmxi/kLVP7rFBTGVqZUPujVHMNPOP6sABMo7pBQYNHcF8Goo/6sAAOESKyBrwPeDMPdY/4gGFFGEA2QWGP0oAAACA5f1qi8s17dJ/Nu1CFD/wA8X9mJMyxSBjgYn8888888U88888TFXiVD1QwwxwxMX96UwB1VXZgKzxn9WMn+X9mxrE627Aw69I+qe2z+EMMMMMnTMN1BM++++++yX9OgGcTFLwWt7vTE/wDfwWuw5IIoh8AJCjIo/I4cgZDALPFIgEgFeffMfNP/AMBTyyx7wb+s60fOupBH78FjDDDDAJdBvhljFCUAvM2EkQw8RXoCdUAMoAMsUEIPRTh+4xJ6sMQ+1oelhAA732+196TFA4UK0+x488ykEImUJHyhIYC+gggAYwzxJRVy9SU0YPNOxwzxzzyFNNKPJ+O8ILsrj7LbrLzwJ6VoBYYNxGKEFULoof6ja+0xUX8XEbXOiyzXVv7DPPLPLUIopM8LjHHXHHCiYW2sBGvuCfsO0bExbzzwpff/AOW8pB2wD8888888MPPPPPdtaLgAKW99999woyJYmhRhtE8gPZjR0+r+oCWq+mG84G4DTW2KemD+MDPPPL1Kmk0cAHHLPLP+oG9cDBABoBCgrZPNE2v+pjH/AL31Hd0xO+Wv6890/l/svvst2IS2h4w8Mz1gvFPLM1iAt50xqbwZCgQT/kMMMMMFqOEH0SrPbffTcfPPPPPHgAAAAA1PPPPPPPPPPPPEQQECAA1PPPPPPPPPPPPP/vvvvvnvPPPPPP/EACcRAAIBAwIGAwEBAQAAAAAAAAABESExYUFREHGBobHBIJHR8PEw/9oACAEDAQE/EPlRmG3uTE7fpidv0xO36Ynb9MTt+jaEfS/REWwnMRf/AKvHOXsnJOSck5JyM6byeNfO3pMwzjOM4zhyD3XsrBMl1XJj2CGMrqWtl9khTWHIrSHs8k8SaIzvozvozvozvozvocot6OLcKRPFsdRjXVi2BT2JXS1b1+yYmeYtIhBiWtOnFG3zE1jk3KYouE6lZoeJE0paGbUviy8W8SxQkgoFvRQNu4RTWSHAqIli9HjLAhFoHK9iLMbGAS2T5ijpQoIFOkcWXha4yYpgmCYpgjjulex0fPn+dh1k5jcf1PdIqydL6en9BXGWuroKlfRmbzIlfKEY5jmF9mF9mEO7kt4GbGhOhISGtkzJDXsogoq5eRdbDE2VRnuh6fQJJbwLcRoTdDZLmR4kKOWiUV4svFvAyIYRidrkzWjXsZUyKE1JFJ5QOklT8BfRHlxdPkILyWrahIajKdJvMou8kJKqhM04svCNMzAMAwDAMAzKV7ITg+r16alBHkSnqM96879R/LUnpp9FNhYUeBpY9nkjewZDIZDIZRy0lvBUahJoihUoVc2OcC9lBtSpkmHQZVjYndDcIaOzeTxIZrwXG3gUCUxI0FQNDVuvYi5BDT1KOLdtQO0lVNuy/Ds3lHjfPmT5Kqxlq17KVhd6Iz8Uh6RCXWwsvidBVC08mwA8jR0iSSSSeF/AqRiKaSuOsOwGbCx7GBqxLHc0jrLWRzExNyVXeHk8Qnhsa8bxBBBBAlPl7H+WZaV0yAONlByAjZCyaNSHvCSEL2JI+zwhElvg0mQ2IbENiGxDYp5y9kSJ6UkJNuEJA620E3RZHYp5G7RLJJbJJ+DquOp3S98LPog5Nx3WGc2h5HjoE8E7Ef8AHul74QYnDlDTSg1G9VhDHVaEfZ4XwdSODVSMomqSJwNZcGObePZYX9pdsdEW9stBuPdbk1KHCi7FVEaN0Y1NIVSdSKNoK0C4G0hszibaRfwJ0koEio2f1BJAjaFj2LaY0jt1EeztIrNKafMdB1+gUjxPA2kJ4h1FN1kdMxCsI6BhMJhMJhHIvHsd12WOzGFW3TX6xkldN7jmE2u1uhBiOu5r5ZsaJe7m5Pk0GEwmEwmERpIYmoMwnxW5C4kzdyic3HrvHsfbE6ElqygTbdNjRJqJ7rj2byhO187+BJUIS9SQY7kA5eymQ5KLIXZMTef7waoVzs3lDx0uE/FsIZkRkRkRkRkRAeXsWpPro+Y+iG2UP7heS/abvVkYfMRqT9eTs3lCFXsMxmMxmM3C/gTtKpKYTObSSjrcUmvHsu9ZGgTCq5KGOSlD5GwlHUWLRLkQIraNUaHHEoqd1JNwwE8xJOJboOCq9YJkCFYX8CiiRKsZS6M6UeymG5xlYESN0H3YEe7FVqTprXmOLISuK3CES6M8L2Nl2JVmUIkbNLEKw5UP6g/qD+oP6g/qBrnRr2JhGk0UjmRp2Z+ln5p+krt97qv8EhqtkheWL4hII5kscKPlfbUSSLeJoUihteg8NoLB3a9jG2KS3uUtmMDq+nkhrUuunIcknPYSXTDHKRZ6BA6idWZGsdRcSEKwt4nWOAOesB5OzXsU7NIa2K+zGB3fbwS0qVXVYHiF7ElUQxyTPC9/FFgdQtTGjGjGjGjGiW9WvZKHvoOwispDXklsr3OKjKtOZ0EIpaPJKHsOac05pzTmiUKDTwUK6EMNM8hUsPHR9ipPdjtUWdLMZB2byjwhya/HTwZiQzsHi+zaAQVxW5uPZvKPG+aESvlJJGTj3XsXYpYqxlCyhvjV3oig963o7sfzKaeRdNoI7EdiGxHYjsUJNPB1NRwsdWBmFPR9iSnqZoXn5Cx3qbEQPUTQpyxU3thG59Cj2Z5R2oEWDTwe0TKTCMtDxfYm3bMcdBKyUSPsZnnKgUAb7KGWIC3itjwvfxQrCiociOVHKOVHKhpflex4Nkgj1uPUqlZEPDXJIQ6tnkQrU6COwwDAMAwCpGngkhCrljSvIkg8X2JUx2KGjYRJGaIpUtnkbsEU5EmolwXGwJMCTWg32KnMHIM3oeL7GpVSZWD1NxisRKG6QpUt4eSX0DfYmXMCxE4UQQyxxt8O6Xvi6KSXaEOsYkGHkiK2GgIqU8daVxdeGB3k7pexioy/AyhHCuLZ5GjoEVkSs0M2rakPhY+ffL2QSRBJ1oahQRHDyOTS0DwHdgjaJKhIwFCEIQhIaSFB3i9iSTalhMsoIcW2IISWNoWULfVmnkWegUEJFCEQuOROCETIkijnL2LRoa4PnGI2PhU14eTwohDFCJQnwSIiRIkSI085ey/aNXoRtt7SOadCFAq5JYxp7PJB0CBAgQ2IbcGqiWOeEU25sNepdWPDXj2MsaZCW5FEXurj9JubBPDs3lHjcI+N/AxpRQGzKXQ6QeyiU50G6VEVamJ3Y0Sdm8o8bhPC3FMawR2EdpHaR2EdpAeXslKN2a16ajpn0NT1EW1ed+omtvbX6Iri8poeXrZ5Ii3oMqMqMqMqMqJkv4KMNEm2xxmpTDy3j2VFEcJpQjGjkMjlW/AjHLpNkuQ5KrKUNDcJaYeJFmGBGbiSJkarXWCgCFYX8CcDZ3JDbdyStY9lAFHTI2thDLMsj3Y/KijBSiSI5QlpckzwvZJiZWEyG27iLAxE4P7I/sj+SP7I/khEocexYOjH87jOkufYSwbY/rkoTuq/UeVBWjdBB8JeQXOegyGQyGQyFCC/gZSfInbhjTPKRKJowNHsUxLOFiBhlLUbZtBbDZFWjs3lHhDIrHBcb/kUm9Y9lJBnLO1SOaOYj2oVRwWO3eUeN82oOBmBmBmBmBkmip7JamNkrrroVhdbcC/iRaOhOjqpWRPlm4qwPrlNPJCHsMLMLMLMLMLGlSX8CRU/25LMqPl3KaHSD2VQnOuyGk1DGU6y42ZmytjQiU79Sd0EsSyN2wcHJs9xeZFUCLBf8iyl49i33JKexHE3sriLoSwWHqMdohLkNHIFJFtytrZSeF7+KFYQEqfl/wD9DaqW9jmq6s2Qxt2iVehByEuthjSjd2LkMY8vCqhuNGnStiEOVHyv9tSRfwQFJI5a2LvLYgAzYWPYwdXJYxtvlb5jTuqfMalQxFa13Ko6VWwgci5b5C2tRFAQrC/5E7fsRn2ppdMYg8WUCN6ERsh2eko1oTJNtSgxSU39rHhe/ihWDSdzFwsXGljnL2NSMJSCEl2IuEUba8hoRI3UXKQzSJrZyNiWwxL6MaMaIdEYENKXF1XF3O6XsYr/AEMj74Yqf1ngi/UKR4lgRmUhUVRKqbkkxCs+fdL3xS6wyqGOY1QomM9XoLYOVG3u5KZWj2YDCYTCYCUPn3S9/Ls3lHjX/VQSmjr1Mv2f4Zfs/wAMv2f4Zfs/wy/Z/gzmDJuu3Q8a/wCqGmS0TZ/uD/YH+4P9gf7A/wBwSVNu/n//xAAoEQEAAgEEAQQCAwEBAQAAAAABABExIUFRYRAgcZGxgaHB0fDhMPH/2gAIAQIBAT8Q9Sa7XqttqJbOriv/AF+zKlSpUqA/Gz7PXm1TofM6HzOh8zoToQFkqeD/AGCYqe41AC2MyiJ1c/TYRq5ZXmV5leZXmV58Z+Qtqamj3DMuY4ovGsTEWgbadSn6vaJVdf8AhAGRZVElWyGL9mcCOjp6MJn5XlqqWWwhpblpYZtUtl73EdINblx+lR5YTjCWgolLG41PsicPp4TTPE9zPcy3LLcstyzoK4Tgr2V+YaHHygDTS2lmr4ToHcu21QLVyyucrnK5yucrnCYPhBpFCourjhuUPn/kbT4Ne4zZSSj4N7gG8ZQRmWobDU+ybEavT0YTB8MYhFpjd47UbWwKG8sdv2gQNrWBGFJfFgmyGfZE2Ts9GEDuOwnYTsJ2E7CW1pW0Lvz+IR/WBceZOeZiNx+wn6bBtefVVWJg+NDSBJDCZLlR/wBtH0qBDkzHzpq+oFsGfrs4OWEMRj15wfBRAW1iV0g3R0kZnSpOZalDljqXWq9zHj9dn2Prwm/qAB3t7lNrO+xL7T4uWc0GTiD6t4GYtcfF4ZmxB/JzNTvee+V5nvnvnviVMjwwCyvGsKdYwBGinDBX5G4YhQ2LIYbND2mNSLcRHvBenlhRUbp2bQoB8ZTIlSpUqVB8D/EyNlptGUXYKjvSWOoOLRqO8VpD3rAiql/aD94p3mOYlxB8ZMQZRxKOJRxKOJRxNHhAbCIgDVgN368D3i+ewjiakgijyQ7HlnfKN52eDugp8mjfi4aHkufmB7eyJ90+IS6+4+K/+QXXtmNLEXdxP6qaSvDn/wATZEKGiGFXsxisTbdFKKQBwRGh5ZS3lco23hTed0ylRU7oIXKo4omWsZZ4ZjzBd2KaL3TDbP2cwJvPQrLAL9NnDFoaJElZHfxbXg0JZ3QVCZHhaJrXLbf642AgWnhlgYK4P1C8O7nHDPzDdjNgv3Pvl4bkdb8fqO7fBglTU6J0TonROiFCeGKLByOGD9M82f2xvbeRi1inK/iVKAOXeHB9t5ZbQ3nROidE6J0QECMVU7oKXcQ0uF+f3Gpdx6jwxWQaqN5SC8lsYa8Dyef12fd5YlecjwAomtcLop0lR6YOjEYutwsaNL3HDGfrsN/l4qoy18qypbkluSW5JbkluSCh0wehO+zEqwdFfwfczsvLzLMRKsr+J+mwj8pXxV8VfGR4WyLuhmreUhjpHhmRZaCOmD2Ilthfs4h70tDYIpAHk0j3LFL5PGO6ue7/ABFg6y742JkeACrlp2xQplD6YWMC/mBqYiYgQPLCy00U9oleggTXRYPxPundAJtXFXV8bEYrSlzudzudzo1NlMNcATPxAnvc0+36gHT7N5eD+Z+SAEDvQ+2aJGCWFpr6gABoJn5C1RvdcasJO8uTYYKN60HAEUESGRu7+iGgt99o40kbm6te0++Vl2GIpqW68bEz8m3edSFWrS5Nxig1racIxaAOYQCrv7IUan33jjSQsaq17T7vVsSlXadzO5nezuZ2MIPa5pSDu0r2/wBUpRch0/TcxNviuprY15My4L9zCCYplqeX1f8AhU3eMv5imCqiU1nb3/JpCkXt7ljVM3l1nk/1Q8frs+5hDEY1fnd521COSIsl+bKtz8St0PKUfMoYDb748/rs+z1lYZ2ztnbO2dsKWdwujG+77SvItLQD5o+5mDeo7MY1bLsTRs9NvuIFYjCoreU4lOJTiU4lOIrLm7wVNIFi4aMAGLo/2JoGiom8SZZB3r/fUy4an3iARxBtwWdT7/Dd1mNDGnw2Ju8HJKarwB3jp/8AbR/MNI7krhORT+I9LdOWMBeYmkC2CphG1Z93q2JyJ757p7p7p7oa/JDqUwZYFQXKmv2/Uv5l8n/Y4OwP8/4l67Ydv5nQNR5OZb3l9VVJU3eLaxVUQwgqAQcX/UMHAUQzAbAA+YY7dD2hm4ne0e5UN/kyyUxTFLeco9GNcwPMrSoFbyhvP8/xMR+iwncq18x1mHuF5eYHAEpHEaOhsOr1DqKUDrn8yvyYHmVpUZS25cy/8Sp3jlkY6+cutiVgl/BFrtsVyS4vLN6MbXzWXk0ZUuGhXgkcRlcaQnwvaoSxvt8V/wDIbr2wO7K5GADLDxl6/wDH8RQ1Y3QL7xEJkhToq4vvKg6Y3Pev+SvVAgOCEo8sHnNi5fOWarOyZRktU7U70aF2/MGUWjuZI/MZbgxKSKUypeR2G94oWhd8jeJSuQN63lOCxro9Qq6tD+ZTlUaF2/MEQuncz5+Z2p2olEzgS4NLibXf+YFBhhUMBmmaai7N/eYYKa7xrdrH8Tl0Cd3/AJiC1gZS0HZf99wzQbqV63QHWN8V0zFEpTiA6EUeGChTRhXOGNAb9wyIXSiX+MxA+QmV/qHG3HD7S+RZ3J/uyC3oD7ruspZ3iufBK58Eo2s0AmyWwKogm8EigeY9R4YhLdQcyoKvJHEutR68XP12P9pUzGJ5yPAo2RTMC3ikplT6YOhUfiaDcPCmr7gyp+uz7n0X5CmtSvCV4SvCV4SvCCg6Ze0Lvz+Iy/WJcOYOeYfdH38SqKvek1e2wWp3Z3zvnfO+d8zMjxUEDuwvvKoy4vDD1EGhtK/a9oy1gf6JUnI1wETlOzMce0te3n02YkvXFfuW68bEyPKmWl2ShvDB08HTsl4KCLgZA8suFWkkdpRGcUWr2n3S0ES2KufGxG1avVtNiFHDDQ/BWY2Le7iUDRwqWB7hKKi7LCMoBhWXuynMpzKcynMrzBRUyPDLRsoY2/hgBZY+mDr5XToh9VjExSs6gQdLn67PuhBsuMSvOR6iA6YOghbW0qlr3l7FYRcqfrs+x9a0xfBl8GXwZfBl8GVaOGaDj4f3L1z8nSHsPHEC29eCWLU5EcixGUJ59X/jZMjwc0bsdX4f+TRVmXPpg61RmjnEfRIjXDBfYWMtQbl0GFpPvlf77TVr7xy9yHwNiZHqNg8MYW3WPErC7wQWKDQdRUnQYdkmfBsTEDr7T7vVsSksv1LJJWhwxe614Ilqeg1/EwATJxGgK5XEauAzRqTAEjKAl6+rJJaiZHg9GLuJq6/UYAjRThhpZLcMxuWV9+Y45OrKGxxCY6L88JtWZpMYunjYmR6v0H+ImeC02jSmTao4fZrgjRFmibQa6nU1LyVn3erYiDKcSnEpxKcSnE0RzFrCKBbiaSbpbeIqfMqaFjTZwxKjmdc650SjYnUQbDyaNwPBoeCTaIJlTCf8Lm0qHtfuffK8TvEI9yxfjY9f2fIIM1SPWtyAWBd3aCg2hV7iOnmdU6p1TqnVNj1/Z9X67Pt/9dl8634nS/E634nS/E634hpG0Z9v/q1RX2nV+J1fidX4nV+J1fidX4gVNHr/AP/EACoQAQACAQIEBgMBAQEBAAAAAAEAESExQRBRYYFxkaGx8PEgwdEw4UBQ/9oACAEBAAE/EP8AQ+9FgFXefHv3Pj37nx79z49+58e/c+PfufHv3Pj37nx79z49+58e/c+PfufHv3MIBuyV2/8AUWGtR0J9TMH6OEPoOEPoOMIfU8IZP0RNaR1P/ZpJB4aypXGs8Gbz23/s0khRylHI8pRylHL0lHKUciUcpRylHKUcjylVpNXt/wCzSyCTWVw94k+ayuFTSL0v9tIJgAtnUfLpOo+XSdV8Ok6r4dJ1Xw6TqPl0nVfDpOo+XSdT8uk6r4dJ1Hy6SrrFdV5k92UrQWsOqmQFvtt3h6c0CP1AKw5dX3P5DDrZ34BVBaxuR4TrxkFSbz1RKvgN1ceq886jzzqfPOq886jzzqvPOp886nzzqvPOp886rzxQrAJ4T1j2/MmwLVwBFOrYa8m1Eq3jkDLKTTZDB/gnhpt4eixum26FsjEExNOrxgYJNNqjq/UwkzTW9I4VjCru0eUrWyfaR5opzowYuamOXNeQGY5XlktuWinW3aJ6IrQHpAxuoT41z0NHpELJVBKZq9uMkk80JJ5Vdy0IV+p1sNFQ702H4RMP+HznKese352JhlIEVpaYbVzxMv6cFIsZo3N40NmICZWOedMvYizC0tsPOFXgQEV4DlAj4Deeix+X4QlwkOez1qXiGbbwpHPoEUlwwFbgnC4Br/BPWUsAJHXT9Sk1AnIB5l+SO1TqGYoALy5MSy3RqsgImbQjmLHWMRoNfMbd4aPk/vgJckQaihSdAV7FxuE+w7xRVnCJugnRIjRh/Cuzg3A8AQW6rnv/AIfOcp6x7fm3t1VB3Faxjp2DX1qXD8Q5HG2syIOXaV0QxYaVUV48PRY/L8ImgB711i8REAZlcVaFmXGeDNdGdMl9vOElyY+KrKTKaLyiL83FIN0yEQXKltYLdpYxRfnWo8ZUta4BOXQ1Q8nzR2vN/fDSoCqAZl0Bc7GtLV4wiWAK4qWmouju/wCPznKese35rLSHHR0LfuNDiDlPAqvoV1uXzhBABxeX7pZA6BaiWxpyFNJpR1W2vFnosb2vEV1qLq3E5FaDvC1cp1D583hNoYa3QuegN4aZokch/U5AhcuRMQQzKE1PHc6kEHUXtLy1D2m0vkNLZHnyvV2iS2h3XWavicBJAKCBq5RaSyeYqXXjrfeLCF6XjQQULWmzUG1lLr2BNtJgd4BLNrRC0s8hZ3/P5zlCohaqp99n32ffZ97n32fcZ91h/wB7Pvs++z77KvgNCnghkA2CAHGza/ZCVB4pV2uDSXkqe6Fl3M7B/WbRSz1mhVRodyKVLCmv1mQFZVidQZq9o6dYwtj9on2iH/Uz7DPtE+0T7RPscyfsz7RPtECIRCTliPohc6T48P8APGMYhjOMYR00CrvgC5kQSAhRpX+4dSei1vzjvlIy8mb8Ghm0Rxobx0V33lERi1vCU7GYzGdDpHqRqhTPbRhjU6uo/E/yfE/yfE/yfE/zgn4n+T4n+T4n+T4n+cE/E/yY8qinKerfi82zbS3Q93BzjIHYZ0Bp233JrUcu6gC5XHK4X+dczACuS2txMyC/FUHOXS65a4gSRNOqVt7HQdHlAbIWJo8GPuMWbBLVtwljOhLt6B7wQKWIGcjVm1/Q56h2epFXSa48j8NI8dVUQISkXRr3dDxg7qZBm7hYFpuTkCrQ5ZPOAelyk2PYeUZwh1R+p7bgJUBVoI+4eJQ7VYmwwiR5lugM6zmL9I0S3Uz4P+HznKerfi3JQcmgbunFuTDmUYXVY376h/tSoMysbCqwQZS71l+aYLlTKze6tI66rNC10Ms6LzyZj+ZNNuEvIlZpM3mEWRVVOGrw04cLk3rBiIB64HBXpOJOVa5RJJoXq9CUHq7wvi0W9WE9vKGG3tDEGVd6aHm5s65mPd2DdY2zyeCL9Sv5hoOBdB1asHkeSCg5ftw079PC7KMHupqPkBWz5xaWwZ3aKY/iQqQsyo7RofFOFQeR/h85ynq34snAWOgGl2ecRsKKaWrkTBlI0VjF88jXWDgobkeTvDbq4pkiqNg6y/oA26SnRGbAUeZwMqkaloa1JGgaWBEtIBgFBvHSN7JoY1VFZ1auBmad1Qea+kCk487DAxRXRVPavVF4B5ZElIoDh2l7QATW9tksVFS1GGtNo0UX1I7RW/N/fCTcDaVciGclzHnm5kh4bcA260dYOSqRa0jV8CYk0a9OnHP8/nOU9W47wlvxNSirNn9pWHqmwKCqvDeJnTDb4GorqxZAqbX9L1m0ph4UMKuKrzdectnbYjNMMK2ppDROAaVbz4cPdgGFzvtC6CpbByOr4n/YOuWcodluAfroajn/AAuXung2OQGwjlWm1nwQtbUeUBnRSCrzPY8zEK5zlnsNspaBrwdDm+rVS67Fap7TgJrNAF6ZIIRlU3RdWwnYqPikBbuKaNoNOUrPgFbh0hv4tCE0WwB6PQLYy/n85yg6gVPjs+Mz47Pjs+Oz47PiM+Mz4zPjsftosYUxxAII5A6+cuDNevHc5jtibsdYKNmGfWNahH4mpy16RYzAsDz4eyjqg9sfks+azP8A1nzWfNZ8lnzWfNZ81nzWfNYqCKENENQfzYmBm+mn00+g4szFwK4e4zSE9ib50OPEMHhAiw2B50Q/kXjRzQs8aqAhtezwpLb5Z7rt4cvSPlhqydVi/sVB701T53HvMkK8gt60F7lrrBK5OOv5D18w1e0UGGc/BIi+jn0f4ERfR8QJG1oq9p6t+Lb0YBKKeIVZvkqKNTThyrUZcVVYwxiqCXilgwtvJhvEhy5SwVQyGQxnDFtbnw60W8JWy9yopX7DdCN7jhkIPA05caIxNGVeLsF+UMIXbVbp3WFF756EaXQ1DEZCDC6TI8x0jemQGNwOiZrxjV4BTYnsDDNrgicOUQeobilEkFtPNF73DeNhIKi+y+W9QQvFvMN0YRwkTXnd0iHQPddYmy2GyPBT0HdILXygJLAQKkhPJrOyPMoreksEKWxqhbgZwnXJwSjjwOeGEhgaJqx4Mtqthis5HU3oDmKkqSrAVYQO+HkzSPjxpDkt5/D5TlPVuO8NokpuWiyHil07lNy7+Xro5sOh/EdqhU7UYxEQujiBxtyAgoDlMDnOTWJ8fZhwIFYBdl7sYhEkU2kmxlRa8bAMCVWtFZefDyBF0ZUtbTx2PZZWJVyaOtbCAPAHeAVOXQha6Xp0hglp48nsspEub86PZYg9KNrf0ibyJBYBn5YpW77QcOTVWBQeBlFavoL/ABSuvAHLhbei/pBSeTACdYH8IWsZplaIJG1kH0KoJ1lpz6241AwFvK61Fw2DDKjClF5NLkYApaDf3579JW32yu3CgwNW1nnVXO5YNBnH4fKcp6t+G8oHJdKXoBT9ozL8SAIehQ6sHa4TVNZ1iyqIceo1pB090hZWNVGsQFV/fIQw1uxJWBaXdcKO6eCU1dEN18O0GWp6wO80OjEXrLPeiVfSKBUBsAVDqG7HBWuwLfjB15QYCV2LfaBMFK6deuq/BNo/8RKSsOokNiIOSxF7gKDZrcaKcxdQA1VjrVCOomDuldaEqt687D/qp+U5T1b8VPnhUoU83SUhQaAVT4FYqVciGmANNlBvGYS9cBaq806MZQwZytKxytmm8sFeDO+lawUQaORw4+7L691OrnEB5egPHu9OkAO+PVlntKb6pxnpt6prYlvbrnnnN5auhnKjuiGLcJ11BI1na7gj2XyCE7kylLovei092DmG3fmvUzUK5rgpPSnJsd+U9p/qp+U5QCh0SdfPX/ha1vXz109dPXT189fK1Km1viB+MBeILJmGg+4Yz+zaM0GkVh4WV2nT8Ev1ahMQN0ngHDyms1e0eZErmv8ARKUpSlKUpS6bQBPQP+Bpw1YcJHuQNres3tC7j7HV9YSIjVj7D0hiwug+Aarv5xE2CaCajH1h4EH2p0A5x6MbFO82X0DvEtFar3WekJelLTmEMDqeUG81e3+v30z2noGHCuBXFDweQTqwjgyZltjNz42FLHADrqR4rQKZFJeu1MaG5rY2tOTUGhVWEclPdBaquGNlZ5MSxIo6FsCAdTCtnYR8UbUWI7icBGdYL1yepnHfTvADlAUAaBAc81kuSywxda5ouKY9CiZDqDi4IIerov0k8oDUYygqmgJgC/ECoKFb1sUHWiP0sFCJNBq0MBAESkd4A0jaWL8AB4VPXnB67sEGrTzKluY26LrBKcXztcwt4lVIdStzBviAKkuz6woEPUCmywIi1ojZl6OjWMf9u0bQl4FlaLzlq4hWf2Ixq6B5S/8A1/AsjJL4n4eme09A/jbVC2nqh7aPKZ8N0sAcYb1c7wi/22jdQ3WujyADkt7MTL3v5ljzh0u+euYZoQIrwtQybw386kIoA2A4CMW5SfYOo38Cl4mu3E0XZ8Ocngv2BT1LXoRlG5DZF4d6o+6EzTIXFK+K2Ww1Upr2QOFZWzWd4Jjgk44btdfzrPWcFqCI0iZuaqwZQvTkL2ECsVKcn0ghh2Fvym89b1AtpxShoPO6KqORxi6ugmWIJTRpFarmygCTs1gpeW28rD6ZYpCHhNfw9M9p6B/HbgQ4aMeEj3koiM3o1s9Ex3g53AI9YH73gcForDcELavS2JK0vQDVWJKaWnf6OKP+zkq6S8KMRnwHUvZZmuqgHMZzh+KN4FuecLw+B6AN1lRxWFxpB4FE9ccFrZYPMLrEY3IKV5B55a7ytrNAAe1qUrGZr8FDa8FSMYvePlZHagXUotia7FSnNruKYrUAJCG9gQjlOpaLVnQvbvFq7B1jYOeVdOPpntPQMOG85TbiY/IQPPIc4MN71X0dk6MLDRsl8wek3nQCeQ173G157uCqNKY2Ib0B6mYxVRWp9UekX6fjg6BoOhFvWavbitwg6a+wZ7zUDAqoOpnbBPKQnMq+UvqAIKbu60u8xm7rBfkWPrG3YpNeY5nSCAIVXq/V0iVI2iK9uPpntEIugX+RSlIX6L+RSlIQGEAZKh70AwIe1OwRKOEtJ4sep6QY3RR9AIckFlXTUCeTDy7Lc9oEn8gOkMMzRvHl4eyhAWNm/wDRu7u7u7uy0Qlk9Y/C4rJ6AbrCwSo+DW0P4vFYLhGi0Atah7KL2JkR3OLENlmo0buW/N+0rt00WMN3tjLWyNha1PfFbgWCF++R7Twa5jCiCraaz4TV8wdyMi5OiVMKts6DdNgJVWhVgergevWK2Uq48lQoauj6IeVWPeIOINSjUZ7bilxZZnU0L5O0cBCH5WFE1hz0h8jOCXS7GHR2YYhbCp6VXKAoRr18iusJ86lENN2pTjWZOXy+qwyFuvEnpntPWPwGhW8UHk2uz0GaZ0O7HhBwN20ezJeWupd7YFsZmqRR4QEGnE69SnIPNjjnkYHjHEaJ0U8ixgBNBeLYTS7kPbCtQyu+4OCD0aKiUA7oQ2xYQlQnZ9+BdcuB6TGhAG1XvCDABl8T1So9Mq5hZScru+HJCxeIJfZEAWm3gDzHyJX1wtDraGRK9Bi7C7kx/Kc2Vq6pC+wZbSoADwziDFOR1vmZeLPWHB6GxCfKz9EvmtiqMmXeKHNDQ5sFKHBdtrszBLjZYEZq93iss2IbFNKXYB2TIYs4yDDFd3ZRqjEaJfMpoYaq7ouW4krhS3iam1rwnAjPTPaesfgglJYzXbDr40MwsEvmW1VavWI9C1F82jMDJE0551a82sUTvEbo15tYIeK9BsSmS9odQqBQE9Gji6/VAw30nmdN+AE8BwGjQh7YnLkIZNGKJsI2t9RRRAjgF4vO6RBvFm+lA8nzRDAOLZTW7PrJcSgGNX0Msu7BKfygqwl3TECYCmBqRWUxiCQw9s1R5Q9ZwWk2AtXAEsc+CCNdRKduczBWI02q16tL3gM8abULdizHLHFbYwa3VwAGkgUr+KmWEUNnZXveJme5yqDQpWfCB1iwieTx9M9p6x/p6NwQJjFyDmFOtDY5VF1tBx61Mo2O2tboARMI7RcXCQ/PS7FrYYwMl1nKAbGANgt3Zc6rDS2g6BjtKE3m2htT5hCFL0sRXuOpiaXFhAbA+YaV3PTWah4ZkbWeu4PawaJfNKlMAkaxQupgso0UMtYKCFKOdCStgqvNdkS+EY4HToLIgNNc3nZ2GIPhjw9mJ1Je8G9jRUTyBmtMRXs2oUUVnczy4+me0KmFqp8I4F9n+QERD8I4kS7WamPuMxwOkSKLsWQdWz8VKjpy2/cR6P67lEFHgoDOh0w9Dd6uZcGnEFGWiqSbAJvzyuOOPXh7aW2mjH7SdXOr4Jlhkh74jCkBAACdXOr4JhgUBSAY6TyP9FVVVVVVUEgQKIe5CY2xBp0ul6BrA7Rs75BgHXoqPBoYpZ4krEZswNWUencU8XQiGnLpTyWmtN1UeIynv/Z7aGIKav8Aoqqqqqqqt0aoM9A8bzE6m4A3Vlgq8a52umGINE3gKNjnSib6l3nhImFyFiDTpjWZdF6bJRlW9c2iYSC9Klti1BS8NYmfBWzIXNNhOsq4SAEQTRKY5zouuQKGwuk58RAdfzBlUTMbsGTcOXR5xKSuITrBuBE2RiTDmJYAGtCJo5GNixdeDd9cOyQXOuoTXdhck6mPXaUgKnlYFuoQ5qx0DAKl0tAi9vtqOeFZqXUvGA+T1OiZ7z2nCaTYFq4AgUxZGNag7m1t4JkkGyaiwwEuMExXtrvgKaVqF1Jt8PKF20VhFrSy4IybpJbutNi8Z0zLpAkmKQjL+lQaYrcINCuZWsOCT0CegZvxpXOd01fQ9LSmKumoaBRCDkalum8otw+kAuVlF1C4Q0MCitFlzDSZ2TvzygZs7FBqdJy/uj3bKmbe41P81ogTdojG8acJBEnODwFu/g/ZOdPFibkMYim0way0YPY0c98wk01cTfMlWFuW73I9fSBZ44NwzDqR7oDqF0xUcvWHAKBm40XMTy4cFAL0t3hUQkrT9KUKMA1mHECXUgvyryhAzb9uEVmCnWsWPOLafhn3upLTTHNrTN7nWNSypmEQpYXloHJRtUWuYSu2ltydlJqHEdkfggAs4RyaYXENvZNxlNFKdem812z5oBlB149lZ4JPSJ6BhHi8NocN+MhpflBtbrHGDb0GntBssySw6ixQMzyCdoAF7YdZGrbcc4WOijmi3irBUzgLQAdNLqCj5C7MWyHhDyVu1FgHb63lkqjWSjiH2gs8Z3dyVW8PYcfRJV5k7TrE36/jF0YsXgwePoE9A/izbgRcwxxEe5Ay6N0KzRktgDYeZ1hYtyHkEuIYJSPWt0+A858lgA0DlFVtW4XtTVIm8GQAKr50ZPMi5nkHkAuOdMkWnI+5z4QEXvmmr4n4xbjHh/OLPQIbRzJ0kdJHSR0kX5IvyR0kdJHSR0kdLF+6lwBvK/B7ostgArvOYlgqzpBRsUY1puFA8SYO8cNqXS3kNw2519SoazV7RdeMsekjpI6SOki/JF+WOkjpIvyx0kdJGQbpU1xy/wBAYELApalKC4y1GHufyLq0NWKC20judz0LYwPN4Duj2hPn2Rq5r/VwwjVawsZo5Yp8wb+GuftQqPFnSw3CBRe5CJ4JPWUtUnD0FvxVb1Ed6OuHi1o7z2U1uqxpj9xn2SfcZ9xn3GfcZ9xn3GfcZ9xn2KNWKrLzxPQP4VTwILyZLl6VorhTciQIVSaFy5G710o1qFiB1cjrAateAE5Fo0qvBjWNg4FXHrqcoa5EUOLJ2RDNU689g0ZaZfrIMG4KLgBgb5RVamdSunEQHXwFfU7AMpa6MNqm6+asJZWM5cscrgGWzfErmAwU1ICgiqgN1GiCAo177LfEYYLpLlewJK06wAIc4bR4jJLlt8IHEG6q3OgKX6yKJUBurLgR5goLQuigpHJkhcQHpjKcigOomFMPyRp4bVMUoFohfQhCsV2LRaTN5NGh36B82tM0AwCi7hAvd0OV42XPSIfNC1I62MGEH8d8rNYpwBiz/MpgMwEL3ALmj022mMK5z+HynKegfwdp0wcvIfcMhHYGQGNYNdrTJ2bxitCWD7BMooTAgLWyDk121jPdj2AvZXnmoXhULGBqL5tGwUxXKI+qrXdlWlNNj8NAl4NM7q/S4NJtKdGyUtV3WsMSmsyEwN5G0zubrIkmeCKNm8CxKevfq4UGtO//AIXEYV6W/wDghJurRoocxy2hjSWUGtho7wwGidiJxpM7dDJo03FkRgXoL/4oQVa9hwtpoEBMIUnlL4EJNqtbWAtbsc8zFtixEcadJkoC4d13kyrYw7l8VNiEGlqt9TrD4qyxfKm/ulFhP9otBVm+1SlHErHQq3OOJPlOU9A/izTgacdHjIBdOD93B5LLYbUwjArHRYcE65UJGoTBSaArGM1i4dFNSxrR2L7vSUwrtyCztd9oxoLODuDVYA5MU7LwLQS9Gt+DM63ZpoN6gh8aMawO+aXcEddZPzVt/wBdvynKegfy2msON8JHuI1DlakU2beYPM3XhFHAdBV5wV/ats7CuxfWXloQqen7/jkht5o2RrYjm1yl5gOtMK21l5PET1lbjq4DfQX5C2lsNWjuHJ2xyPh7T/Xb8pygFDpwl8F/fxlKUvgv7Pgv7Pgv7Pgv7wkCodk3wBvGMg53UEZECZq5GIiNJTvwBWjWEDW+v5t+iNvHAPnFG70WfAbduHspSNzrUfhf9nwv+z4X/Z8L/s+F/wBnwv8As+F/2fC/7Phf9nwv+z4X/ZpAijwnoH/A0l5hpHHCR7iFg4aHOZhTnOsL8x15QIkdYfKDWAU8HT3Fx5gjqRNoiYhpwFWq6BC5pfZvUXwrxYgDe1QgqPUl84Jo7X4w8KjZPZfhFCHAm0ITTh6BPQP4ZTGUYp5IGl6XEv4lcfCdvk0Cbc7Qy2JmZuFedbOktVEL9Lnllml4zNIs5M0AGjKHXPIZfdYrjylgCWVyYgMr0ENt7UUc26bjtdnqmo6LfCQVrGWsR8XXdo7wI7ld2TDRJagO0Oo3NJmdtujXK7QDs13CWSSg3sYgeF42IqfCk7kKpWUl0bl2RfjUh3Sj77MgMdMI7uRNeOUrwWIACb2w9l2VMGmjKS5NWHyPPoLege1RuRNevCb1RArCdyQ6VUpIloEdgww72GTZTTZe6aGg1CcnUOrte4w2eCFykVtN7MA1OtHIEo0cBCYQmleqi7tA1dAlq5ZtqsdRV21KEUQQkNgVQ0ox/YazaemT0DweCVMXNHW2AaLNMQV3jIEBKksMDUcsFGxUFuXvKw0ufKWtXphUAe1Fim7adzMoZDigbtvPMWozTtW4KHgaRb6MpRgty4OAh03LOPgHw8bKetS9yUJK2IbA0NcJi0DMIuBVkGfkgxyud8Wvb1gUS+RfLeqXu8p8jyxFn4B0BsHkRyjqesZDiNPNA1FxHHdlSvL3jtzR/fhF1meWCsZWh2VUOeg8sAQ4gjSP0yPAA2x0WIBOkmbQpYdZuZROAoHqWcvOAEEDbFY2IU3RlfKVbNUVJgYORyJvw1noE9A/lWJUNI6S48JHuJfgp9Tn0Yb5Fr/3HJhfb4wdoi7Opheq3lvAaaruqdaK6EV8T0iABWpcg6r9ytBo6FmR6J5kDDlDI9opwlEIafAEJEpoacg6BR2nqjjNMwn8/Hfj6BPQMNI8deBiGkZWfwkC33nvNbSao7kEirvj51HxULRovTB6TGHR5xI5TldIlZ5eaCw+UaZo0p9pqF2av+Eu54HKey4Rd5eYfgTWb8fQISmgXPmH7nzD9z5h+4fMPefMP3PmH7nxD9z5h+58w/c+YfufXP7BhSgM8ANhagLWPUt4x4sfgxzXtFDssX/Sa+DRz4Dwy5fqHMi6YId2miEJSXd0YFApJq9oYShokfoj+z6Y/s+mP7Ppj+z6Y/s+iP7Ppj+z6In0x/Z9Mf2fRH9hGaJc9Y9vzq53jz5WCHx5XdFSGoLi6qZ0bjZA5rBiAYCImjxOtawbnosfcYGmhNZ6HVgpU3PTrdhswYAKCKBGipfHfvAHBKBqbCUwLfxgdlbbRanQlCCMcr7HQ9YbZCkSxgcIQFrsB6neNdWVSI0j4T23GL0xulOzRdFi2pCisho0afKVCArWGCdhtUrdyULzFY10lK9rWv0AcsODlHL5NnzgfGGilZS3jqsfL8PQJ6x7fmGZYmsYJ1M3eKvaWODCLQJzdRVra9bvLOHYqeBWC/DeNSwKAuy0Mm9yuwXfo47T0WLiUMAoOzQeRTyiD7wBurIMNBhLctEZSyqy7GpoMOmNIr6eUCgeHeYCVKKlvM9QgvNB+JZ/IXxG3IF5o8iLwbVNhigdKtd9aiMv3I1+60rtdRUdL1spo0vENoQABJ1q86TpJT14Zck2VqxC86gJx94nEdiOyCDreX+krt2gWQKaQgSpGaAyZQBmjN4mL4QHt8o1DmZIBbaJTAiWEWgljGqE/Sjax04G+byZ3WkoVwuhHhvw9InrHt+e7aHVvlCaIdCoEgC1azFwkGjWnD0WNarfhgLg2aHzIecKgZUYLaZkSAtJkTfeNfCEWsFI1TrtLnGkX4nqkda6H4tv8hfAdzIC8keSDz+yq8kaZc4AmkydEQtCsa7zAOM+PUaQmgWsocTJ1q8qEfVLevGavfU3rMwOkNZhNEDuXK8rOZcq8ZzLl3nORUAQAurWWb8fQJ6x7fmn5BDRBYvU57Q6l7XEpswl7Cqm4MsCmvMpicCglBXBY7tsGGnToXdE9Bj7kLXYu6eh1IAZtn172YNatFWMRAhlWv67x0ihQdDYS2BbsHuLT6rU6MvkJixfFp6npEAXlSghmKUrXN0I5HePdU1aXVfGeqP8Ht8N5vHE9MgRtVBOm+XWZ9Hy6zovh1nTfLrOm+XWdB8us6b5dYct8us6D5dYcl8us6L4dZZpKl3wQsArBpI5QnSe5AfOXSJBEYT/ANJpZtDB4CaS/KMfVi5mk1G7bKS8qrqxKIqz2UDe1i/EJ0HknwCfAJ8AnxCdB5J8AnwCfAJ8QiakAMVBqFz7F/Z9i/s+xf2fYv7PpX+z7F/Z9i/s+K/s+xf2fYv7PsX9gkABjghSngbs151W/lDbZyGeXR3l/KaXM5Zrd5j0HyZqxZqhom48+uh10iO/bv2AvsqWixqh68eJOfvvByYi8xDwREeyL4068zaavaCcgedI/cP7PuH9n3D+z7h/Z9w/s+4f2fcP7PuH9n3D+z7h/Z9w/sWgWK1PVvwvOk3YMW5GHZ0eSwPVpbKDMWS8m1nO4jOS1AUTBhpyXmU4WDmGg4M0uXQZcK31HV0OEWnbpd1HZp44g2XtWYzKkCkWaFm8sbZPCzjDLoCx8uHn3GcjeTWtW9N15EDlR6w1duTQebDBkQVEi2UKz0jxNGnZgXu0hFTanKW50sro9GI30AP6AXtDvDq7AGFuDLz5iE9iebgAzXYwVpFxwIAjVQMB1hkE3NSHUTTZdjGBivnJGXrRfqBAlI54bW/qUoA1ZkG7bcrqamqOTSF17UFaTUMtVrcEtoD3aZNXLWDAAsNboTTzhrC0qDqvWwqAr2yfWV5NM9YqwxM7pmzx/D5TlPVvwXbkhlrQWrWcVqyQavAivlg4VZ/6zqi8yAmqKDBnvCdKoDCXMj8QQ6JuPdccoB0B1uaEbbs0sK3MUzCrJMH2FuNasG90UtB+l29OBlUGpcIQ2Rt/C4/e6g2GjkjQUKvMfbjYOszUDe63gQYAw0mZ1DUN5IUJzuag8n0jUhek1/QosttACF3PIjggw/cwuLjJ1irhOdSWEqGmkbsTP7qh9WUoIXgG2xwd7e8E8BM0AI4bXKBuoEXvOcHugO0atAUu9QRqvJpW7uVsb6w6ldAt1v0MW6rsXDqgugtaEbYHcShGPNWQbhuQRXTyJKoWtTDHIiaoicxbTZ6/h8pynq34GxUC3m90OWsUlWuZh60yyzvD9nU6L3XTfnAG5LaUH7RBmaRxconOiZkdsBDCkqrNMJlDewLyHwoEdAScrL4ESLHRUnxEdCUq7JkCsgbEd4hzUA5IGsk3brrHDla81BqAHAW0ZgmZAjpCJ42uxzgmmg4AHkZI8h1K3tjEkhjjbUzEu1urWmCNlHlWtBpZNKNRMAUgguBataNsRdph9NS3qXjmZ62LH9H+u35TlPVvwCL25gFCcC+WxE0ULi4W3eesqg5uw4ltGjHPeK5G7ahTG6ql3DIwtErewhOypK2oG08Eo493LVg5nacxRaq6K4kQ+DZ0c55JGTReC2Gq57Q8xFtM8w8mBCJDxuNR413jPtIW/LymhorSto0Jow1aXOrWp38H581K+BHYnNh+9Ka71yPkQxtiGrkQWG2AcnDBIvJZBwm5eV3xNXt/rt+U5S5tqVOs/LGMYx6z8cYxiBGZLSoe9wFwrrpg8KJMJ0mHpAAAAGhGLBawpHmTSYoUoeFL80VXmBE8qe8KeWlhdVvgLU1Z6ohtO62Fx6n58Z8L/Z1Pz4z4X+z4X+z4X+zqfnxnU/PjOp+fGdT8+M6n58ZlK6i+c9Wn2CfYJ90mL9yfYJ9wn3CfdP7Pun9n3SfYIisbzcPcgUBoDl1l5UQquW5dDvUESr5fKCmFkrCB0unY30gizWjqHkzSCALvSDJWOKuZjR4pForuFB5XH6M0Zh4NV6dZqgv0nsoiBR2fwVKh97PvJ97xxD7yfeT7yWWdaT1b8RAUNEjgbtnngcMd5sl7Si0G7butRxX6+Cp1gZGuXBkl589DgJAKFzeOswk2mQCqFoGuxIqht1Wo8hfK3wG+DMGtJfDjubWzGSZ65x40a6zDA1SBMjIo1gx7ZkWGIw0HZi6TFw6+Nlg6L0uL3cfQVp2rvrbeKfJMdVTCZNsP+gvxipGlgIBcywYxF3PAXIAChlqrnNGaMAC7KywckOzFmauTuNO0CA6jwmiwtz1hehANyk2ELFXuXTVYiVuloDIX0GHaKSHChqWwGysbrTSWGshvZsFAabXeagIURKWJOBZb3Cm/jq+oNLTOD0S/vMJsGxga7jXA4egT1b8ehzL623LTUbDMVANaYCpvXbl6whimn9QucAdAgtTjtKygDUNNIgjl1FMlqHINmmI21skuYnUOg9QYMIVBoHAzes1zUIVKC8JiJeOqq6pQ2AC3aEZ1X50cvNA2qFKFyZWDAQA5B3gaPG15EodKdZs/uMzFOUui55q6KAgXFVgAjr6dWpyJq12qrPmXCtlWxKgoezD+58Hrw2tUJpyFJCKbHustcoWWozcFQRQaCqpTsmGTTypoAfrKKz48CsLMGt65KzAs1dRANSBTcY3FyxC0Ai1rsA4YO8v5hQmUvFw+y8dp6ZPVvwKKr5NRWSKjJTeMDiFzsFeOu0fVXW4N9x05TK7dgNk7wJ2mYqWeel4StwYr4yVHKod7zNqCW2q8VKNVKjtfHiFXK/ercdxJLrMllXFUsU3nFQfunPcsOYNKuZs1GVALOA0Au83FtBLaMUcwWeLC+LB4wuY0bA1OjaPblAyBQj7oLLoS/KI6elQtlcpeuCHusGddVhasarNcQvVNvXAHju9VjtHnxi6cP5xITeazaegT1b8HjC3qAZOhPWRNtVeukIqUaglhtShi9a3iIvod1BkvuRREl61jW/c8toUmkYR0AHR4pvi4oNihwdT8DIoF06okZL79+bqU9YYpbLl3e9FqLtmjkma7LhkUmf6TaGeweUK7tXlPIMnhkiEU3Vp5V94fE+z2PDd6txqjAcE1e3Gbvw24EOGvH0CUtsrM+FZ8Kz4VnwrPhWfCs+FZ8Kz4VnwrPhWU+EbnwAwlE3hki7EiQJtuFwkJNyJEhAGqxYXuY0Tn4yEGez17wYvSiDMb2P38+/n38+9Z9/Pv59/Pv59/Pv59/Ng4FeE9W/14+7HbaWvl0hWuOnsrW5avSCS4rKO4sHMRUYckb8QccpyrcK6OYmR3IBISxdwyitUb52IdzBVflZSdbDpFDoVZ8gbl5NH6Bq8hzZ6ukpW8b7T1R/qp9J9p6t+C5gellNDqGdOtm3TbJ1QU6m84vSJbmtwUisjQzWuKmQ1yappM2QxzreN1nRcrMB7DpljSQdiLWgZFrNZdP0ijN5y6aceCFWgrBUvPkybdGjwY5iZklQADaBBDBXrkCVCwQZFV1UEH3x0M2pCYJkMA0ip8BIEF4Pz5QNRlprTuKR35pSR9wDkxtgFq2PzSG/YWLyy4GUlyEUgOdAL3hqDDUMBO494RcoeG3GXMLrSO7UBl0ooKoa2KMXRpKVooamoimFFGnEpLfYxuF4yKtrCUoKhqc6Barq6SNuJiwVgDgbdOitkoZLBUF3XnBvf4+k+09W/DfayE3oqzo5g9bJARsLb0wm1IFMYM5hdqxF/Yb6RbZmQlqCqHpGSHPWBS+4N4QgYkioFJeRrenHgKBvZFMFaPh1wp3DpmHF2vFMEMSQ4w7ouCtAKuWceHhiERuAC4gYuZigj6HnHxsZ/qH461UC8/KiNAnZ6mKhLOaFGZl3g5FrECXaGhmXOx+g89D4oOKlu1E8w94jWoXFTZ1Wkb4Dc73lMdtehgFQ4Utt4dxosAQyGy85Q1BSholFDkxXmA7fOyVlyZbec1450c5LV4v4+k+09W43zg4qWceqUQzdtA3iCt1bMw/hfOyzu2/SNqR0HQdfGlVW0IRC6ywqyA5POZWOgoxe+TqTNt0qzVb6aXtUTkJAU7HRVrzqo61C7GGK48QDgzbq4FIOI33uHnwLs11wdOr0MsAmLqaOg2aHgBLq0wfGCi/cmfMMnlvBPzY+VyNegy8RzlfBpjbmXviXwg2ByHQKDoT1xwWpKssXgbdYmRRVRW9L51c4LJQ8JYr3be3KNIWKKo8fFbKjq6g2zZKvVoXMpi0d5uBvadZXjHO9zBqVptcaXM5tgu+8dZ1O13nhkePTj6T7T1bjBX0EyfomT9EAPZGPChICXGmpPC7U+pn1k+gn0EYaDvcEKrC9IPTlpb0TPlBKgKvzoH1idUyd8FodiAZWa8nCwOExCVc170BqeMdgoq/Wg9Y2mLR8aufOHKBz3Zq+JAoArt/gwhAV9dGvDIQUYFUaeAmp9BwgpUVjFe75FdNJ9BPoOECg1t9p0kL/0AAAAAAAAAKVAFLwRW1VVqi0wXgdDVfJ4sTYUBvJbM40vKgrZ4JCAFOt7uz0ZtOzwGrFKCVZEcmRafTxaQoAN8CQuit5q9oD4AaP8ARIQhCEIQhCVqVQZ6x+FXx9ebKyyNth01sRY2v8TtoDWgYF1JtMIchShY56T0bgi4QrjCMr2sLPKopPJWhVs22OK1tiq25WU++Vh8tJ8dTZIHbLzSl2csibmHchD2brCGg6JT3jAb0LHqvmVICpgKXvew6FEYT2Lo4E1vuOuk1LOQup9Z7bitqOO7EVSw067IXhyhUgZJbeY5Re6VdCZaCHqkSEtFAHrUWr6K+hoE61OlA/dwLtpy/H0n2nrH4D4BK2GhuLKRjw8loRYLqlI45weGsxQuWlpFzog65Gi1p6NpW0UOBsCiGMCxtUzbKd9A0ZHgFR6Q6iBB0m+Te4SiBolJD0aOaK9UQiJou8bb8Ap4GG469lqTSihRrPOJbcZQDEE3QUbbTCtIT7EtBdtdjczyArF52SEGyFuqweUK10Fmoand9JCEi7gALGR0sEt44fc1VQC/YMukEdagMlb3rK0paWDhx7uhfKCO6o4LeseNsOwx24ALOstK1pKw1mnqd0VKO4BgxLmpO1QOogAz+4dqKO9M7WFI6dmGQawhiZZvrlneaSOgH28w7Px9J9p6x/p6NETLAOyMYgIJae2dz2lPb7vRgGJRUOUcS/KB7SudSwEMRwxDE2LOEmImhlvSJ3BUwswc6ufsgoMM8yvoIdkDfEeUwNDEJigINw2LQDmOthRNajVjJSIxDHLl8yoA1iMaVEtlWQ2B2e4M6IBwUoEALV0IkCGKo7MYdS48Y5sDZoJeVl/j6hxWudGt60igIQtuuwGV8IuEsgON2BY43ItMDW5hgEt15TSJ/OxYippjA68fSfaesf6ejcEFlhHoTXLc2Nzwgb2jAjLnjl6GhCc6pK3wSLCgJC6uk5Vjmk0sgVRZ8Zq3QAGgS8rhbpbMiQRzuuYJhlEhgM3V4PJ6RANF+rlxBTqt9deVXc6RGStva+b85q9uG0xWkK3at+kUmDWFrmNbV5S37TbsYLgCBKLQjJgTarzctsN6xNRdOcLFvcnVFmhs6kVBzIoUXlwJ2gECe0CqvW4VMJHslzol1y4+k+0KBqiTow6MMukMOkOnDow6MOnB5cOjDowGWzEbh0wneVeojYXsErmRgYyA510el6wH1Cj6UjywV1FLK+ZFznFh8EAcISBg5xWVrcoQzUEoLeQiAACDlMGkDErAYE6ysS2vHoS6EuhJcyQC0COhLoSyX6k6EuhLoSTXQDHSdUnW9J1SdWdSdUnWPKdT0nWPKdc8p1TyjUsrV+OIuCD4eEJLfAYxhOTJMLB7uA4M+yK3zg4IgWW6QfAgdGWgwmpwnNFJuTX0nVnVnW9J1SdWdWdWdXgdSZB5zU4HHr3wrBdQHY10pDc7UqiucG+9+HQOTPpo6x4v2zhXsUW7EqQjCRQDUDhztWkore+bxkYLcpdYuDgGIaI8PGr8cQmqK0hLxPNrYX0AYcPKrIoMoMNsy6ibr5QgQBxZDozVNal+3c3XDpBHaGoggbvTjMfNgfPFlLOOcHEYJQ3K9UOQ5gY3WqnqR8LnuFrspKNcEbIB1K+4hv4biODkwdEq84lUXgZ0AcsGdjMKTxcRVDUHCu6KLJqAtPrqxbqO6rHEIRIDovmOR6PB46fhNThtLzwNMbfaLUEE+HK/cm4S0JuSYsy9x1aaQ6wKejCkA1qq4vrGE2LadhVRYrdPGEXywGHWwoyGZfVnrkFcPWw+JAG7qNIG8fTV0G8pRuo1h9ru4/EHcC2YlhfrLXJKHYYRtuBILVIG6f1iHG2Zmu6My4AQzCASXcxQmNgVYlRjImN6usoQZFhADmrn5xZXhD1NZEPKVFAst3EppCVJwSSxvlzVdlS6mQ5QsFLCyq7rEzbkUSXc8mgYKtkMLGCzlWYtrNHVMISVYxIMoMF64xw34bTS8JqcNGioF0Xsbo0qtQWqdV061k5hF+NjCuhemsW7ZFAI1ZbE3OUrjeU9L66TiGKhqZWTQILqjwI9WwHEyjeI3dBtQo6XZbeoShkZLRsyejkzS/jQIOOHjW+OI2wGnwgAkCr4taDcOSmZo+Jkgu0qZWa8paVFsloc1IaKyODaLc3YNlz+KXuBIl0EFIBRi9YgMSKX2vkAQrCXDHilgQsGWhzZYuY7kNHy4Y9JECHRRMvbCuB6BzHOe01mmUbbh1rzcpSnLjSAI4s1ZgP66MnZyJYxXOMG0mhAUPMBKbGoK1zGYJgB38ss6HdNx4jIDF2BW/KHf35UqxtqcNPwmpwdT4qjhBlvRFrRF9SgIxEBqrpFCY5oET3S+Q1KtqFi1bQDCVWsHeeEyxtxSwQFI9pTTxS4A1ho2c4kmMLLmFql1AlrYnQgUxDWEmRnQXQUa8PGr8cQhow9YOCltuRdlLyi0Uj8MS1CjlXeEytrXG0cE+YidrbyhAK+vNieTHLjOe3CDO6sSmMSW0ymMEdRBvB2kOl1o5GICEdMerUFFOGDjdZbkFjpiNEyp6gAvktYIwtWuSrecJgCBzMKZzSWOow8sdue0hVVpdQI3garEBl/6uGl4cOknSTpJ0k6SdJOknTTpJ0k6aABIXxenAMPOjyIZYm8GB60wUTEGo8jQ9uPKDyBe5ib933mXKHZc8ZwEGT0ydMnTJ006ZOmTpk6ZOmTpk6ZDBPQMF5st5stzZbWrLc2W82dRlub5y3my3my3mx3kuB8HpA5hjWOY68ia6pfT6OTsQIbhU/K3vE2ltBX1aejvPDjtyU32Z0g3pHLgHIBzYYpiotzB5FHJQZZ2aO8S9oLHMPz+IF1A8hqXd96cJzSpqb1HnOo851HnOo851HnOo851HmzqPOdR5zqPNnUec+Q5T0D+NOXLwbmMXe8fNh+y2tdmywaZMJuTQ0s6bBS17rRmBLE0oMtAApy5qG83TQcBFGrpZVN3M789w0wIiysr8IHAcOgTXhIBBQVvwguJz77Y7K8ZWdByo4IbYVUAljRV06tAHhpTrUEReYNOLrkVjSXZCUGkFDS/EQb8CP8aq77IFkVzVKPfV4BvFUUXCnAIOjHVUsNdUjzSotqAFwluFgHHLcTY1mL6sBUNV9FnRgIDqcGU6tVuESnpDuXpZ4DeL1M1qXGt9d56quIOXJS2BidUu9g2GbNTdCVIhGgQwDz+dIle3lUwGLMLVoMpb+8cUug8M1VstRzl450hRDd/D5TlPQMOFcK7NPY3RRxZ5CkgB18P1Csudz2iN8KqCoQ2adiUN5qBjSM2WC8iHDCQcI0BtWBTk2h24KU7eqZG1+CYoJ6gaAaHARrdi8UldB4+2vYYGgxBhXk0lL4HYlh+JbcWNGtc2TWypTjgj51gGTyxVONP48vsMCRAYq2o2v9kR0plW5lQbzLLVcaQaUxAbnmGZdXQoXHHK0QlkKvop/FxdbRgFYyJFSTz8bFrGDW2jWaGst1CtlTrHnDPXN7C5X3MUCHOPXDRtRd1HLEDXe6vwrZ2mV+TyPoGiJzaxomVEA0xjw/D5TlPQP47cKhLzCPAR8npHhk6Gq8iwKwchbcqDhvWC1Beh4BYTY6wSI4WwvmHkS+1xriYa5hoeLEDAT1ZO2nab1fMCKea8QpCnoTzRoa3a1TFZ2WBcpyLzmUFcKauaui8ASy+ECrXYKa5AEut/ryn5TlPQP47cCHDRjwkfB6QCXLRLXyea3JZIFI1euz3yQxzei8rZsZe4d7KO9QUsW2j9T2e0qGfZ0gGjw3h6K9UesHmDq0dz2lABSe5c10KOk3QDQ/2nKflOUpTem86cenHow6MOjDoz6MOjDow6MOnFI1NkVDV+OIXdjRBtQr0Vr2GJCQt6z5le0WWuEXmoPvNe6rs8Oj04BWK6oJQisZZ4GqeNTtbQvncwYPLC+zuRAQTImjwneNhSzgpUyvwxESplcMSplTNAhTHhPQP4jBK0UBNEmbI8Wb6NtnpMLeBV8RtMGyC18XKZi8uTwDjI+T0igkWRS3p5NfLnKkDHlcitTwPPaCaIVlPNLlO02bJy0a8Kh54bd7HtZHtDgmuYxu/KP9NRg/4M9DvFxMsNF5HueQi6/FYF8wuBaIrAetzfRu4sk91/Tduvj+E6Lr8gCLtrL0yXZK7zT1PgW0pj4goRD5z2mvAMdPOORxpCB7fh6BPQMPwdikSYoC0LPzdo+vXEvMqtTLYN4hRk3MobZ0AcziBelt1ECZMnOxcVOV8eFY6kYGLxi4IKtAjXygGVeAowsJTt3Qunrwka7w+ySuhX7pRsPC3ZLKPtGQyCruwBdRLtqJFY+4N6rkgYn0IkSZC2yUo3USoEhukvwHqlu3XrF7gir2SnJR5l+RgTh4BtzA8UOuLwP2zauAWsIo5pSuKoXodo4DJgjgq6BZWHmd5XBR5i/3wi4J7jdCp51ErBqtBCUO9NLclYuQ4WA2SV7dMOsVPEpdUgxqUEYGxnN2BeAytgYAzxaA9yuuGlMECwBhFQsbtVKzcvbndtRJeNOvx4uc9AnoHicNTKWHrW7rHWaJblNBhS4ZgIem6Kg5qveM9ixmp7jXnLcI4XvWkMdopj1aXUsZTZdKjjgIbVhvcJXESXisaeyVQ8y9FgLtg1jnDxLL0wEN46GpUH04gNRaDVl1pcCxR71BT7ecVbUD1Av5vpKbskb0gfNy2PNOlYQzDL1kX9Q0BYBgOK4Ml4iQsFrdV05IXWNCiPmUC2oHknnAyrxoDxmuGm9XOsZermY21n12HJljrDkBBlCAHel84E8aAXKxddJUixfSaDAdJpbgcXXkXaveLFQ0t0tjaw8ocfTJ6B478P5Now0jw14SPi9I6NLjmx55P+Q1ACsv6p01JcKVmF5XIar0IW3ez3Oo6vIOkZhl7pXXxWuXfo6Af/gn3HyIwNNy1BnOb71ETs/ByuZDnQxZYfHlsH4Tptwn8g54Dw5wc8PQJ6CfcJ9wn2ifcJ9wn3CH/cQ/7ifcJ9wn2CGzG4VDV+OIDYte4OT1lXVbQfq9leE0k4Cmd8w4w6ioeD+kVW0x6XoOAoA2H2+vRG4jqvyRp6zDJcTCN6X9S+L5TvATVzN3hOZwtEIn/aT7hPuEP+4n3SH/AGEP+wn3iZ/2If8AYT7pAhJSCOk8iX/zJJJJJNtQtbhq/HEGs2/my9JbyNC7fT1Q+GQBD4BiHGDUlPjRC9Sa39w9zhVMA1eUz6m8cRAIOamgC3pCOwXYB4xQFJwnbFZ1dRv8f5L/AB/kv8f5L/H+S/x/kv8AH+S/x/kv8f5L/H+S/wAf5L/H+THVVU5T0D+BQGJXHV0FovVxEB8I0qVy0eZcI4IP1LRCroXtLgvBxIVadqNw2y01AtaqwzV30jSUq8gBYoWWfOaMMY01IPt2YTYFiaJwkfL6RQhLfps+eH/YjPgWx9XQOer6QQERHcmi4d7nPUUPjGx3fYf+zSY1ObfsbO0OfYXKRPgClPId6juAS5FeBHq7rwFIPaoetvj4w7w2jP2Vng9NnjO03RrM1SUzVponUshoZjUTQdGY+YzV5iCibqzpHf0b8EqwDpnWUyG21ivD4n4fKcp6B43mZUAxbp2JHnmmIKJA21FrWAlqMeVVx6FcMq8jUG/KLaiclKA23GtYzU5M7+FJ4ZSvCCOo9nm5W8r1ORyjtW/NuQcTRNNlZhAkOVqp3FcBCDGfLUmL2O83hb3R6U2uloRaHZXKYHsncFzYESBab0rCmXsDVOIyDjVQxOvVCJ8bRN7B32FPdYwWMu4VD5etK7KlRKoNKKGDJtmPgDY1GgWL6IhCDEzmlGwbRBd3H+nD3goNg4W1UIbb0DsuN56UB8BFgOg2G97lkrVOtI1gxUAPDWE0YpnGxRiqgNXdqC0acvLZVZlJO2oJYKs5X3DExDmC9XGxFWOTEAg8YHQ0DHX8PlOU9Azf8NJtNYSpvNOEjXWH3CW/uQcCWjtSHyyW5DAVJapMsvF+Y1CiwDRholeWK9aG1uBwQB74rAPNejKpzfPAIuVYY0Er2HZzh1tBsiGluwbK0qEcUcgOWqGvGjGBrV/gJuzorTStJStbVPmgGfUJP9ZL8pynoGEeLw2hw34yPk9IeQTDyjTwVr5842ASENjamt9H/YYUZd0+7KR7zLD5NeFsVGCIradjAd+cKGGmwKJaxe8PMTYNI7JE45JR7hrre9aNIFfGsD3whY2BGmTyAKujABgoFHI/2nKflOUNsNyfbM+yZ9sz7Zn2zPtmfbM+2Z9sz7Zn2zGTTZiGr8cQgiJYkSiuay+vJ2YCGoa/UUyvYasK8f8Amaexz16vN6vAgiJKdZsx6y7s7f8AaKFBYS77xzrwnLIE+WI/eP8AJ9q/yfav8n2r/J9q/wAn2r/J94/yfav8n2r/ACfeP8n3j/ItAsFXhHTGxOv8idT5E6nyJj1+RHn/ACJh1+ROr8k6/wAidT5E6nyJ1/kSzAohq/HEUlzAtP6BuwmPb0v127q4aSeleLFODmWvoEPEqNoDCUnMbeh94QTDdX9N+iVce1n/AAeCJAI1APeNKLifyPvCpVi269xcJzS2Msev8iZ9fkTr/InX+RDn/Ihz/kQ5vyIc/wCROv8AInU+ROv8iMkyhnoHhWOFrLAJ/wABMLOyN9y8oVLRVmcjz1InIZk1hnbWKaSa5o9tBFg6EcOkvVVKTk803RrYpjNy4KnSdatSat8oB+NyadPIJ3DbMKXqsqwJ5PCRrfHEX0+fzXeS4VsRVYZou6aMdMQhBr3mhAMZpLjrl2Qy1KqMZzHuLYUPKHIdTvylrJdshp5tPeNmircGzxbXodZhhG9DWt5zGIZNbQhQNg5waTo6g6kYOxyQtTM6c17vEhkkAm5wIpjll0Ba+UPnlXeaUPXYBnOGZ4zeLjTYm1ztKFb1QCTZSt3NM1cIJM1yTat21ymGLnhqJdADrBg2shiUnPVgNg3XkMpeDUMMGnzqVhPEhw9InoH8LCZll6FCmnpncVMTvzXerC9lOvk+W9VNCKrZzgMG5gxQAqZCxda5qoxRCZ63QbE1yYIMmdwqj3ADeWfAfsGgvUFgjGMzUUA61h6HARg6a8UkJDaPUPZYaiYWAowNvLoiFYqgu2AqWENt4SK41u2Wjgl1bw8zubk9lhhLcU6UfcIVRRc1FfuxCYylJO0qGYLGMSUYAtNFNtQpXpM5T15m9aQWa0qEYU/LVL8lnxXwzdnc8XYejH+mOfay1bJMukCF+NrJSi1d8XB7qEWBQjOrnBcIXcDfuZtL5tY0LukgMd6HUctbQVbPFBZaBGnGL3qOwknMKdSeUzN4Y4egT0D+I8TheeOgkrCTniL0zc7GvzD4w9dFEoAoCq0I1MH+hnViA7QIyt+TwA65NSwk+fjYVrxAVfEjuRgHOh8RA7whixSgOPI9RzmrcruoxWITbxzG5kHJDABAsDdXrKMplHgCABQADvHoPjwPR6DDDpfBAHCLWZ/Ya/gTf8PQJ6B/FmnA046PCR8XpFKKBbBzDz5Pw15/Ize//RC25QLzp7QZQEWA8DC65hthXZvrb9TrAxQSiZZeeQO7p4aEFWqIPFj0vjEGySA85JUVHekW/gFeMeYR612vd6cZ204bw14EOG/H0yC0OjPrE+sTP+pPr0+tTH+pPqk+tT61PrU+uRZlLssNX444C5k0a16aHtGpJfbHuZqgm8b6LZYhDRHSuHjMxeztn1UT4wxVX5L0zKprwKM9Y8MR4Tm3QYv1yfWJ9Un1qfXJ9cn1yfXJ9Umf9SfWoQjQKJ6B/F4bQjLzxkavxxGZGbX1/FtH1nzdztHXxesOUjln0EDMS8PYaL6J3m+WkZlb82pt7iIRETWeCHLRpXZjWBmEQRB1MLpTFFc6SvrSP1i4eNQ2OT0h1e0TCGo9HqflOy7cAhDgSp6RPQP4Gm6UIwv0w9Ez0U20/vGjZZYVtWualS+TFg3bAUwtazcKDBUDqjDlL53tDt8l8EX2pYOuhhvNRBcLF2Ri7+SBpWpMojIMC93Ypr7arAIDYbuuEhS6SXtAgzIGcj0CFjpZByHQqgC8q0i3UeNEKoA3HDzgABJEmCLYLtR2LhHMeGxfjUJ5Tnpi6mheJ6UIswHIqt7CvpEVEHalZICagbIPJZlmRF0FC2vKVza/RGqmUUgmjG14pNk+gTwJrbnhEHCLtzN63Kekr+4C6ypyuqN4tbxr9WWGBvBg4N8TFDr83rDNhzuB6wI2wlLL7FsO9Bo3ibki2oqswwGHMwWvMIq1GSliaryoYkFsfQU3Wx/Vk04egT0D+FCU1zIbQolWbjW1QWU6/QBUZEGuvooKLAF9iV8NiNthR38owawZ1JgAULVjVwHglIPJVyb15sAZXenWvX2TOdcw1JEYNQeAcJAivcCVyA7rvYUIynfnaCpZ8+aIQNeVi2IW05BiCbZtejkCeKWqlO9cvsMcUadlQ90iBFMdGv2ZR1Yu7ErsgSjjMdG/WjwVVFVkGxCpFsFA/U5FoUXET4SeG6oOSX5zHhmgAJhHRmYlrmu86TTooqN/Rl3BZWBZ5CLWYAiA6ClK2+yOqqCDgDa6Lgo3pAVc1qtKvwq5rG7eolm2+xK7tISixgHI2OU/sNZtPTJ6B4P4fycoPF4CPh9Iz13Ny5966TDxdRPZksl9jy9bWgCNliBOzgUDWEr7COR00DvziGkvZi1dqdiWzLAyjR6N9lhvCag4VlDwi9iCtw0aEuOURbxvRi3pAIsQybL0HiwAABA24EU1hCbcCEJvw1noE9A/lWJUNI6S48JGr8cQrNxU+hzIbPadkn6EPAWxryT0lNss+km3ijXFN5/fq29eCSK00CNOjq+DE/HeDuo2SjY3mz0ngIu/0dhH6YaCl8jkOX4bppmE/n478fQIwToDM6aOmjpo6aOmjpo6aOmjpo6bgwYqIaVmGr8cRvB7VHbeddmm+0Bk2gAekojTw1/Kvr0Ob0idya1Ds/2FReN4o+Y3E+vgXz9/VAKSJWDmcJxg3yN8Wpeh4S9D+etalrVi2oYnrH4IUALV2gaKvx+hKfjSp3Mk0Xg1hb1ELA7nBjq/HEK2CtL2Ocq3YeVhyx4K3UrdajNtieMGQYGV4q17p0Yvdowx6HYPnhMJG/GVoDViyaKa3XayspaK6xerivG2Il4q7PKpQxqi9n6HhL2plr9kLiuff8J0VgnAgV0zdUOrBLGtGkNYfKJK0WW5BGtDpyhyGx8n7FxsFhUE6NmoqFkSKa5KjQxuE9aHsM34+kT1j8Fsc8t5cnNl0vaDFjeJCqWHQpztDg9C0ht2gDqc5mff2AAJ0Cx2ZgtJgZQJWEqc88paXKcq0lpQU8XWXuMIwr0UyMVz5JwQehRN05+3CsQMpF8ex7y2aRW1hAxQdS9JVdM4MWVTZqwMWNIQqBYobKsRQhVuFmTldz9Et62Ucl/RQhIROQHmX5IakRqapdrzRs2AmGeqKsFXZiG+7/YECJlAMBjbB2BkC87d4rhT56/3wio4W69b9EQi2AlkuGzga3lL4lS6qpk9a1M5ht81b1A76W1i1rrCRQTacOOrhXXmmAu/TKiSk5Ha6agqCC+ioOwAVLADWpfiDwBS27jX8PQJ6x+BNgUiWJMPQfE1QLEeIIRdaGVzY7W7V11AvvKASIA6n9UU9u+1GD1odQp4qIiWlhh5QnwhqAaAT0aKoPL24B4OlrcuyeAYXUw9yYzTtYFjLBfXBYvrcCwEFyoply6IbTFsuDMpoHoxad0Cg6NEuVsKJgNd0Hu9ZNEamiowAqBQpoJQ78uxNFggJQzLHnidsnuO2Qj1CoOzNPJg8FeOQeOUYyAHD4/cl3oiTNwrQy4vdm3DCpFANNLnrPrlzatQEM1oC6A7DTlNsk2ousJdW6840nny560O48N+HpE9Y/09Gjq/HEB3GawLByRqI2up5BGaO13pxwZ7UGQ+wHTV2GaME2LFY5AwO+qyokZ6JUWX3qML+dk6SihLRXyNdJeI37iWQ+aNDpq+sxWM/F1PNl6fh+m7wm3Am83m/H0CBTC20+vn00+nn00+mn18+mn08+vn08+ulx9VMPh9IQEpIoqrqR0WWs3ndkIauj/BBgl8wDQ4W/dKt0f1LmwusOy+yynT8fuNJfFlvgouh6wh017p5vXhOV0uiR+hn1Mzfpn0MP8Akz6mfQzN+mZv0z6mfUwoLhB/sy+L0/M//AnaaXxen/x07SS+L0/JtH/4E7SS1kcG2q8vhPn/AOp8/wD1Pn/6nz/9T4X+p87/AFPmf6j879p8/wD1Plf6nzv9R3npQ2pk6n/q02c1+jZawbr/ALFWrUq1KlSpUq1Ktb56qMhVlIbH/wBT/9k=;fontColor=#000000;clipPath=inset(0% 0% 66.67% 0%);" parent="1" vertex="1">
                    <mxGeometry x="38" y="40" width="390.6" height="420" as="geometry"/>
                </mxCell>
                <mxCell id="150" value="" style="verticalLabelPosition=bottom;shadow=0;dashed=0;align=center;html=1;verticalAlign=top;shape=mxgraph.electrical.opto_electronics.led_1;pointerEvents=1;strokeWidth=3;rotation=-180;" parent="1" vertex="1">
                    <mxGeometry x="-110" y="220" width="100" height="65" as="geometry"/>
                </mxCell>
                <mxCell id="154" value="" style="endArrow=none;html=1;strokeWidth=3;exitX=1;exitY=0.54;exitDx=0;exitDy=0;exitPerimeter=0;entryX=-0.005;entryY=0.727;entryDx=0;entryDy=0;entryPerimeter=0;" parent="1" source="150" target="4" edge="1">
                    <mxGeometry width="50" height="50" relative="1" as="geometry">
                        <mxPoint x="-10" y="270" as="sourcePoint"/>
                        <mxPoint x="-30" y="251" as="targetPoint"/>
                        <Array as="points">
                            <mxPoint x="-150" y="250"/>
                            <mxPoint x="-150" y="345"/>
                        </Array>
                    </mxGeometry>
                </mxCell>
                <mxCell id="155" value="" style="endArrow=none;html=1;strokeWidth=3;exitX=-0.011;exitY=0.616;exitDx=0;exitDy=0;exitPerimeter=0;entryX=0;entryY=0.54;entryDx=0;entryDy=0;entryPerimeter=0;strokeColor=#FF3333;" parent="1" source="4" target="150" edge="1">
                    <mxGeometry width="50" height="50" relative="1" as="geometry">
                        <mxPoint x="110" y="280" as="sourcePoint"/>
                        <mxPoint x="160" y="230" as="targetPoint"/>
                    </mxGeometry>
                </mxCell>
                <mxCell id="156" value="RST" style="rounded=1;whiteSpace=wrap;html=1;sketch=0;strokeWidth=3;fontSize=22;fontStyle=1" parent="1" vertex="1">
                    <mxGeometry x="173.3" y="480" width="120" height="60" as="geometry"/>
                </mxCell>
                <mxCell id="157" value="" style="shape=mxgraph.electrical.electro-mechanical.pushbutton;aspect=fixed;elSwitchState=on;sketch=0;strokeWidth=3;fontSize=22;rotation=90;" parent="1" vertex="1">
                    <mxGeometry x="450" y="285" width="150" height="40" as="geometry"/>
                </mxCell>
                <mxCell id="158" value="" style="endArrow=none;html=1;strokeColor=#000000;strokeWidth=3;fontSize=22;fontColor=#000000;exitX=0;exitY=0.8;exitDx=0;exitDy=0;entryX=1.002;entryY=0.46;entryDx=0;entryDy=0;entryPerimeter=0;" parent="1" source="157" target="4" edge="1">
                    <mxGeometry width="50" height="50" relative="1" as="geometry">
                        <mxPoint x="470" y="330" as="sourcePoint"/>
                        <mxPoint x="520" y="280" as="targetPoint"/>
                    </mxGeometry>
                </mxCell>
                <mxCell id="159" value="" style="endArrow=none;html=1;strokeColor=#000000;strokeWidth=3;fontSize=22;fontColor=#000000;exitX=1;exitY=0.8;exitDx=0;exitDy=0;entryX=1;entryY=0.5;entryDx=0;entryDy=0;" parent="1" source="157" target="156" edge="1">
                    <mxGeometry width="50" height="50" relative="1" as="geometry">
                        <mxPoint x="523" y="239.99999999999977" as="sourcePoint"/>
                        <mxPoint x="439.3811999999998" y="243.20000000000005" as="targetPoint"/>
                        <Array as="points">
                            <mxPoint x="513" y="510"/>
                        </Array>
                    </mxGeometry>
                </mxCell>
            </root>
        </mxGraphModel>
    </diagram>
</mxfile>